<?xml version="1.0" encoding="UTF-8" standalone="no"?><svg xmlns="http://www.w3.org/2000/svg" xmlns:xlink="http://www.w3.org/1999/xlink" contentScriptType="application/ecmascript" contentStyleType="text/css" height="955px" preserveAspectRatio="none" style="width:1089px;height:955px;" version="1.1" viewBox="0 0 1089 955" width="1089px" zoomAndPan="magnify"><defs><filter height="300%" id="f1rmxycg5le5fc" width="300%" x="-1" y="-1"><feGaussianBlur result="blurOut" stdDeviation="2.0"/><feColorMatrix in="blurOut" result="blurOut2" type="matrix" values="0 0 0 0 0 0 0 0 0 0 0 0 0 0 0 0 0 0 .4 0"/><feOffset dx="4.0" dy="4.0" in="blurOut2" result="blurOut3"/><feBlend in="SourceGraphic" in2="blurOut3" mode="normal"/></filter></defs><g><rect fill="#FFFFFF" filter="url(#f1rmxycg5le5fc)" height="456.6016" style="stroke: #000000; stroke-width: 2.0;" width="1064.5" x="13" y="394.625"/><rect fill="#FFFFFF" filter="url(#f1rmxycg5le5fc)" height="206.7344" style="stroke: #000000; stroke-width: 2.0;" width="1044.5" x="23" y="564.4219"/><rect fill="#FFFFFF" height="102.2031" style="stroke: none; stroke-width: 1.0;" width="1044.5" x="23" y="668.9531"/><rect fill="#FFFFFF" height="73.0703" style="stroke: none; stroke-width: 1.0;" width="1064.5" x="13" y="778.1563"/><line style="stroke: #A80036; stroke-width: 1.0; stroke-dasharray: 5.0,5.0;" x1="51" x2="51" y1="86.2969" y2="868.2266"/><line style="stroke: #A80036; stroke-width: 1.0; stroke-dasharray: 5.0,5.0;" x1="294.5" x2="294.5" y1="86.2969" y2="868.2266"/><line style="stroke: #A80036; stroke-width: 1.0; stroke-dasharray: 5.0,5.0;" x1="667" x2="667" y1="86.2969" y2="868.2266"/><line style="stroke: #A80036; stroke-width: 1.0; stroke-dasharray: 5.0,5.0;" x1="1039.5" x2="1039.5" y1="86.2969" y2="868.2266"/><text fill="#000000" font-family="sans-serif" font-size="14" lengthAdjust="spacingAndGlyphs" textLength="31" x="33" y="82.9951">user</text><ellipse cx="51.5" cy="13" fill="#FEFECE" filter="url(#f1rmxycg5le5fc)" rx="8" ry="8" style="stroke: #A80036; stroke-width: 2.0;"/><path d="M51.5,21 L51.5,48 M38.5,29 L64.5,29 M51.5,48 L38.5,63 M51.5,48 L64.5,63 " fill="none" filter="url(#f1rmxycg5le5fc)" style="stroke: #A80036; stroke-width: 2.0;"/><text fill="#000000" font-family="sans-serif" font-size="14" lengthAdjust="spacingAndGlyphs" textLength="31" x="33" y="880.2217">user</text><ellipse cx="51.5" cy="893.5234" fill="#FEFECE" filter="url(#f1rmxycg5le5fc)" rx="8" ry="8" style="stroke: #A80036; stroke-width: 2.0;"/><path d="M51.5,901.5234 L51.5,928.5234 M38.5,909.5234 L64.5,909.5234 M51.5,928.5234 L38.5,943.5234 M51.5,928.5234 L64.5,943.5234 " fill="none" filter="url(#f1rmxycg5le5fc)" style="stroke: #A80036; stroke-width: 2.0;"/><rect fill="#FEFECE" filter="url(#f1rmxycg5le5fc)" height="30.2969" style="stroke: #A80036; stroke-width: 1.5;" width="38" x="273.5" y="51"/><text fill="#000000" font-family="sans-serif" font-size="14" lengthAdjust="spacingAndGlyphs" textLength="24" x="280.5" y="70.9951">GUI</text><rect fill="#FEFECE" filter="url(#f1rmxycg5le5fc)" height="30.2969" style="stroke: #A80036; stroke-width: 1.5;" width="38" x="273.5" y="867.2266"/><text fill="#000000" font-family="sans-serif" font-size="14" lengthAdjust="spacingAndGlyphs" textLength="24" x="280.5" y="887.2217">GUI</text><rect fill="#FEFECE" filter="url(#f1rmxycg5le5fc)" height="30.2969" style="stroke: #A80036; stroke-width: 1.5;" width="57" x="637" y="51"/><text fill="#000000" font-family="sans-serif" font-size="14" lengthAdjust="spacingAndGlyphs" textLength="43" x="644" y="70.9951">server</text><rect fill="#FEFECE" filter="url(#f1rmxycg5le5fc)" height="30.2969" style="stroke: #A80036; stroke-width: 1.5;" width="57" x="637" y="867.2266"/><text fill="#000000" font-family="sans-serif" font-size="14" lengthAdjust="spacingAndGlyphs" textLength="43" x="644" y="887.2217">server</text><text fill="#000000" font-family="sans-serif" font-size="14" lengthAdjust="spacingAndGlyphs" textLength="18" x="1027.5" y="82.9951">db</text><path d="M1021.5,34 C1021.5,24 1039.5,24 1039.5,24 C1039.5,24 1057.5,24 1057.5,34 L1057.5,60 C1057.5,70 1039.5,70 1039.5,70 C1039.5,70 1021.5,70 1021.5,60 L1021.5,34 " fill="#FEFECE" filter="url(#f1rmxycg5le5fc)" style="stroke: #000000; stroke-width: 1.5;"/><path d="M1021.5,34 C1021.5,44 1039.5,44 1039.5,44 C1039.5,44 1057.5,44 1057.5,34 " fill="none" style="stroke: #000000; stroke-width: 1.5;"/><text fill="#000000" font-family="sans-serif" font-size="14" lengthAdjust="spacingAndGlyphs" textLength="18" x="1027.5" y="880.2217">db</text><path d="M1021.5,893.5234 C1021.5,883.5234 1039.5,883.5234 1039.5,883.5234 C1039.5,883.5234 1057.5,883.5234 1057.5,893.5234 L1057.5,919.5234 C1057.5,929.5234 1039.5,929.5234 1039.5,929.5234 C1039.5,929.5234 1021.5,929.5234 1021.5,919.5234 L1021.5,893.5234 " fill="#FEFECE" filter="url(#f1rmxycg5le5fc)" style="stroke: #000000; stroke-width: 1.5;"/><path d="M1021.5,893.5234 C1021.5,903.5234 1039.5,903.5234 1039.5,903.5234 C1039.5,903.5234 1057.5,903.5234 1057.5,893.5234 " fill="none" style="stroke: #000000; stroke-width: 1.5;"/><polygon fill="#A80036" points="282.5,113.4297,292.5,117.4297,282.5,121.4297,286.5,117.4297" style="stroke: #A80036; stroke-width: 1.0;"/><line style="stroke: #A80036; stroke-width: 1.0;" x1="51.5" x2="288.5" y1="117.4297" y2="117.4297"/><text fill="#000000" font-family="sans-serif" font-size="13" lengthAdjust="spacingAndGlyphs" textLength="61" x="58.5" y="112.3638">open App</text><polygon fill="#A80036" points="655.5,142.5625,665.5,146.5625,655.5,150.5625,659.5,146.5625" style="stroke: #A80036; stroke-width: 1.0;"/><line style="stroke: #A80036; stroke-width: 1.0;" x1="294.5" x2="661.5" y1="146.5625" y2="146.5625"/><text fill="#000000" font-family="sans-serif" font-size="13" lengthAdjust="spacingAndGlyphs" textLength="114" x="301.5" y="141.4966">String loadMenu()</text><polygon fill="#A80036" points="1027.5,171.6953,1037.5,175.6953,1027.5,179.6953,1031.5,175.6953" style="stroke: #A80036; stroke-width: 1.0;"/><line style="stroke: #A80036; stroke-width: 1.0;" x1="667.5" x2="1033.5" y1="175.6953" y2="175.6953"/><text fill="#000000" font-family="sans-serif" font-size="13" lengthAdjust="spacingAndGlyphs" textLength="168" x="674.5" y="170.6294">Line[] getCurrentLineInfo()</text><polygon fill="#A80036" points="678.5,200.8281,668.5,204.8281,678.5,208.8281,674.5,204.8281" style="stroke: #A80036; stroke-width: 1.0;"/><line style="stroke: #A80036; stroke-width: 1.0; stroke-dasharray: 2.0,2.0;" x1="672.5" x2="1038.5" y1="204.8281" y2="204.8281"/><text fill="#000000" font-family="sans-serif" font-size="13" lengthAdjust="spacingAndGlyphs" textLength="36" x="684.5" y="199.7622">Line[]</text><polygon fill="#A80036" points="305.5,229.9609,295.5,233.9609,305.5,237.9609,301.5,233.9609" style="stroke: #A80036; stroke-width: 1.0;"/><line style="stroke: #A80036; stroke-width: 1.0; stroke-dasharray: 2.0,2.0;" x1="299.5" x2="666.5" y1="233.9609" y2="233.9609"/><text fill="#000000" font-family="sans-serif" font-size="13" lengthAdjust="spacingAndGlyphs" textLength="81" x="311.5" y="228.895">return String</text><polygon fill="#A80036" points="62.5,259.0938,52.5,263.0938,62.5,267.0938,58.5,263.0938" style="stroke: #A80036; stroke-width: 1.0;"/><line style="stroke: #A80036; stroke-width: 1.0; stroke-dasharray: 2.0,2.0;" x1="56.5" x2="293.5" y1="263.0938" y2="263.0938"/><text fill="#000000" font-family="sans-serif" font-size="13" lengthAdjust="spacingAndGlyphs" textLength="73" x="68.5" y="258.0278">show menu</text><polygon fill="#A80036" points="282.5,288.2266,292.5,292.2266,282.5,296.2266,286.5,292.2266" style="stroke: #A80036; stroke-width: 1.0;"/><line style="stroke: #A80036; stroke-width: 1.0;" x1="51.5" x2="288.5" y1="292.2266" y2="292.2266"/><text fill="#000000" font-family="sans-serif" font-size="13" lengthAdjust="spacingAndGlyphs" textLength="133" x="58.5" y="287.1606">choose line and time</text><polygon fill="#A80036" points="655.5,317.3594,665.5,321.3594,655.5,325.3594,659.5,321.3594" style="stroke: #A80036; stroke-width: 1.0;"/><line style="stroke: #A80036; stroke-width: 1.0;" x1="294.5" x2="661.5" y1="321.3594" y2="321.3594"/><text fill="#000000" font-family="sans-serif" font-size="13" lengthAdjust="spacingAndGlyphs" textLength="349" x="301.5" y="316.2935">Group[] getGroupsByPrefferencess(prefferences prefs)</text><polygon fill="#A80036" points="1027.5,346.4922,1037.5,350.4922,1027.5,354.4922,1031.5,350.4922" style="stroke: #A80036; stroke-width: 1.0;"/><line style="stroke: #A80036; stroke-width: 1.0;" x1="667.5" x2="1033.5" y1="350.4922" y2="350.4922"/><text fill="#000000" font-family="sans-serif" font-size="13" lengthAdjust="spacingAndGlyphs" textLength="145" x="674.5" y="345.4263">Group[] getAllGroups()</text><polygon fill="#A80036" points="678.5,375.625,668.5,379.625,678.5,383.625,674.5,379.625" style="stroke: #A80036; stroke-width: 1.0;"/><line style="stroke: #A80036; stroke-width: 1.0; stroke-dasharray: 2.0,2.0;" x1="672.5" x2="1038.5" y1="379.625" y2="379.625"/><text fill="#000000" font-family="sans-serif" font-size="13" lengthAdjust="spacingAndGlyphs" textLength="92" x="684.5" y="374.5591">return Group[]</text><path d="M13,394.625 L77,394.625 L77,401.625 L67,411.625 L13,411.625 L13,394.625 " fill="#EEEEEE" style="stroke: #000000; stroke-width: 1.0;"/><rect fill="none" height="456.6016" style="stroke: #000000; stroke-width: 2.0;" width="1064.5" x="13" y="394.625"/><text fill="#000000" font-family="sans-serif" font-size="13" font-weight="bold" lengthAdjust="spacingAndGlyphs" textLength="19" x="28" y="407.6919">alt</text><polygon fill="#A80036" points="305.5,428.8906,295.5,432.8906,305.5,436.8906,301.5,432.8906" style="stroke: #A80036; stroke-width: 1.0;"/><line style="stroke: #A80036; stroke-width: 1.0; stroke-dasharray: 2.0,2.0;" x1="299.5" x2="666.5" y1="432.8906" y2="432.8906"/><text fill="#000000" font-family="sans-serif" font-size="13" lengthAdjust="spacingAndGlyphs" textLength="92" x="311.5" y="427.8247">return Group[]</text><polygon fill="#A80036" points="62.5,458.0234,52.5,462.0234,62.5,466.0234,58.5,462.0234" style="stroke: #A80036; stroke-width: 1.0;"/><line style="stroke: #A80036; stroke-width: 1.0; stroke-dasharray: 2.0,2.0;" x1="56.5" x2="293.5" y1="462.0234" y2="462.0234"/><text fill="#000000" font-family="sans-serif" font-size="13" lengthAdjust="spacingAndGlyphs" textLength="140" x="68.5" y="456.9575">show available groups</text><polygon fill="#A80036" points="282.5,487.1563,292.5,491.1563,282.5,495.1563,286.5,491.1563" style="stroke: #A80036; stroke-width: 1.0;"/><line style="stroke: #A80036; stroke-width: 1.0;" x1="51.5" x2="288.5" y1="491.1563" y2="491.1563"/><text fill="#000000" font-family="sans-serif" font-size="13" lengthAdjust="spacingAndGlyphs" textLength="115" x="58.5" y="486.0903">choose one group</text><polygon fill="#A80036" points="655.5,516.2891,665.5,520.2891,655.5,524.2891,659.5,520.2891" style="stroke: #A80036; stroke-width: 1.0;"/><line style="stroke: #A80036; stroke-width: 1.0;" x1="294.5" x2="661.5" y1="520.2891" y2="520.2891"/><text fill="#000000" font-family="sans-serif" font-size="13" lengthAdjust="spacingAndGlyphs" textLength="305" x="301.5" y="515.2231">boolean joinGroup(String userId, String groupId)</text><polygon fill="#A80036" points="1027.5,545.4219,1037.5,549.4219,1027.5,553.4219,1031.5,549.4219" style="stroke: #A80036; stroke-width: 1.0;"/><line style="stroke: #A80036; stroke-width: 1.0;" x1="667.5" x2="1033.5" y1="549.4219" y2="549.4219"/><text fill="#000000" font-family="sans-serif" font-size="13" lengthAdjust="spacingAndGlyphs" textLength="348" x="674.5" y="544.356">boolean addUserToGroup(string userId, string groupId)</text><path d="M23,564.4219 L87,564.4219 L87,571.4219 L77,581.4219 L23,581.4219 L23,564.4219 " fill="#EEEEEE" style="stroke: #000000; stroke-width: 1.0;"/><rect fill="none" height="206.7344" style="stroke: #000000; stroke-width: 2.0;" width="1044.5" x="23" y="564.4219"/><text fill="#000000" font-family="sans-serif" font-size="13" font-weight="bold" lengthAdjust="spacingAndGlyphs" textLength="19" x="38" y="577.4888">alt</text><polygon fill="#A80036" points="678.5,598.6875,668.5,602.6875,678.5,606.6875,674.5,602.6875" style="stroke: #A80036; stroke-width: 1.0;"/><line style="stroke: #A80036; stroke-width: 1.0; stroke-dasharray: 2.0,2.0;" x1="672.5" x2="1038.5" y1="602.6875" y2="602.6875"/><text fill="#000000" font-family="sans-serif" font-size="13" lengthAdjust="spacingAndGlyphs" textLength="69" x="684.5" y="597.6216">return true</text><polygon fill="#A80036" points="305.5,627.8203,295.5,631.8203,305.5,635.8203,301.5,631.8203" style="stroke: #A80036; stroke-width: 1.0;"/><line style="stroke: #A80036; stroke-width: 1.0; stroke-dasharray: 2.0,2.0;" x1="299.5" x2="666.5" y1="631.8203" y2="631.8203"/><text fill="#000000" font-family="sans-serif" font-size="13" lengthAdjust="spacingAndGlyphs" textLength="69" x="311.5" y="626.7544">return true</text><polygon fill="#A80036" points="62.5,656.9531,52.5,660.9531,62.5,664.9531,58.5,660.9531" style="stroke: #A80036; stroke-width: 1.0;"/><line style="stroke: #A80036; stroke-width: 1.0; stroke-dasharray: 2.0,2.0;" x1="56.5" x2="293.5" y1="660.9531" y2="660.9531"/><text fill="#000000" font-family="sans-serif" font-size="13" lengthAdjust="spacingAndGlyphs" textLength="116" x="68.5" y="655.8872">show confirmation</text><line style="stroke: #000000; stroke-width: 1.0; stroke-dasharray: 2.0,2.0;" x1="23" x2="1067.5" y1="669.9531" y2="669.9531"/><text fill="#000000" font-family="sans-serif" font-size="11" font-weight="bold" lengthAdjust="spacingAndGlyphs" textLength="126" x="28" y="680.1636">[maximum reached]</text><polygon fill="#A80036" points="678.5,700.8906,668.5,704.8906,678.5,708.8906,674.5,704.8906" style="stroke: #A80036; stroke-width: 1.0;"/><line style="stroke: #A80036; stroke-width: 1.0; stroke-dasharray: 2.0,2.0;" x1="672.5" x2="1038.5" y1="704.8906" y2="704.8906"/><text fill="#000000" font-family="sans-serif" font-size="13" lengthAdjust="spacingAndGlyphs" textLength="73" x="684.5" y="699.8247">return false</text><polygon fill="#A80036" points="305.5,730.0234,295.5,734.0234,305.5,738.0234,301.5,734.0234" style="stroke: #A80036; stroke-width: 1.0;"/><line style="stroke: #A80036; stroke-width: 1.0; stroke-dasharray: 2.0,2.0;" x1="299.5" x2="666.5" y1="734.0234" y2="734.0234"/><text fill="#000000" font-family="sans-serif" font-size="13" lengthAdjust="spacingAndGlyphs" textLength="73" x="311.5" y="728.9575">return false</text><polygon fill="#A80036" points="62.5,759.1563,52.5,763.1563,62.5,767.1563,58.5,763.1563" style="stroke: #A80036; stroke-width: 1.0;"/><line style="stroke: #A80036; stroke-width: 1.0; stroke-dasharray: 2.0,2.0;" x1="56.5" x2="293.5" y1="763.1563" y2="763.1563"/><text fill="#000000" font-family="sans-serif" font-size="13" lengthAdjust="spacingAndGlyphs" textLength="158" x="68.5" y="758.0903">show participation failure</text><line style="stroke: #000000; stroke-width: 1.0; stroke-dasharray: 2.0,2.0;" x1="13" x2="1077.5" y1="779.1563" y2="779.1563"/><text fill="#000000" font-family="sans-serif" font-size="11" font-weight="bold" lengthAdjust="spacingAndGlyphs" textLength="214" x="18" y="789.3667">[no group with same parameters]</text><polygon fill="#A80036" points="305.5,810.0938,295.5,814.0938,305.5,818.0938,301.5,814.0938" style="stroke: #A80036; stroke-width: 1.0;"/><line style="stroke: #A80036; stroke-width: 1.0; stroke-dasharray: 2.0,2.0;" x1="299.5" x2="666.5" y1="814.0938" y2="814.0938"/><text fill="#000000" font-family="sans-serif" font-size="13" lengthAdjust="spacingAndGlyphs" textLength="65" x="311.5" y="809.0278">return null</text><polygon fill="#A80036" points="62.5,839.2266,52.5,843.2266,62.5,847.2266,58.5,843.2266" style="stroke: #A80036; stroke-width: 1.0;"/><line style="stroke: #A80036; stroke-width: 1.0; stroke-dasharray: 2.0,2.0;" x1="56.5" x2="293.5" y1="843.2266" y2="843.2266"/><text fill="#000000" font-family="sans-serif" font-size="13" lengthAdjust="spacingAndGlyphs" textLength="219" x="68.5" y="838.1606">create group or show homescreen</text><!--
@startuml
actor user

user -> GUI: open App

GUI -> server: String loadMenu()

database db
server -> db: Line[] getCurrentLineInfo()
server <- - db: Line[]

GUI <- - server: return String
user <- - GUI: show menu

user -> GUI: choose line and time
GUI -> server: Group[] getGroupsByPrefferencess(prefferences prefs)
server -> db: Group[] getAllGroups()
server <- - db: return Group[]

alt

GUI <- - server: return Group[]
user <- - GUI: show available groups

user -> GUI: choose one group
GUI -> server: boolean joinGroup(String userId, String groupId)
server -> db: boolean addUserToGroup(string userId, string groupId)

alt 

server <- - db: return true
GUI <- - server: return true
user <- - GUI: show confirmation


else maximum reached

server <- - db: return false
GUI <- - server: return false
user <- - GUI: show participation failure

end
else no group with same parameters

GUI <- - server: return null
user <- - GUI: create group or show homescreen
end
@enduml

PlantUML version 1.2019.07beta1(Unknown compile time)
(GPL source distribution)
Java Runtime: Java(TM) SE Runtime Environment
JVM: Java HotSpot(TM) 64-Bit Server VM
Java Version: 1.7.0_25-b15
Operating System: Linux
Default Encoding: UTF-8
Language: en
Country: US
--></g></svg>