<?xml version="1.0" encoding="UTF-8" standalone="no"?><svg xmlns="http://www.w3.org/2000/svg" xmlns:xlink="http://www.w3.org/1999/xlink" contentScriptType="application/ecmascript" contentStyleType="text/css" height="997px" preserveAspectRatio="none" style="width:879px;height:997px;" version="1.1" viewBox="0 0 879 997" width="879px" zoomAndPan="magnify"><defs><filter height="300%" id="fxv2x4j8va24q" width="300%" x="-1" y="-1"><feGaussianBlur result="blurOut" stdDeviation="2.0"/><feColorMatrix in="blurOut" result="blurOut2" type="matrix" values="0 0 0 0 0 0 0 0 0 0 0 0 0 0 0 0 0 0 .4 0"/><feOffset dx="4.0" dy="4.0" in="blurOut2" result="blurOut3"/><feBlend in="SourceGraphic" in2="blurOut3" mode="normal"/></filter></defs><g><rect fill="#FFFFFF" filter="url(#fxv2x4j8va24q)" height="456.6016" style="stroke: #000000; stroke-width: 2.0;" width="854.5" x="13" y="436.7578"/><rect fill="#FFFFFF" filter="url(#fxv2x4j8va24q)" height="206.7344" style="stroke: #000000; stroke-width: 2.0;" width="834.5" x="23" y="606.5547"/><rect fill="#FFFFFF" height="102.2031" style="stroke: none; stroke-width: 1.0;" width="834.5" x="23" y="711.0859"/><rect fill="#FFFFFF" height="73.0703" style="stroke: none; stroke-width: 1.0;" width="854.5" x="13" y="820.2891"/><line style="stroke: #A80036; stroke-width: 1.0; stroke-dasharray: 5.0,5.0;" x1="51" x2="51" y1="86.2969" y2="910.3594"/><line style="stroke: #A80036; stroke-width: 1.0; stroke-dasharray: 5.0,5.0;" x1="294" x2="294" y1="86.2969" y2="910.3594"/><line style="stroke: #A80036; stroke-width: 1.0; stroke-dasharray: 5.0,5.0;" x1="538" x2="538" y1="86.2969" y2="910.3594"/><line style="stroke: #A80036; stroke-width: 1.0; stroke-dasharray: 5.0,5.0;" x1="829.5" x2="829.5" y1="86.2969" y2="910.3594"/><text fill="#000000" font-family="sans-serif" font-size="14" lengthAdjust="spacingAndGlyphs" textLength="31" x="33" y="82.9951">user</text><ellipse cx="51.5" cy="13" fill="#FEFECE" filter="url(#fxv2x4j8va24q)" rx="8" ry="8" style="stroke: #A80036; stroke-width: 2.0;"/><path d="M51.5,21 L51.5,48 M38.5,29 L64.5,29 M51.5,48 L38.5,63 M51.5,48 L64.5,63 " fill="none" filter="url(#fxv2x4j8va24q)" style="stroke: #A80036; stroke-width: 2.0;"/><text fill="#000000" font-family="sans-serif" font-size="14" lengthAdjust="spacingAndGlyphs" textLength="31" x="33" y="922.3545">user</text><ellipse cx="51.5" cy="935.6563" fill="#FEFECE" filter="url(#fxv2x4j8va24q)" rx="8" ry="8" style="stroke: #A80036; stroke-width: 2.0;"/><path d="M51.5,943.6563 L51.5,970.6563 M38.5,951.6563 L64.5,951.6563 M51.5,970.6563 L38.5,985.6563 M51.5,970.6563 L64.5,985.6563 " fill="none" filter="url(#fxv2x4j8va24q)" style="stroke: #A80036; stroke-width: 2.0;"/><rect fill="#FEFECE" filter="url(#fxv2x4j8va24q)" height="30.2969" style="stroke: #A80036; stroke-width: 1.5;" width="53" x="266" y="51"/><text fill="#000000" font-family="sans-serif" font-size="14" lengthAdjust="spacingAndGlyphs" textLength="39" x="273" y="70.9951">Client</text><rect fill="#FEFECE" filter="url(#fxv2x4j8va24q)" height="30.2969" style="stroke: #A80036; stroke-width: 1.5;" width="53" x="266" y="909.3594"/><text fill="#000000" font-family="sans-serif" font-size="14" lengthAdjust="spacingAndGlyphs" textLength="39" x="273" y="929.3545">Client</text><rect fill="#FEFECE" filter="url(#fxv2x4j8va24q)" height="30.2969" style="stroke: #A80036; stroke-width: 1.5;" width="57" x="508" y="51"/><text fill="#000000" font-family="sans-serif" font-size="14" lengthAdjust="spacingAndGlyphs" textLength="43" x="515" y="70.9951">server</text><rect fill="#FEFECE" filter="url(#fxv2x4j8va24q)" height="30.2969" style="stroke: #A80036; stroke-width: 1.5;" width="57" x="508" y="909.3594"/><text fill="#000000" font-family="sans-serif" font-size="14" lengthAdjust="spacingAndGlyphs" textLength="43" x="515" y="929.3545">server</text><text fill="#000000" font-family="sans-serif" font-size="14" lengthAdjust="spacingAndGlyphs" textLength="18" x="817.5" y="82.9951">db</text><path d="M811.5,34 C811.5,24 829.5,24 829.5,24 C829.5,24 847.5,24 847.5,34 L847.5,60 C847.5,70 829.5,70 829.5,70 C829.5,70 811.5,70 811.5,60 L811.5,34 " fill="#FEFECE" filter="url(#fxv2x4j8va24q)" style="stroke: #000000; stroke-width: 1.5;"/><path d="M811.5,34 C811.5,44 829.5,44 829.5,44 C829.5,44 847.5,44 847.5,34 " fill="none" style="stroke: #000000; stroke-width: 1.5;"/><text fill="#000000" font-family="sans-serif" font-size="14" lengthAdjust="spacingAndGlyphs" textLength="18" x="817.5" y="922.3545">db</text><path d="M811.5,935.6563 C811.5,925.6563 829.5,925.6563 829.5,925.6563 C829.5,925.6563 847.5,925.6563 847.5,935.6563 L847.5,961.6563 C847.5,971.6563 829.5,971.6563 829.5,971.6563 C829.5,971.6563 811.5,971.6563 811.5,961.6563 L811.5,935.6563 " fill="#FEFECE" filter="url(#fxv2x4j8va24q)" style="stroke: #000000; stroke-width: 1.5;"/><path d="M811.5,935.6563 C811.5,945.6563 829.5,945.6563 829.5,945.6563 C829.5,945.6563 847.5,945.6563 847.5,935.6563 " fill="none" style="stroke: #000000; stroke-width: 1.5;"/><polygon fill="#A80036" points="282.5,113.4297,292.5,117.4297,282.5,121.4297,286.5,117.4297" style="stroke: #A80036; stroke-width: 1.0;"/><line style="stroke: #A80036; stroke-width: 1.0;" x1="51.5" x2="288.5" y1="117.4297" y2="117.4297"/><text fill="#000000" font-family="sans-serif" font-size="13" lengthAdjust="spacingAndGlyphs" textLength="61" x="58.5" y="112.3638">open App</text><polygon fill="#A80036" points="526.5,142.5625,536.5,146.5625,526.5,150.5625,530.5,146.5625" style="stroke: #A80036; stroke-width: 1.0;"/><line style="stroke: #A80036; stroke-width: 1.0;" x1="294.5" x2="532.5" y1="146.5625" y2="146.5625"/><text fill="#000000" font-family="sans-serif" font-size="13" lengthAdjust="spacingAndGlyphs" textLength="66" x="301.5" y="141.4966">getMenu()</text><polygon fill="#A80036" points="817.5,171.6953,827.5,175.6953,817.5,179.6953,821.5,175.6953" style="stroke: #A80036; stroke-width: 1.0;"/><line style="stroke: #A80036; stroke-width: 1.0;" x1="538.5" x2="823.5" y1="175.6953" y2="175.6953"/><text fill="#000000" font-family="sans-serif" font-size="13" lengthAdjust="spacingAndGlyphs" textLength="57" x="545.5" y="170.6294">getLine()</text><polygon fill="#A80036" points="549.5,200.8281,539.5,204.8281,549.5,208.8281,545.5,204.8281" style="stroke: #A80036; stroke-width: 1.0;"/><line style="stroke: #A80036; stroke-width: 1.0; stroke-dasharray: 2.0,2.0;" x1="543.5" x2="828.5" y1="204.8281" y2="204.8281"/><text fill="#000000" font-family="sans-serif" font-size="13" lengthAdjust="spacingAndGlyphs" textLength="29" x="555.5" y="199.7622">lines</text><polygon fill="#A80036" points="305.5,229.9609,295.5,233.9609,305.5,237.9609,301.5,233.9609" style="stroke: #A80036; stroke-width: 1.0;"/><line style="stroke: #A80036; stroke-width: 1.0; stroke-dasharray: 2.0,2.0;" x1="299.5" x2="537.5" y1="233.9609" y2="233.9609"/><text fill="#000000" font-family="sans-serif" font-size="13" lengthAdjust="spacingAndGlyphs" textLength="37" x="311.5" y="228.895">menu</text><polygon fill="#A80036" points="62.5,259.0938,52.5,263.0938,62.5,267.0938,58.5,263.0938" style="stroke: #A80036; stroke-width: 1.0;"/><line style="stroke: #A80036; stroke-width: 1.0; stroke-dasharray: 2.0,2.0;" x1="56.5" x2="293.5" y1="263.0938" y2="263.0938"/><text fill="#000000" font-family="sans-serif" font-size="13" lengthAdjust="spacingAndGlyphs" textLength="73" x="68.5" y="258.0278">show menu</text><polygon fill="#A80036" points="282.5,288.2266,292.5,292.2266,282.5,296.2266,286.5,292.2266" style="stroke: #A80036; stroke-width: 1.0;"/><line style="stroke: #A80036; stroke-width: 1.0;" x1="51.5" x2="288.5" y1="292.2266" y2="292.2266"/><text fill="#000000" font-family="sans-serif" font-size="13" lengthAdjust="spacingAndGlyphs" textLength="133" x="58.5" y="287.1606">choose line and time</text><polygon fill="#A80036" points="526.5,317.3594,536.5,321.3594,526.5,325.3594,530.5,321.3594" style="stroke: #A80036; stroke-width: 1.0;"/><line style="stroke: #A80036; stroke-width: 1.0;" x1="294.5" x2="532.5" y1="321.3594" y2="321.3594"/><text fill="#000000" font-family="sans-serif" font-size="13" lengthAdjust="spacingAndGlyphs" textLength="212" x="301.5" y="316.2935">getGroupsByPrefferencess(prefs)</text><polygon fill="#A80036" points="817.5,346.4922,827.5,350.4922,817.5,354.4922,821.5,350.4922" style="stroke: #A80036; stroke-width: 1.0;"/><line style="stroke: #A80036; stroke-width: 1.0;" x1="538.5" x2="823.5" y1="350.4922" y2="350.4922"/><text fill="#000000" font-family="sans-serif" font-size="13" lengthAdjust="spacingAndGlyphs" textLength="92" x="545.5" y="345.4263">getAllGroups()</text><polygon fill="#A80036" points="549.5,375.625,539.5,379.625,549.5,383.625,545.5,379.625" style="stroke: #A80036; stroke-width: 1.0;"/><line style="stroke: #A80036; stroke-width: 1.0; stroke-dasharray: 2.0,2.0;" x1="543.5" x2="828.5" y1="379.625" y2="379.625"/><text fill="#000000" font-family="sans-serif" font-size="13" lengthAdjust="spacingAndGlyphs" textLength="44" x="555.5" y="374.5591">groups</text><line style="stroke: #A80036; stroke-width: 1.0;" x1="538.5" x2="580.5" y1="408.7578" y2="408.7578"/><line style="stroke: #A80036; stroke-width: 1.0;" x1="580.5" x2="580.5" y1="408.7578" y2="421.7578"/><line style="stroke: #A80036; stroke-width: 1.0;" x1="539.5" x2="580.5" y1="421.7578" y2="421.7578"/><polygon fill="#A80036" points="549.5,417.7578,539.5,421.7578,549.5,425.7578,545.5,421.7578" style="stroke: #A80036; stroke-width: 1.0;"/><text fill="#000000" font-family="sans-serif" font-size="13" lengthAdjust="spacingAndGlyphs" textLength="116" x="545.5" y="403.6919">filterGroups(prefs)</text><path d="M13,436.7578 L77,436.7578 L77,443.7578 L67,453.7578 L13,453.7578 L13,436.7578 " fill="#EEEEEE" style="stroke: #000000; stroke-width: 1.0;"/><rect fill="none" height="456.6016" style="stroke: #000000; stroke-width: 2.0;" width="854.5" x="13" y="436.7578"/><text fill="#000000" font-family="sans-serif" font-size="13" font-weight="bold" lengthAdjust="spacingAndGlyphs" textLength="19" x="28" y="449.8247">alt</text><polygon fill="#A80036" points="305.5,471.0234,295.5,475.0234,305.5,479.0234,301.5,475.0234" style="stroke: #A80036; stroke-width: 1.0;"/><line style="stroke: #A80036; stroke-width: 1.0; stroke-dasharray: 2.0,2.0;" x1="299.5" x2="537.5" y1="475.0234" y2="475.0234"/><text fill="#000000" font-family="sans-serif" font-size="13" lengthAdjust="spacingAndGlyphs" textLength="84" x="311.5" y="469.9575">fitting groups</text><polygon fill="#A80036" points="62.5,500.1563,52.5,504.1563,62.5,508.1563,58.5,504.1563" style="stroke: #A80036; stroke-width: 1.0;"/><line style="stroke: #A80036; stroke-width: 1.0; stroke-dasharray: 2.0,2.0;" x1="56.5" x2="293.5" y1="504.1563" y2="504.1563"/><text fill="#000000" font-family="sans-serif" font-size="13" lengthAdjust="spacingAndGlyphs" textLength="140" x="68.5" y="499.0903">show available groups</text><polygon fill="#A80036" points="282.5,529.2891,292.5,533.2891,282.5,537.2891,286.5,533.2891" style="stroke: #A80036; stroke-width: 1.0;"/><line style="stroke: #A80036; stroke-width: 1.0;" x1="51.5" x2="288.5" y1="533.2891" y2="533.2891"/><text fill="#000000" font-family="sans-serif" font-size="13" lengthAdjust="spacingAndGlyphs" textLength="115" x="58.5" y="528.2231">choose one group</text><polygon fill="#A80036" points="526.5,558.4219,536.5,562.4219,526.5,566.4219,530.5,562.4219" style="stroke: #A80036; stroke-width: 1.0;"/><line style="stroke: #A80036; stroke-width: 1.0;" x1="294.5" x2="532.5" y1="562.4219" y2="562.4219"/><text fill="#000000" font-family="sans-serif" font-size="13" lengthAdjust="spacingAndGlyphs" textLength="220" x="301.5" y="557.356">joinGroup(userToken, groupToken)</text><polygon fill="#A80036" points="817.5,587.5547,827.5,591.5547,817.5,595.5547,821.5,591.5547" style="stroke: #A80036; stroke-width: 1.0;"/><line style="stroke: #A80036; stroke-width: 1.0;" x1="538.5" x2="823.5" y1="591.5547" y2="591.5547"/><text fill="#000000" font-family="sans-serif" font-size="13" lengthAdjust="spacingAndGlyphs" textLength="267" x="545.5" y="586.4888">addUserToGroup(userToken, groupToken)</text><path d="M23,606.5547 L87,606.5547 L87,613.5547 L77,623.5547 L23,623.5547 L23,606.5547 " fill="#EEEEEE" style="stroke: #000000; stroke-width: 1.0;"/><rect fill="none" height="206.7344" style="stroke: #000000; stroke-width: 2.0;" width="834.5" x="23" y="606.5547"/><text fill="#000000" font-family="sans-serif" font-size="13" font-weight="bold" lengthAdjust="spacingAndGlyphs" textLength="19" x="38" y="619.6216">alt</text><polygon fill="#A80036" points="549.5,640.8203,539.5,644.8203,549.5,648.8203,545.5,644.8203" style="stroke: #A80036; stroke-width: 1.0;"/><line style="stroke: #A80036; stroke-width: 1.0; stroke-dasharray: 2.0,2.0;" x1="543.5" x2="828.5" y1="644.8203" y2="644.8203"/><text fill="#000000" font-family="sans-serif" font-size="13" lengthAdjust="spacingAndGlyphs" textLength="80" x="555.5" y="639.7544">confirmation</text><polygon fill="#A80036" points="305.5,669.9531,295.5,673.9531,305.5,677.9531,301.5,673.9531" style="stroke: #A80036; stroke-width: 1.0;"/><line style="stroke: #A80036; stroke-width: 1.0; stroke-dasharray: 2.0,2.0;" x1="299.5" x2="537.5" y1="673.9531" y2="673.9531"/><text fill="#000000" font-family="sans-serif" font-size="13" lengthAdjust="spacingAndGlyphs" textLength="80" x="311.5" y="668.8872">confirmation</text><polygon fill="#A80036" points="62.5,699.0859,52.5,703.0859,62.5,707.0859,58.5,703.0859" style="stroke: #A80036; stroke-width: 1.0;"/><line style="stroke: #A80036; stroke-width: 1.0; stroke-dasharray: 2.0,2.0;" x1="56.5" x2="293.5" y1="703.0859" y2="703.0859"/><text fill="#000000" font-family="sans-serif" font-size="13" lengthAdjust="spacingAndGlyphs" textLength="116" x="68.5" y="698.02">show confirmation</text><line style="stroke: #000000; stroke-width: 1.0; stroke-dasharray: 2.0,2.0;" x1="23" x2="857.5" y1="712.0859" y2="712.0859"/><text fill="#000000" font-family="sans-serif" font-size="11" font-weight="bold" lengthAdjust="spacingAndGlyphs" textLength="188" x="28" y="722.2964">[maximum members reached]</text><polygon fill="#A80036" points="549.5,743.0234,539.5,747.0234,549.5,751.0234,545.5,747.0234" style="stroke: #A80036; stroke-width: 1.0;"/><line style="stroke: #A80036; stroke-width: 1.0; stroke-dasharray: 2.0,2.0;" x1="543.5" x2="828.5" y1="747.0234" y2="747.0234"/><text fill="#000000" font-family="sans-serif" font-size="13" lengthAdjust="spacingAndGlyphs" textLength="31" x="555.5" y="741.9575">error</text><polygon fill="#A80036" points="305.5,772.1563,295.5,776.1563,305.5,780.1563,301.5,776.1563" style="stroke: #A80036; stroke-width: 1.0;"/><line style="stroke: #A80036; stroke-width: 1.0; stroke-dasharray: 2.0,2.0;" x1="299.5" x2="537.5" y1="776.1563" y2="776.1563"/><text fill="#000000" font-family="sans-serif" font-size="13" lengthAdjust="spacingAndGlyphs" textLength="31" x="311.5" y="771.0903">error</text><polygon fill="#A80036" points="62.5,801.2891,52.5,805.2891,62.5,809.2891,58.5,805.2891" style="stroke: #A80036; stroke-width: 1.0;"/><line style="stroke: #A80036; stroke-width: 1.0; stroke-dasharray: 2.0,2.0;" x1="56.5" x2="293.5" y1="805.2891" y2="805.2891"/><text fill="#000000" font-family="sans-serif" font-size="13" lengthAdjust="spacingAndGlyphs" textLength="158" x="68.5" y="800.2231">show participation failure</text><line style="stroke: #000000; stroke-width: 1.0; stroke-dasharray: 2.0,2.0;" x1="13" x2="867.5" y1="821.2891" y2="821.2891"/><text fill="#000000" font-family="sans-serif" font-size="11" font-weight="bold" lengthAdjust="spacingAndGlyphs" textLength="214" x="18" y="831.4995">[no group with same parameters]</text><polygon fill="#A80036" points="305.5,852.2266,295.5,856.2266,305.5,860.2266,301.5,856.2266" style="stroke: #A80036; stroke-width: 1.0;"/><line style="stroke: #A80036; stroke-width: 1.0; stroke-dasharray: 2.0,2.0;" x1="299.5" x2="537.5" y1="856.2266" y2="856.2266"/><text fill="#000000" font-family="sans-serif" font-size="13" lengthAdjust="spacingAndGlyphs" textLength="64" x="311.5" y="851.1606">no groups</text><polygon fill="#A80036" points="62.5,881.3594,52.5,885.3594,62.5,889.3594,58.5,885.3594" style="stroke: #A80036; stroke-width: 1.0;"/><line style="stroke: #A80036; stroke-width: 1.0; stroke-dasharray: 2.0,2.0;" x1="56.5" x2="293.5" y1="885.3594" y2="885.3594"/><text fill="#000000" font-family="sans-serif" font-size="13" lengthAdjust="spacingAndGlyphs" textLength="219" x="68.5" y="880.2935">create group or show homescreen</text><!--
@startuml
actor user

user -> Client: open App

Client -> server: getMenu()

database db
server -> db: getLine()
server <- - db: lines

Client <- - server: menu
user <- - Client: show menu

user -> Client: choose line and time
Client -> server: getGroupsByPrefferencess(prefs)
server -> db: getAllGroups()
server <- - db: groups
server -> server: filterGroups(prefs)

alt

Client <- - server: fitting groups
user <- - Client: show available groups

user -> Client: choose one group
Client -> server: joinGroup(userToken, groupToken)
server -> db: addUserToGroup(userToken, groupToken)

alt 

server <- - db: confirmation
Client <- - server: confirmation
user <- - Client: show confirmation


else maximum members reached

server <- - db: error
Client <- - server: error
user <- - Client: show participation failure

end
else no group with same parameters

Client <- - server: no groups
user <- - Client: create group or show homescreen
end
@enduml

PlantUML version 1.2019.07(Mon Jun 24 19:59:20 UTC 2019)
(GPL source distribution)
Java Runtime: Java(TM) SE Runtime Environment
JVM: Java HotSpot(TM) 64-Bit Server VM
Java Version: 1.7.0_25-b15
Operating System: Linux
Default Encoding: UTF-8
Language: en
Country: US
--></g></svg>