<?xml version="1.0" encoding="UTF-8" standalone="no"?><svg xmlns="http://www.w3.org/2000/svg" xmlns:xlink="http://www.w3.org/1999/xlink" contentScriptType="application/ecmascript" contentStyleType="text/css" height="760px" preserveAspectRatio="none" style="width:790px;height:760px;" version="1.1" viewBox="0 0 790 760" width="790px" zoomAndPan="magnify"><defs><filter height="300%" id="fp4ycdawkwb4a" width="300%" x="-1" y="-1"><feGaussianBlur result="blurOut" stdDeviation="2.0"/><feColorMatrix in="blurOut" result="blurOut2" type="matrix" values="0 0 0 0 0 0 0 0 0 0 0 0 0 0 0 0 0 0 .4 0"/><feOffset dx="4.0" dy="4.0" in="blurOut2" result="blurOut3"/><feBlend in="SourceGraphic" in2="blurOut3" mode="normal"/></filter></defs><g><rect fill="#FFFFFF" filter="url(#fp4ycdawkwb4a)" height="160.3359" style="stroke: #000000; stroke-width: 2.0;" width="310" x="468" y="452.8906"/><rect fill="#FFFFFF" height="57.9375" style="stroke: none; stroke-width: 1.0;" width="310" x="468" y="555.2891"/><line style="stroke: #A80036; stroke-width: 1.0; stroke-dasharray: 5.0,5.0;" x1="26" x2="26" y1="86.2969" y2="673.3594"/><line style="stroke: #A80036; stroke-width: 1.0; stroke-dasharray: 5.0,5.0;" x1="222.5" x2="222.5" y1="86.2969" y2="673.3594"/><line style="stroke: #A80036; stroke-width: 1.0; stroke-dasharray: 5.0,5.0;" x1="508" x2="508" y1="86.2969" y2="673.3594"/><line style="stroke: #A80036; stroke-width: 1.0; stroke-dasharray: 5.0,5.0;" x1="688.5" x2="688.5" y1="86.2969" y2="673.3594"/><text fill="#000000" font-family="sans-serif" font-size="14" lengthAdjust="spacingAndGlyphs" textLength="31" x="8" y="82.9951">user</text><ellipse cx="26.5" cy="13" fill="#FEFECE" filter="url(#fp4ycdawkwb4a)" rx="8" ry="8" style="stroke: #A80036; stroke-width: 2.0;"/><path d="M26.5,21 L26.5,48 M13.5,29 L39.5,29 M26.5,48 L13.5,63 M26.5,48 L39.5,63 " fill="none" filter="url(#fp4ycdawkwb4a)" style="stroke: #A80036; stroke-width: 2.0;"/><text fill="#000000" font-family="sans-serif" font-size="14" lengthAdjust="spacingAndGlyphs" textLength="31" x="8" y="685.3545">user</text><ellipse cx="26.5" cy="698.6563" fill="#FEFECE" filter="url(#fp4ycdawkwb4a)" rx="8" ry="8" style="stroke: #A80036; stroke-width: 2.0;"/><path d="M26.5,706.6563 L26.5,733.6563 M13.5,714.6563 L39.5,714.6563 M26.5,733.6563 L13.5,748.6563 M26.5,733.6563 L39.5,748.6563 " fill="none" filter="url(#fp4ycdawkwb4a)" style="stroke: #A80036; stroke-width: 2.0;"/><rect fill="#FEFECE" filter="url(#fp4ycdawkwb4a)" height="30.2969" style="stroke: #A80036; stroke-width: 1.5;" width="38" x="201.5" y="51"/><text fill="#000000" font-family="sans-serif" font-size="14" lengthAdjust="spacingAndGlyphs" textLength="24" x="208.5" y="70.9951">GUI</text><rect fill="#FEFECE" filter="url(#fp4ycdawkwb4a)" height="30.2969" style="stroke: #A80036; stroke-width: 1.5;" width="38" x="201.5" y="672.3594"/><text fill="#000000" font-family="sans-serif" font-size="14" lengthAdjust="spacingAndGlyphs" textLength="24" x="208.5" y="692.3545">GUI</text><rect fill="#FEFECE" filter="url(#fp4ycdawkwb4a)" height="30.2969" style="stroke: #A80036; stroke-width: 1.5;" width="57" x="478" y="51"/><text fill="#000000" font-family="sans-serif" font-size="14" lengthAdjust="spacingAndGlyphs" textLength="43" x="485" y="70.9951">server</text><rect fill="#FEFECE" filter="url(#fp4ycdawkwb4a)" height="30.2969" style="stroke: #A80036; stroke-width: 1.5;" width="57" x="478" y="672.3594"/><text fill="#000000" font-family="sans-serif" font-size="14" lengthAdjust="spacingAndGlyphs" textLength="43" x="485" y="692.3545">server</text><text fill="#000000" font-family="sans-serif" font-size="14" lengthAdjust="spacingAndGlyphs" textLength="18" x="676.5" y="82.9951">db</text><path d="M670.5,34 C670.5,24 688.5,24 688.5,24 C688.5,24 706.5,24 706.5,34 L706.5,60 C706.5,70 688.5,70 688.5,70 C688.5,70 670.5,70 670.5,60 L670.5,34 " fill="#FEFECE" filter="url(#fp4ycdawkwb4a)" style="stroke: #000000; stroke-width: 1.5;"/><path d="M670.5,34 C670.5,44 688.5,44 688.5,44 C688.5,44 706.5,44 706.5,34 " fill="none" style="stroke: #000000; stroke-width: 1.5;"/><text fill="#000000" font-family="sans-serif" font-size="14" lengthAdjust="spacingAndGlyphs" textLength="18" x="676.5" y="685.3545">db</text><path d="M670.5,698.6563 C670.5,688.6563 688.5,688.6563 688.5,688.6563 C688.5,688.6563 706.5,688.6563 706.5,698.6563 L706.5,724.6563 C706.5,734.6563 688.5,734.6563 688.5,734.6563 C688.5,734.6563 670.5,734.6563 670.5,724.6563 L670.5,698.6563 " fill="#FEFECE" filter="url(#fp4ycdawkwb4a)" style="stroke: #000000; stroke-width: 1.5;"/><path d="M670.5,698.6563 C670.5,708.6563 688.5,708.6563 688.5,708.6563 C688.5,708.6563 706.5,708.6563 706.5,698.6563 " fill="none" style="stroke: #000000; stroke-width: 1.5;"/><polygon fill="#A80036" points="210.5,113.4297,220.5,117.4297,210.5,121.4297,214.5,117.4297" style="stroke: #A80036; stroke-width: 1.0;"/><line style="stroke: #A80036; stroke-width: 1.0;" x1="26.5" x2="216.5" y1="117.4297" y2="117.4297"/><text fill="#000000" font-family="sans-serif" font-size="13" lengthAdjust="spacingAndGlyphs" textLength="61" x="33.5" y="112.3638">open App</text><polygon fill="#A80036" points="496.5,142.5625,506.5,146.5625,496.5,150.5625,500.5,146.5625" style="stroke: #A80036; stroke-width: 1.0;"/><line style="stroke: #A80036; stroke-width: 1.0;" x1="222.5" x2="502.5" y1="146.5625" y2="146.5625"/><text fill="#000000" font-family="sans-serif" font-size="13" lengthAdjust="spacingAndGlyphs" textLength="145" x="229.5" y="141.4966">getGroupById(groupId)</text><polygon fill="#A80036" points="676.5,171.6953,686.5,175.6953,676.5,179.6953,680.5,175.6953" style="stroke: #A80036; stroke-width: 1.0;"/><line style="stroke: #A80036; stroke-width: 1.0;" x1="508.5" x2="682.5" y1="175.6953" y2="175.6953"/><text fill="#000000" font-family="sans-serif" font-size="13" lengthAdjust="spacingAndGlyphs" textLength="145" x="515.5" y="170.6294">getGroupById(groupId)</text><polygon fill="#A80036" points="519.5,200.8281,509.5,204.8281,519.5,208.8281,515.5,204.8281" style="stroke: #A80036; stroke-width: 1.0;"/><line style="stroke: #A80036; stroke-width: 1.0; stroke-dasharray: 2.0,2.0;" x1="513.5" x2="687.5" y1="204.8281" y2="204.8281"/><text fill="#000000" font-family="sans-serif" font-size="13" lengthAdjust="spacingAndGlyphs" textLength="37" x="525.5" y="199.7622">group</text><polygon fill="#A80036" points="233.5,229.9609,223.5,233.9609,233.5,237.9609,229.5,233.9609" style="stroke: #A80036; stroke-width: 1.0;"/><line style="stroke: #A80036; stroke-width: 1.0; stroke-dasharray: 2.0,2.0;" x1="227.5" x2="507.5" y1="233.9609" y2="233.9609"/><text fill="#000000" font-family="sans-serif" font-size="13" lengthAdjust="spacingAndGlyphs" textLength="37" x="239.5" y="228.895">group</text><polygon fill="#A80036" points="37.5,259.0938,27.5,263.0938,37.5,267.0938,33.5,263.0938" style="stroke: #A80036; stroke-width: 1.0;"/><line style="stroke: #A80036; stroke-width: 1.0; stroke-dasharray: 2.0,2.0;" x1="31.5" x2="221.5" y1="263.0938" y2="263.0938"/><text fill="#000000" font-family="sans-serif" font-size="13" lengthAdjust="spacingAndGlyphs" textLength="119" x="43.5" y="258.0278">show group details</text><polygon fill="#A80036" points="210.5,288.2266,220.5,292.2266,210.5,296.2266,214.5,292.2266" style="stroke: #A80036; stroke-width: 1.0;"/><line style="stroke: #A80036; stroke-width: 1.0;" x1="26.5" x2="216.5" y1="292.2266" y2="292.2266"/><text fill="#000000" font-family="sans-serif" font-size="13" lengthAdjust="spacingAndGlyphs" textLength="172" x="33.5" y="287.1606">click on leave group button</text><polygon fill="#A80036" points="37.5,317.3594,27.5,321.3594,37.5,325.3594,33.5,321.3594" style="stroke: #A80036; stroke-width: 1.0;"/><line style="stroke: #A80036; stroke-width: 1.0;" x1="31.5" x2="221.5" y1="321.3594" y2="321.3594"/><text fill="#000000" font-family="sans-serif" font-size="13" lengthAdjust="spacingAndGlyphs" textLength="111" x="43.5" y="316.2935">ask if user is sure</text><polygon fill="#A80036" points="210.5,346.4922,220.5,350.4922,210.5,354.4922,214.5,350.4922" style="stroke: #A80036; stroke-width: 1.0;"/><line style="stroke: #A80036; stroke-width: 1.0;" x1="26.5" x2="216.5" y1="350.4922" y2="350.4922"/><text fill="#000000" font-family="sans-serif" font-size="13" lengthAdjust="spacingAndGlyphs" textLength="48" x="33.5" y="345.4263">confirm</text><polygon fill="#A80036" points="496.5,375.625,506.5,379.625,496.5,383.625,500.5,379.625" style="stroke: #A80036; stroke-width: 1.0;"/><line style="stroke: #A80036; stroke-width: 1.0;" x1="222.5" x2="502.5" y1="379.625" y2="379.625"/><text fill="#000000" font-family="sans-serif" font-size="13" lengthAdjust="spacingAndGlyphs" textLength="262" x="229.5" y="374.5591">removeUserFrom Group(userId, GroupId)</text><polygon fill="#A80036" points="676.5,404.7578,686.5,408.7578,676.5,412.7578,680.5,408.7578" style="stroke: #A80036; stroke-width: 1.0;"/><line style="stroke: #A80036; stroke-width: 1.0;" x1="508.5" x2="682.5" y1="408.7578" y2="408.7578"/><text fill="#000000" font-family="sans-serif" font-size="13" lengthAdjust="spacingAndGlyphs" textLength="145" x="515.5" y="403.6919">getGroupById(groupId)</text><polygon fill="#A80036" points="519.5,433.8906,509.5,437.8906,519.5,441.8906,515.5,437.8906" style="stroke: #A80036; stroke-width: 1.0;"/><line style="stroke: #A80036; stroke-width: 1.0; stroke-dasharray: 2.0,2.0;" x1="513.5" x2="687.5" y1="437.8906" y2="437.8906"/><text fill="#000000" font-family="sans-serif" font-size="13" lengthAdjust="spacingAndGlyphs" textLength="37" x="525.5" y="432.8247">group</text><path d="M468,452.8906 L532,452.8906 L532,459.8906 L522,469.8906 L468,469.8906 L468,452.8906 " fill="#EEEEEE" style="stroke: #000000; stroke-width: 1.0;"/><rect fill="none" height="160.3359" style="stroke: #000000; stroke-width: 2.0;" width="310" x="468" y="452.8906"/><text fill="#000000" font-family="sans-serif" font-size="13" font-weight="bold" lengthAdjust="spacingAndGlyphs" textLength="19" x="483" y="465.9575">alt</text><text fill="#000000" font-family="sans-serif" font-size="11" font-weight="bold" lengthAdjust="spacingAndGlyphs" textLength="226" x="547" y="465.1011">[group has more than one member]</text><line style="stroke: #A80036; stroke-width: 1.0;" x1="508.5" x2="550.5" y1="491.1563" y2="491.1563"/><line style="stroke: #A80036; stroke-width: 1.0;" x1="550.5" x2="550.5" y1="491.1563" y2="504.1563"/><line style="stroke: #A80036; stroke-width: 1.0;" x1="509.5" x2="550.5" y1="504.1563" y2="504.1563"/><polygon fill="#A80036" points="519.5,500.1563,509.5,504.1563,519.5,508.1563,515.5,504.1563" style="stroke: #A80036; stroke-width: 1.0;"/><text fill="#000000" font-family="sans-serif" font-size="13" lengthAdjust="spacingAndGlyphs" textLength="166" x="515.5" y="486.0903">removeUserWithId(userId)</text><polygon fill="#A80036" points="676.5,529.2891,686.5,533.2891,676.5,537.2891,680.5,533.2891" style="stroke: #A80036; stroke-width: 1.0;"/><line style="stroke: #A80036; stroke-width: 1.0;" x1="508.5" x2="682.5" y1="533.2891" y2="533.2891"/><text fill="#000000" font-family="sans-serif" font-size="13" lengthAdjust="spacingAndGlyphs" textLength="131" x="515.5" y="528.2231">updateGroup(group)</text><polygon fill="#A80036" points="519.5,543.2891,509.5,547.2891,519.5,551.2891,515.5,547.2891" style="stroke: #A80036; stroke-width: 1.0;"/><line style="stroke: #A80036; stroke-width: 1.0; stroke-dasharray: 2.0,2.0;" x1="513.5" x2="687.5" y1="547.2891" y2="547.2891"/><line style="stroke: #000000; stroke-width: 1.0; stroke-dasharray: 2.0,2.0;" x1="468" x2="778" y1="556.2891" y2="556.2891"/><text fill="#000000" font-family="sans-serif" font-size="11" font-weight="bold" lengthAdjust="spacingAndGlyphs" textLength="188" x="473" y="566.4995">[group has only one member]</text><polygon fill="#A80036" points="676.5,587.2266,686.5,591.2266,676.5,595.2266,680.5,591.2266" style="stroke: #A80036; stroke-width: 1.0;"/><line style="stroke: #A80036; stroke-width: 1.0;" x1="508.5" x2="682.5" y1="591.2266" y2="591.2266"/><text fill="#000000" font-family="sans-serif" font-size="13" lengthAdjust="spacingAndGlyphs" textLength="137" x="515.5" y="586.1606">deleteGroup(groupId)</text><polygon fill="#A80036" points="519.5,601.2266,509.5,605.2266,519.5,609.2266,515.5,605.2266" style="stroke: #A80036; stroke-width: 1.0;"/><line style="stroke: #A80036; stroke-width: 1.0; stroke-dasharray: 2.0,2.0;" x1="513.5" x2="687.5" y1="605.2266" y2="605.2266"/><polygon fill="#A80036" points="233.5,622.2266,223.5,626.2266,233.5,630.2266,229.5,626.2266" style="stroke: #A80036; stroke-width: 1.0;"/><line style="stroke: #A80036; stroke-width: 1.0; stroke-dasharray: 2.0,2.0;" x1="227.5" x2="507.5" y1="626.2266" y2="626.2266"/><polygon fill="#A80036" points="37.5,651.3594,27.5,655.3594,37.5,659.3594,33.5,655.3594" style="stroke: #A80036; stroke-width: 1.0;"/><line style="stroke: #A80036; stroke-width: 1.0; stroke-dasharray: 2.0,2.0;" x1="31.5" x2="221.5" y1="655.3594" y2="655.3594"/><text fill="#000000" font-family="sans-serif" font-size="13" lengthAdjust="spacingAndGlyphs" textLength="124" x="43.5" y="650.2935">show home screen.</text><!--
@startuml
actor user

user -> GUI: open App

GUI -> server: getGroupById(groupId)

database db
server -> db: getGroupById(groupId)
server <- - db: group

GUI <- - server: group
user <- - GUI: show group details

user -> GUI: click on leave group button
user <- GUI: ask if user is sure
user -> GUI: confirm

GUI -> server: removeUserFrom Group(userId, GroupId)
server -> db: getGroupById(groupId)
server <- - db: group

alt group has more than one member

server -> server: removeUserWithId(userId)  
server -> db: updateGroup(group)
server <- - db:


else group has only one member

server -> db: deleteGroup(groupId)
server <- - db:

end

GUI <- - server:
user <- - GUI: show home screen.
@enduml

PlantUML version 1.2019.07beta1(Unknown compile time)
(GPL source distribution)
Java Runtime: Java(TM) SE Runtime Environment
JVM: Java HotSpot(TM) 64-Bit Server VM
Java Version: 1.7.0_25-b15
Operating System: Linux
Default Encoding: UTF-8
Language: en
Country: US
--></g></svg>