<?xml version="1.0" encoding="UTF-8" standalone="no"?><svg xmlns="http://www.w3.org/2000/svg" xmlns:xlink="http://www.w3.org/1999/xlink" contentScriptType="application/ecmascript" contentStyleType="text/css" height="477px" preserveAspectRatio="none" style="width:682px;height:477px;" version="1.1" viewBox="0 0 682 477" width="682px" zoomAndPan="magnify"><defs><filter height="300%" id="f7vbtl5v3jyb5" width="300%" x="-1" y="-1"><feGaussianBlur result="blurOut" stdDeviation="2.0"/><feColorMatrix in="blurOut" result="blurOut2" type="matrix" values="0 0 0 0 0 0 0 0 0 0 0 0 0 0 0 0 0 0 .4 0"/><feOffset dx="4.0" dy="4.0" in="blurOut2" result="blurOut3"/><feBlend in="SourceGraphic" in2="blurOut3" mode="normal"/></filter></defs><g><rect fill="#FFFFFF" filter="url(#f7vbtl5v3jyb5)" height="359.2656" style="stroke: #A80036; stroke-width: 1.0;" width="10" x="46.5" y="69.4297"/><rect fill="#FFFFFF" filter="url(#f7vbtl5v3jyb5)" height="359.2656" style="stroke: #A80036; stroke-width: 1.0;" width="10" x="245.5" y="69.4297"/><rect fill="#FFFFFF" filter="url(#f7vbtl5v3jyb5)" height="330.1328" style="stroke: #A80036; stroke-width: 1.0;" width="10" x="382.5" y="98.5625"/><rect fill="#FFFFFF" filter="url(#f7vbtl5v3jyb5)" height="300" style="stroke: #A80036; stroke-width: 1.0;" width="10" x="613.5" y="127.6953"/><rect fill="#FFFFFF" filter="url(#f7vbtl5v3jyb5)" height="278" style="stroke: #000000; stroke-width: 2.0;" width="657.5" x="13" y="142.6953"/><rect fill="#FFFFFF" height="173.4688" style="stroke: none; stroke-width: 1.0;" width="657.5" x="13" y="247.2266"/><line style="stroke: #A80036; stroke-width: 1.0; stroke-dasharray: 5.0,5.0;" x1="51" x2="51" y1="38.2969" y2="437.6953"/><line style="stroke: #A80036; stroke-width: 1.0; stroke-dasharray: 5.0,5.0;" x1="250.5" x2="250.5" y1="38.2969" y2="437.6953"/><line style="stroke: #A80036; stroke-width: 1.0; stroke-dasharray: 5.0,5.0;" x1="387.5" x2="387.5" y1="38.2969" y2="437.6953"/><line style="stroke: #A80036; stroke-width: 1.0; stroke-dasharray: 5.0,5.0;" x1="618.5" x2="618.5" y1="38.2969" y2="437.6953"/><rect fill="#FEFECE" filter="url(#f7vbtl5v3jyb5)" height="30.2969" style="stroke: #A80036; stroke-width: 1.5;" width="53" x="23" y="3"/><text fill="#000000" font-family="sans-serif" font-size="14" lengthAdjust="spacingAndGlyphs" textLength="39" x="30" y="22.9951">Client</text><rect fill="#FEFECE" filter="url(#f7vbtl5v3jyb5)" height="30.2969" style="stroke: #A80036; stroke-width: 1.5;" width="53" x="23" y="436.6953"/><text fill="#000000" font-family="sans-serif" font-size="14" lengthAdjust="spacingAndGlyphs" textLength="39" x="30" y="456.6904">Client</text><rect fill="#FEFECE" filter="url(#f7vbtl5v3jyb5)" height="30.2969" style="stroke: #A80036; stroke-width: 1.5;" width="38" x="229.5" y="3"/><text fill="#000000" font-family="sans-serif" font-size="14" lengthAdjust="spacingAndGlyphs" textLength="24" x="236.5" y="22.9951">GUI</text><rect fill="#FEFECE" filter="url(#f7vbtl5v3jyb5)" height="30.2969" style="stroke: #A80036; stroke-width: 1.5;" width="38" x="229.5" y="436.6953"/><text fill="#000000" font-family="sans-serif" font-size="14" lengthAdjust="spacingAndGlyphs" textLength="24" x="236.5" y="456.6904">GUI</text><rect fill="#FEFECE" filter="url(#f7vbtl5v3jyb5)" height="30.2969" style="stroke: #A80036; stroke-width: 1.5;" width="58" x="356.5" y="3"/><text fill="#000000" font-family="sans-serif" font-size="14" lengthAdjust="spacingAndGlyphs" textLength="44" x="363.5" y="22.9951">Server</text><rect fill="#FEFECE" filter="url(#f7vbtl5v3jyb5)" height="30.2969" style="stroke: #A80036; stroke-width: 1.5;" width="58" x="356.5" y="436.6953"/><text fill="#000000" font-family="sans-serif" font-size="14" lengthAdjust="spacingAndGlyphs" textLength="44" x="363.5" y="456.6904">Server</text><rect fill="#FEFECE" filter="url(#f7vbtl5v3jyb5)" height="30.2969" style="stroke: #A80036; stroke-width: 1.5;" width="80" x="576.5" y="3"/><text fill="#000000" font-family="sans-serif" font-size="14" lengthAdjust="spacingAndGlyphs" textLength="66" x="583.5" y="22.9951">Database</text><rect fill="#FEFECE" filter="url(#f7vbtl5v3jyb5)" height="30.2969" style="stroke: #A80036; stroke-width: 1.5;" width="80" x="576.5" y="436.6953"/><text fill="#000000" font-family="sans-serif" font-size="14" lengthAdjust="spacingAndGlyphs" textLength="66" x="583.5" y="456.6904">Database</text><rect fill="#FFFFFF" filter="url(#f7vbtl5v3jyb5)" height="359.2656" style="stroke: #A80036; stroke-width: 1.0;" width="10" x="46.5" y="69.4297"/><rect fill="#FFFFFF" filter="url(#f7vbtl5v3jyb5)" height="359.2656" style="stroke: #A80036; stroke-width: 1.0;" width="10" x="245.5" y="69.4297"/><rect fill="#FFFFFF" filter="url(#f7vbtl5v3jyb5)" height="330.1328" style="stroke: #A80036; stroke-width: 1.0;" width="10" x="382.5" y="98.5625"/><rect fill="#FFFFFF" filter="url(#f7vbtl5v3jyb5)" height="300" style="stroke: #A80036; stroke-width: 1.0;" width="10" x="613.5" y="127.6953"/><polygon fill="#A80036" points="233.5,65.4297,243.5,69.4297,233.5,73.4297,237.5,69.4297" style="stroke: #A80036; stroke-width: 1.0;"/><line style="stroke: #A80036; stroke-width: 1.0;" x1="56.5" x2="239.5" y1="69.4297" y2="69.4297"/><text fill="#000000" font-family="sans-serif" font-size="13" lengthAdjust="spacingAndGlyphs" textLength="133" x="63.5" y="64.3638">username, password</text><polygon fill="#A80036" points="370.5,94.5625,380.5,98.5625,370.5,102.5625,374.5,98.5625" style="stroke: #A80036; stroke-width: 1.0;"/><line style="stroke: #A80036; stroke-width: 1.0;" x1="255.5" x2="376.5" y1="98.5625" y2="98.5625"/><text fill="#000000" font-family="sans-serif" font-size="13" lengthAdjust="spacingAndGlyphs" textLength="98" x="262.5" y="93.4966">find(username)</text><polygon fill="#A80036" points="601.5,123.6953,611.5,127.6953,601.5,131.6953,605.5,127.6953" style="stroke: #A80036; stroke-width: 1.0;"/><line style="stroke: #A80036; stroke-width: 1.0;" x1="392.5" x2="607.5" y1="127.6953" y2="127.6953"/><text fill="#000000" font-family="sans-serif" font-size="13" lengthAdjust="spacingAndGlyphs" textLength="153" x="399.5" y="122.6294">boolean find(username)</text><path d="M13,142.6953 L77,142.6953 L77,149.6953 L67,159.6953 L13,159.6953 L13,142.6953 " fill="#EEEEEE" style="stroke: #000000; stroke-width: 1.0;"/><rect fill="none" height="278" style="stroke: #000000; stroke-width: 2.0;" width="657.5" x="13" y="142.6953"/><text fill="#000000" font-family="sans-serif" font-size="13" font-weight="bold" lengthAdjust="spacingAndGlyphs" textLength="19" x="28" y="155.7622">alt</text><text fill="#000000" font-family="sans-serif" font-size="11" font-weight="bold" lengthAdjust="spacingAndGlyphs" textLength="113" x="92" y="154.9058">[username taken]</text><polygon fill="#A80036" points="403.5,176.9609,393.5,180.9609,403.5,184.9609,399.5,180.9609" style="stroke: #A80036; stroke-width: 1.0;"/><line style="stroke: #A80036; stroke-width: 1.0; stroke-dasharray: 2.0,2.0;" x1="397.5" x2="612.5" y1="180.9609" y2="180.9609"/><text fill="#000000" font-family="sans-serif" font-size="13" lengthAdjust="spacingAndGlyphs" textLength="69" x="409.5" y="175.895">return true</text><polygon fill="#A80036" points="266.5,206.0938,256.5,210.0938,266.5,214.0938,262.5,210.0938" style="stroke: #A80036; stroke-width: 1.0;"/><line style="stroke: #A80036; stroke-width: 1.0; stroke-dasharray: 2.0,2.0;" x1="260.5" x2="381.5" y1="210.0938" y2="210.0938"/><text fill="#000000" font-family="sans-serif" font-size="13" lengthAdjust="spacingAndGlyphs" textLength="30" x="272.5" y="205.0278">false</text><polygon fill="#A80036" points="67.5,235.2266,57.5,239.2266,67.5,243.2266,63.5,239.2266" style="stroke: #A80036; stroke-width: 1.0;"/><line style="stroke: #A80036; stroke-width: 1.0; stroke-dasharray: 2.0,2.0;" x1="61.5" x2="244.5" y1="239.2266" y2="239.2266"/><text fill="#000000" font-family="sans-serif" font-size="13" lengthAdjust="spacingAndGlyphs" textLength="165" x="73.5" y="234.1606">show "username is taken"</text><line style="stroke: #000000; stroke-width: 1.0; stroke-dasharray: 2.0,2.0;" x1="13" x2="670.5" y1="248.2266" y2="248.2266"/><text fill="#000000" font-family="sans-serif" font-size="11" font-weight="bold" lengthAdjust="spacingAndGlyphs" textLength="103" x="18" y="258.437">[username free]</text><polygon fill="#A80036" points="403.5,279.1641,393.5,283.1641,403.5,287.1641,399.5,283.1641" style="stroke: #A80036; stroke-width: 1.0;"/><line style="stroke: #A80036; stroke-width: 1.0; stroke-dasharray: 2.0,2.0;" x1="397.5" x2="612.5" y1="283.1641" y2="283.1641"/><text fill="#000000" font-family="sans-serif" font-size="13" lengthAdjust="spacingAndGlyphs" textLength="73" x="409.5" y="278.0981">return false</text><polygon fill="#A80036" points="601.5,308.2969,611.5,312.2969,601.5,316.2969,605.5,312.2969" style="stroke: #A80036; stroke-width: 1.0;"/><line style="stroke: #A80036; stroke-width: 1.0;" x1="392.5" x2="607.5" y1="312.2969" y2="312.2969"/><text fill="#000000" font-family="sans-serif" font-size="13" lengthAdjust="spacingAndGlyphs" textLength="197" x="399.5" y="307.231">addUser(username, password)</text><polygon fill="#A80036" points="403.5,337.4297,393.5,341.4297,403.5,345.4297,399.5,341.4297" style="stroke: #A80036; stroke-width: 1.0;"/><line style="stroke: #A80036; stroke-width: 1.0; stroke-dasharray: 2.0,2.0;" x1="397.5" x2="612.5" y1="341.4297" y2="341.4297"/><text fill="#000000" font-family="sans-serif" font-size="13" lengthAdjust="spacingAndGlyphs" textLength="86" x="409.5" y="336.3638">return UserID</text><polygon fill="#A80036" points="266.5,366.5625,256.5,370.5625,266.5,374.5625,262.5,370.5625" style="stroke: #A80036; stroke-width: 1.0;"/><line style="stroke: #A80036; stroke-width: 1.0; stroke-dasharray: 2.0,2.0;" x1="260.5" x2="381.5" y1="370.5625" y2="370.5625"/><text fill="#000000" font-family="sans-serif" font-size="13" lengthAdjust="spacingAndGlyphs" textLength="43" x="272.5" y="365.4966">UserID</text><line style="stroke: #A80036; stroke-width: 1.0;" x1="255.5" x2="297.5" y1="399.6953" y2="399.6953"/><line style="stroke: #A80036; stroke-width: 1.0;" x1="297.5" x2="297.5" y1="399.6953" y2="412.6953"/><line style="stroke: #A80036; stroke-width: 1.0;" x1="256.5" x2="297.5" y1="412.6953" y2="412.6953"/><polygon fill="#A80036" points="266.5,408.6953,256.5,412.6953,266.5,416.6953,262.5,412.6953" style="stroke: #A80036; stroke-width: 1.0;"/><text fill="#000000" font-family="sans-serif" font-size="13" lengthAdjust="spacingAndGlyphs" textLength="113" x="262.5" y="394.6294">loads profile page</text><!--
@startuml
Client -> GUI: username, password
activate Client
activate GUI
GUI -> Server: find(username)

activate Server
Server -> Database: boolean find(username)
alt username taken
activate Database
Database - -> Server: return true
Server - -> GUI: false
GUI - -> Client: show "username is taken"

else      username free
Database - -> Server: return false
Server -> Database: addUser(username, password)
Database - -> Server: return UserID
Server - -> GUI: UserID
GUI -> GUI: loads profile page
end

deactivate
@enduml

PlantUML version 1.2019.04(Fri Mar 29 15:44:36 UTC 2019)
(GPL source distribution)
Java Runtime: OpenJDK Runtime Environment
JVM: OpenJDK 64-Bit Server VM
Java Version: 1.8.0_201-heroku-b09
Operating System: Linux
OS Version: 4.4.0-1046-aws
Default Encoding: UTF-8
Language: en
Country: US
--></g></svg>