<?xml version="1.0" encoding="UTF-8" standalone="no"?><svg xmlns="http://www.w3.org/2000/svg" xmlns:xlink="http://www.w3.org/1999/xlink" contentScriptType="application/ecmascript" contentStyleType="text/css" height="281px" preserveAspectRatio="none" style="width:1359px;height:281px;" version="1.1" viewBox="0 0 1359 281" width="1359px" zoomAndPan="magnify"><defs><filter height="300%" id="fjequhspja5wd" width="300%" x="-1" y="-1"><feGaussianBlur result="blurOut" stdDeviation="2.0"/><feColorMatrix in="blurOut" result="blurOut2" type="matrix" values="0 0 0 0 0 0 0 0 0 0 0 0 0 0 0 0 0 0 .4 0"/><feOffset dx="4.0" dy="4.0" in="blurOut2" result="blurOut3"/><feBlend in="SourceGraphic" in2="blurOut3" mode="normal"/></filter></defs><g><text fill="#000000" font-family="sans-serif" font-size="18" lengthAdjust="spacingAndGlyphs" textLength="300" x="533" y="16.708">Server Controller - Class Diagram</text><!--class UserController--><rect fill="#FEFECE" filter="url(#fjequhspja5wd)" height="95.2188" id="UserController" style="stroke: #A80036; stroke-width: 1.5;" width="365" x="6" y="35.4531"/><ellipse cx="139.25" cy="51.4531" fill="#ADD1B2" rx="11" ry="11" style="stroke: #A80036; stroke-width: 1.0;"/><path d="M142.2188,57.0938 Q141.6406,57.3906 141,57.5391 Q140.3594,57.6875 139.6563,57.6875 Q137.1563,57.6875 135.8359,56.0391 Q134.5156,54.3906 134.5156,51.2656 Q134.5156,48.1406 135.8359,46.4844 Q137.1563,44.8281 139.6563,44.8281 Q140.3594,44.8281 141.0078,44.9844 Q141.6563,45.1406 142.2188,45.4375 L142.2188,48.1563 Q141.5938,47.5781 141,47.3047 Q140.4063,47.0313 139.7813,47.0313 Q138.4375,47.0313 137.75,48.1016 Q137.0625,49.1719 137.0625,51.2656 Q137.0625,53.3594 137.75,54.4297 Q138.4375,55.5 139.7813,55.5 Q140.4063,55.5 141,55.2266 Q141.5938,54.9531 142.2188,54.375 L142.2188,57.0938 Z "/><text fill="#000000" font-family="sans-serif" font-size="12" lengthAdjust="spacingAndGlyphs" textLength="90" x="159.75" y="55.6074">UserController</text><line style="stroke: #A80036; stroke-width: 1.5;" x1="7" x2="370" y1="67.4531" y2="67.4531"/><ellipse cx="17" cy="79.3555" fill="#84BE84" rx="3" ry="3" style="stroke: #038048; stroke-width: 1.0;"/><text fill="#000000" font-family="sans-serif" font-size="11" lengthAdjust="spacingAndGlyphs" textLength="322" x="26" y="81.6636">ResponseEntity&lt;UserProfile&gt; getUserById(string userId)</text><ellipse cx="17" cy="92.1602" fill="#84BE84" rx="3" ry="3" style="stroke: #038048; stroke-width: 1.0;"/><text fill="#000000" font-family="sans-serif" font-size="11" lengthAdjust="spacingAndGlyphs" textLength="339" x="26" y="94.4683">ResponseEntity&lt;User&gt; updateUserProfile(UserProfile user)</text><ellipse cx="17" cy="121.7695" fill="#84BE84" rx="3" ry="3" style="stroke: #038048; stroke-width: 1.0;"/><text fill="#000000" font-family="sans-serif" font-size="11" lengthAdjust="spacingAndGlyphs" textLength="275" x="26" y="124.0776">ResponseEntity&lt;void&gt; deleteUser(string userId)</text><line style="stroke: #A80036; stroke-width: 1.0; stroke-dasharray: 1.0,2.0;" x1="7" x2="157.5" y1="107.4648" y2="107.4648"/><text fill="#000000" font-family="sans-serif" font-size="11" lengthAdjust="spacingAndGlyphs" textLength="62" x="157.5" y="110.7729">for admins</text><line style="stroke: #A80036; stroke-width: 1.0; stroke-dasharray: 1.0,2.0;" x1="219.5" x2="370" y1="107.4648" y2="107.4648"/><!--class GroupController--><rect fill="#FEFECE" filter="url(#fjequhspja5wd)" height="108.0234" id="GroupController" style="stroke: #A80036; stroke-width: 1.5;" width="446" x="405.5" y="28.9531"/><ellipse cx="574.75" cy="44.9531" fill="#ADD1B2" rx="11" ry="11" style="stroke: #A80036; stroke-width: 1.0;"/><path d="M577.7188,50.5938 Q577.1406,50.8906 576.5,51.0391 Q575.8594,51.1875 575.1563,51.1875 Q572.6563,51.1875 571.3359,49.5391 Q570.0156,47.8906 570.0156,44.7656 Q570.0156,41.6406 571.3359,39.9844 Q572.6563,38.3281 575.1563,38.3281 Q575.8594,38.3281 576.5078,38.4844 Q577.1563,38.6406 577.7188,38.9375 L577.7188,41.6563 Q577.0938,41.0781 576.5,40.8047 Q575.9063,40.5313 575.2813,40.5313 Q573.9375,40.5313 573.25,41.6016 Q572.5625,42.6719 572.5625,44.7656 Q572.5625,46.8594 573.25,47.9297 Q573.9375,49 575.2813,49 Q575.9063,49 576.5,48.7266 Q577.0938,48.4531 577.7188,47.875 L577.7188,50.5938 Z "/><text fill="#000000" font-family="sans-serif" font-size="12" lengthAdjust="spacingAndGlyphs" textLength="99" x="595.25" y="49.1074">GroupController</text><line style="stroke: #A80036; stroke-width: 1.5;" x1="406.5" x2="850.5" y1="60.9531" y2="60.9531"/><ellipse cx="416.5" cy="72.8555" fill="#84BE84" rx="3" ry="3" style="stroke: #038048; stroke-width: 1.0;"/><text fill="#000000" font-family="sans-serif" font-size="11" lengthAdjust="spacingAndGlyphs" textLength="309" x="425.5" y="75.1636">ResponseEntity&lt;Group&gt; getGroupById(string groupId)</text><ellipse cx="416.5" cy="85.6602" fill="#84BE84" rx="3" ry="3" style="stroke: #038048; stroke-width: 1.0;"/><text fill="#000000" font-family="sans-serif" font-size="11" lengthAdjust="spacingAndGlyphs" textLength="420" x="425.5" y="87.9683">ResponseEntity&lt;Group[]&gt; getGroupsByPrefferences(Prefferecnces prefs)</text><ellipse cx="416.5" cy="98.4648" fill="#84BE84" rx="3" ry="3" style="stroke: #038048; stroke-width: 1.0;"/><text fill="#000000" font-family="sans-serif" font-size="11" lengthAdjust="spacingAndGlyphs" textLength="283" x="425.5" y="100.7729">ResponseEntity&lt;void&gt; createGroup(Group group)</text><ellipse cx="416.5" cy="128.0742" fill="#84BE84" rx="3" ry="3" style="stroke: #038048; stroke-width: 1.0;"/><text fill="#000000" font-family="sans-serif" font-size="11" lengthAdjust="spacingAndGlyphs" textLength="290" x="425.5" y="130.3823">ResponseEntity&lt;void&gt; deleteGroup(string groupId)</text><line style="stroke: #A80036; stroke-width: 1.0; stroke-dasharray: 1.0,2.0;" x1="406.5" x2="597.5" y1="113.7695" y2="113.7695"/><text fill="#000000" font-family="sans-serif" font-size="11" lengthAdjust="spacingAndGlyphs" textLength="62" x="597.5" y="117.0776">for admins</text><line style="stroke: #A80036; stroke-width: 1.0; stroke-dasharray: 1.0,2.0;" x1="659.5" x2="850.5" y1="113.7695" y2="113.7695"/><!--class MembershipController--><rect fill="#FEFECE" filter="url(#fjequhspja5wd)" height="73.6094" id="MembershipController" style="stroke: #A80036; stroke-width: 1.5;" width="461" x="887" y="45.9531"/><ellipse cx="1044.75" cy="61.9531" fill="#ADD1B2" rx="11" ry="11" style="stroke: #A80036; stroke-width: 1.0;"/><path d="M1047.7188,67.5938 Q1047.1406,67.8906 1046.5,68.0391 Q1045.8594,68.1875 1045.1563,68.1875 Q1042.6563,68.1875 1041.3359,66.5391 Q1040.0156,64.8906 1040.0156,61.7656 Q1040.0156,58.6406 1041.3359,56.9844 Q1042.6563,55.3281 1045.1563,55.3281 Q1045.8594,55.3281 1046.5078,55.4844 Q1047.1563,55.6406 1047.7188,55.9375 L1047.7188,58.6563 Q1047.0938,58.0781 1046.5,57.8047 Q1045.9063,57.5313 1045.2813,57.5313 Q1043.9375,57.5313 1043.25,58.6016 Q1042.5625,59.6719 1042.5625,61.7656 Q1042.5625,63.8594 1043.25,64.9297 Q1043.9375,66 1045.2813,66 Q1045.9063,66 1046.5,65.7266 Q1047.0938,65.4531 1047.7188,64.875 L1047.7188,67.5938 Z "/><text fill="#000000" font-family="sans-serif" font-size="12" lengthAdjust="spacingAndGlyphs" textLength="137" x="1065.25" y="66.1074">MembershipController</text><line style="stroke: #A80036; stroke-width: 1.5;" x1="888" x2="1347" y1="77.9531" y2="77.9531"/><line style="stroke: #A80036; stroke-width: 1.5;" x1="888" x2="1347" y1="85.9531" y2="85.9531"/><ellipse cx="898" cy="97.8555" fill="#84BE84" rx="3" ry="3" style="stroke: #038048; stroke-width: 1.0;"/><text fill="#000000" font-family="sans-serif" font-size="11" lengthAdjust="spacingAndGlyphs" textLength="398" x="907" y="100.1636">ResponseEntity&lt;void&gt; addUserToGroup(string userId, string groupId)</text><ellipse cx="898" cy="110.6602" fill="#84BE84" rx="3" ry="3" style="stroke: #038048; stroke-width: 1.0;"/><text fill="#000000" font-family="sans-serif" font-size="11" lengthAdjust="spacingAndGlyphs" textLength="435" x="907" y="112.9683">ResponseEntity&lt;void&gt; removeUserFromGroup(string userId, string groupId)</text><!--class MensalineController--><rect fill="#FEFECE" filter="url(#fjequhspja5wd)" height="60.8047" id="MensalineController" style="stroke: #A80036; stroke-width: 1.5;" width="287" x="45" y="203.4531"/><ellipse cx="122.25" cy="219.4531" fill="#ADD1B2" rx="11" ry="11" style="stroke: #A80036; stroke-width: 1.0;"/><path d="M125.2188,225.0938 Q124.6406,225.3906 124,225.5391 Q123.3594,225.6875 122.6563,225.6875 Q120.1563,225.6875 118.8359,224.0391 Q117.5156,222.3906 117.5156,219.2656 Q117.5156,216.1406 118.8359,214.4844 Q120.1563,212.8281 122.6563,212.8281 Q123.3594,212.8281 124.0078,212.9844 Q124.6563,213.1406 125.2188,213.4375 L125.2188,216.1563 Q124.5938,215.5781 124,215.3047 Q123.4063,215.0313 122.7813,215.0313 Q121.4375,215.0313 120.75,216.1016 Q120.0625,217.1719 120.0625,219.2656 Q120.0625,221.3594 120.75,222.4297 Q121.4375,223.5 122.7813,223.5 Q123.4063,223.5 124,223.2266 Q124.5938,222.9531 125.2188,222.375 L125.2188,225.0938 Z "/><text fill="#000000" font-family="sans-serif" font-size="12" lengthAdjust="spacingAndGlyphs" textLength="124" x="142.75" y="223.6074">MensalineController</text><line style="stroke: #A80036; stroke-width: 1.5;" x1="46" x2="331" y1="235.4531" y2="235.4531"/><line style="stroke: #A80036; stroke-width: 1.5;" x1="46" x2="331" y1="243.4531" y2="243.4531"/><ellipse cx="56" cy="255.3555" fill="#84BE84" rx="3" ry="3" style="stroke: #038048; stroke-width: 1.0;"/><text fill="#000000" font-family="sans-serif" font-size="11" lengthAdjust="spacingAndGlyphs" textLength="261" x="65" y="257.6636">ResponseEntity&lt;MensaData&gt; getMensaData()</text><!--class AccountService--><rect fill="#FEFECE" filter="url(#fjequhspja5wd)" height="73.6094" id="AccountService" style="stroke: #A80036; stroke-width: 1.5;" width="347" x="367" y="196.9531"/><ellipse cx="488.25" cy="212.9531" fill="#ADD1B2" rx="11" ry="11" style="stroke: #A80036; stroke-width: 1.0;"/><path d="M491.2188,218.5938 Q490.6406,218.8906 490,219.0391 Q489.3594,219.1875 488.6563,219.1875 Q486.1563,219.1875 484.8359,217.5391 Q483.5156,215.8906 483.5156,212.7656 Q483.5156,209.6406 484.8359,207.9844 Q486.1563,206.3281 488.6563,206.3281 Q489.3594,206.3281 490.0078,206.4844 Q490.6563,206.6406 491.2188,206.9375 L491.2188,209.6563 Q490.5938,209.0781 490,208.8047 Q489.4063,208.5313 488.7813,208.5313 Q487.4375,208.5313 486.75,209.6016 Q486.0625,210.6719 486.0625,212.7656 Q486.0625,214.8594 486.75,215.9297 Q487.4375,217 488.7813,217 Q489.4063,217 490,216.7266 Q490.5938,216.4531 491.2188,215.875 L491.2188,218.5938 Z "/><text fill="#000000" font-family="sans-serif" font-size="12" lengthAdjust="spacingAndGlyphs" textLength="96" x="508.75" y="217.1074">AccountService</text><line style="stroke: #A80036; stroke-width: 1.5;" x1="368" x2="713" y1="228.9531" y2="228.9531"/><line style="stroke: #A80036; stroke-width: 1.5;" x1="368" x2="713" y1="236.9531" y2="236.9531"/><ellipse cx="378" cy="248.8555" fill="#84BE84" rx="3" ry="3" style="stroke: #038048; stroke-width: 1.0;"/><text fill="#000000" font-family="sans-serif" font-size="11" lengthAdjust="spacingAndGlyphs" textLength="303" x="387" y="251.1636">ResponseEntity&lt;User&gt; login(Credentials credentials)</text><ellipse cx="378" cy="261.6602" fill="#84BE84" rx="3" ry="3" style="stroke: #038048; stroke-width: 1.0;"/><text fill="#000000" font-family="sans-serif" font-size="11" lengthAdjust="spacingAndGlyphs" textLength="321" x="387" y="263.9683">ResponseEntity&lt;User&gt; register(Credentials credentials)</text><!--link UserController to GroupController--><!--link GroupController to MembershipController--><!--link UserController to MensalineController--><!--link MensalineController to AccountService--><!--
@startuml
title Server Controller - Class Diagram

class UserController {
  +ResponseEntity<UserProfile> getUserById(string userId)
  +ResponseEntity<User> updateUserProfile(UserProfile user)
  ..for admins..
  +ResponseEntity<void> deleteUser(string userId)
}

class GroupController {
  +ResponseEntity<Group> getGroupById(string groupId)
  +ResponseEntity<Group[]> getGroupsByPrefferences(Prefferecnces prefs)
  +ResponseEntity<void> createGroup(Group group)
  ..for admins..
  +ResponseEntity<void> deleteGroup(string groupId)
}

class MembershipController {
  +ResponseEntity<void> addUserToGroup(string userId, string groupId)
  +ResponseEntity<void> removeUserFromGroup(string userId, string groupId)
}

class MensalineController {
  +ResponseEntity<MensaData> getMensaData()
}

class AccountService {
  +ResponseEntity<User> login(Credentials credentials)
  +ResponseEntity<User> register(Credentials credentials)
}
@enduml

PlantUML version 1.2019.04(Fri Mar 29 15:44:36 UTC 2019)
(GPL source distribution)
Java Runtime: OpenJDK Runtime Environment
JVM: OpenJDK 64-Bit Server VM
Java Version: 1.8.0_201-heroku-b09
Operating System: Linux
OS Version: 4.4.0-1046-aws
Default Encoding: UTF-8
Language: en
Country: US
--></g></svg>