<?xml version="1.0" encoding="UTF-8" standalone="no"?><svg xmlns="http://www.w3.org/2000/svg" xmlns:xlink="http://www.w3.org/1999/xlink" contentScriptType="application/ecmascript" contentStyleType="text/css" height="281px" preserveAspectRatio="none" style="width:1374px;height:281px;" version="1.1" viewBox="0 0 1374 281" width="1374px" zoomAndPan="magnify"><defs><filter height="300%" id="f1hs5lidrti506" width="300%" x="-1" y="-1"><feGaussianBlur result="blurOut" stdDeviation="2.0"/><feColorMatrix in="blurOut" result="blurOut2" type="matrix" values="0 0 0 0 0 0 0 0 0 0 0 0 0 0 0 0 0 0 .4 0"/><feOffset dx="4.0" dy="4.0" in="blurOut2" result="blurOut3"/><feBlend in="SourceGraphic" in2="blurOut3" mode="normal"/></filter></defs><g><text fill="#000000" font-family="sans-serif" font-size="18" lengthAdjust="spacingAndGlyphs" textLength="300" x="540.5" y="16.708">Server Controller - Class Diagram</text><!--class UserService--><rect fill="#FEFECE" filter="url(#f1hs5lidrti506)" height="95.2188" id="UserService" style="stroke: #A80036; stroke-width: 1.5;" width="331" x="6" y="35.4531"/><ellipse cx="130.25" cy="51.4531" fill="#ADD1B2" rx="11" ry="11" style="stroke: #A80036; stroke-width: 1.0;"/><path d="M133.2188,57.0938 Q132.6406,57.3906 132,57.5391 Q131.3594,57.6875 130.6563,57.6875 Q128.1563,57.6875 126.8359,56.0391 Q125.5156,54.3906 125.5156,51.2656 Q125.5156,48.1406 126.8359,46.4844 Q128.1563,44.8281 130.6563,44.8281 Q131.3594,44.8281 132.0078,44.9844 Q132.6563,45.1406 133.2188,45.4375 L133.2188,48.1563 Q132.5938,47.5781 132,47.3047 Q131.4063,47.0313 130.7813,47.0313 Q129.4375,47.0313 128.75,48.1016 Q128.0625,49.1719 128.0625,51.2656 Q128.0625,53.3594 128.75,54.4297 Q129.4375,55.5 130.7813,55.5 Q131.4063,55.5 132,55.2266 Q132.5938,54.9531 133.2188,54.375 L133.2188,57.0938 Z "/><text fill="#000000" font-family="sans-serif" font-size="12" lengthAdjust="spacingAndGlyphs" textLength="74" x="150.75" y="55.6074">UserService</text><line style="stroke: #A80036; stroke-width: 1.5;" x1="7" x2="336" y1="67.4531" y2="67.4531"/><ellipse cx="17" cy="79.3555" fill="#84BE84" rx="3" ry="3" style="stroke: #038048; stroke-width: 1.0;"/><text fill="#000000" font-family="sans-serif" font-size="11" lengthAdjust="spacingAndGlyphs" textLength="305" x="26" y="81.6636">ResponseEntity&lt;User&gt; getUserByToken(string token)</text><ellipse cx="17" cy="92.1602" fill="#84BE84" rx="3" ry="3" style="stroke: #038048; stroke-width: 1.0;"/><text fill="#000000" font-family="sans-serif" font-size="11" lengthAdjust="spacingAndGlyphs" textLength="267" x="26" y="94.4683">ResponseEntity&lt;User&gt; updateUser(User user)</text><ellipse cx="17" cy="121.7695" fill="#84BE84" rx="3" ry="3" style="stroke: #038048; stroke-width: 1.0;"/><text fill="#000000" font-family="sans-serif" font-size="11" lengthAdjust="spacingAndGlyphs" textLength="270" x="26" y="124.0776">ResponseEntity&lt;void&gt; deleteUser(string token)</text><line style="stroke: #A80036; stroke-width: 1.0; stroke-dasharray: 1.0,2.0;" x1="7" x2="140.5" y1="107.4648" y2="107.4648"/><text fill="#000000" font-family="sans-serif" font-size="11" lengthAdjust="spacingAndGlyphs" textLength="62" x="140.5" y="110.7729">for admins</text><line style="stroke: #A80036; stroke-width: 1.0; stroke-dasharray: 1.0,2.0;" x1="202.5" x2="336" y1="107.4648" y2="107.4648"/><!--class GroupService--><rect fill="#FEFECE" filter="url(#f1hs5lidrti506)" height="108.0234" id="GroupService" style="stroke: #A80036; stroke-width: 1.5;" width="446" x="372.5" y="28.9531"/><ellipse cx="549.75" cy="44.9531" fill="#ADD1B2" rx="11" ry="11" style="stroke: #A80036; stroke-width: 1.0;"/><path d="M552.7188,50.5938 Q552.1406,50.8906 551.5,51.0391 Q550.8594,51.1875 550.1563,51.1875 Q547.6563,51.1875 546.3359,49.5391 Q545.0156,47.8906 545.0156,44.7656 Q545.0156,41.6406 546.3359,39.9844 Q547.6563,38.3281 550.1563,38.3281 Q550.8594,38.3281 551.5078,38.4844 Q552.1563,38.6406 552.7188,38.9375 L552.7188,41.6563 Q552.0938,41.0781 551.5,40.8047 Q550.9063,40.5313 550.2813,40.5313 Q548.9375,40.5313 548.25,41.6016 Q547.5625,42.6719 547.5625,44.7656 Q547.5625,46.8594 548.25,47.9297 Q548.9375,49 550.2813,49 Q550.9063,49 551.5,48.7266 Q552.0938,48.4531 552.7188,47.875 L552.7188,50.5938 Z "/><text fill="#000000" font-family="sans-serif" font-size="12" lengthAdjust="spacingAndGlyphs" textLength="83" x="570.25" y="49.1074">GroupService</text><line style="stroke: #A80036; stroke-width: 1.5;" x1="373.5" x2="817.5" y1="60.9531" y2="60.9531"/><ellipse cx="383.5" cy="72.8555" fill="#84BE84" rx="3" ry="3" style="stroke: #038048; stroke-width: 1.0;"/><text fill="#000000" font-family="sans-serif" font-size="11" lengthAdjust="spacingAndGlyphs" textLength="321" x="392.5" y="75.1636">ResponseEntity&lt;Group&gt; getGroupByToken(string token)</text><ellipse cx="383.5" cy="85.6602" fill="#84BE84" rx="3" ry="3" style="stroke: #038048; stroke-width: 1.0;"/><text fill="#000000" font-family="sans-serif" font-size="11" lengthAdjust="spacingAndGlyphs" textLength="420" x="392.5" y="87.9683">ResponseEntity&lt;Group[]&gt; getGroupsByPrefferences(Prefferecnces prefs)</text><ellipse cx="383.5" cy="98.4648" fill="#84BE84" rx="3" ry="3" style="stroke: #038048; stroke-width: 1.0;"/><text fill="#000000" font-family="sans-serif" font-size="11" lengthAdjust="spacingAndGlyphs" textLength="283" x="392.5" y="100.7729">ResponseEntity&lt;void&gt; createGroup(Group group)</text><ellipse cx="383.5" cy="128.0742" fill="#84BE84" rx="3" ry="3" style="stroke: #038048; stroke-width: 1.0;"/><text fill="#000000" font-family="sans-serif" font-size="11" lengthAdjust="spacingAndGlyphs" textLength="278" x="392.5" y="130.3823">ResponseEntity&lt;void&gt; deleteGroup(string token)</text><line style="stroke: #A80036; stroke-width: 1.0; stroke-dasharray: 1.0,2.0;" x1="373.5" x2="564.5" y1="113.7695" y2="113.7695"/><text fill="#000000" font-family="sans-serif" font-size="11" lengthAdjust="spacingAndGlyphs" textLength="62" x="564.5" y="117.0776">for admins</text><line style="stroke: #A80036; stroke-width: 1.0; stroke-dasharray: 1.0,2.0;" x1="626.5" x2="817.5" y1="113.7695" y2="113.7695"/><!--class MembershipService--><rect fill="#FEFECE" filter="url(#f1hs5lidrti506)" height="73.6094" id="MembershipService" style="stroke: #A80036; stroke-width: 1.5;" width="509" x="854" y="45.9531"/><ellipse cx="1043.75" cy="61.9531" fill="#ADD1B2" rx="11" ry="11" style="stroke: #A80036; stroke-width: 1.0;"/><path d="M1046.7188,67.5938 Q1046.1406,67.8906 1045.5,68.0391 Q1044.8594,68.1875 1044.1563,68.1875 Q1041.6563,68.1875 1040.3359,66.5391 Q1039.0156,64.8906 1039.0156,61.7656 Q1039.0156,58.6406 1040.3359,56.9844 Q1041.6563,55.3281 1044.1563,55.3281 Q1044.8594,55.3281 1045.5078,55.4844 Q1046.1563,55.6406 1046.7188,55.9375 L1046.7188,58.6563 Q1046.0938,58.0781 1045.5,57.8047 Q1044.9063,57.5313 1044.2813,57.5313 Q1042.9375,57.5313 1042.25,58.6016 Q1041.5625,59.6719 1041.5625,61.7656 Q1041.5625,63.8594 1042.25,64.9297 Q1042.9375,66 1044.2813,66 Q1044.9063,66 1045.5,65.7266 Q1046.0938,65.4531 1046.7188,64.875 L1046.7188,67.5938 Z "/><text fill="#000000" font-family="sans-serif" font-size="12" lengthAdjust="spacingAndGlyphs" textLength="121" x="1064.25" y="66.1074">MembershipService</text><line style="stroke: #A80036; stroke-width: 1.5;" x1="855" x2="1362" y1="77.9531" y2="77.9531"/><line style="stroke: #A80036; stroke-width: 1.5;" x1="855" x2="1362" y1="85.9531" y2="85.9531"/><ellipse cx="865" cy="97.8555" fill="#84BE84" rx="3" ry="3" style="stroke: #038048; stroke-width: 1.0;"/><text fill="#000000" font-family="sans-serif" font-size="11" lengthAdjust="spacingAndGlyphs" textLength="446" x="874" y="100.1636">ResponseEntity&lt;void&gt; addUserToGroup(string userToken, string groupToken)</text><ellipse cx="865" cy="110.6602" fill="#84BE84" rx="3" ry="3" style="stroke: #038048; stroke-width: 1.0;"/><text fill="#000000" font-family="sans-serif" font-size="11" lengthAdjust="spacingAndGlyphs" textLength="483" x="874" y="112.9683">ResponseEntity&lt;void&gt; removeUserFromGroup(string userToken, string groupToken)</text><!--class MensalineService--><rect fill="#FEFECE" filter="url(#f1hs5lidrti506)" height="60.8047" id="MensalineService" style="stroke: #A80036; stroke-width: 1.5;" width="287" x="28" y="203.4531"/><ellipse cx="113.25" cy="219.4531" fill="#ADD1B2" rx="11" ry="11" style="stroke: #A80036; stroke-width: 1.0;"/><path d="M116.2188,225.0938 Q115.6406,225.3906 115,225.5391 Q114.3594,225.6875 113.6563,225.6875 Q111.1563,225.6875 109.8359,224.0391 Q108.5156,222.3906 108.5156,219.2656 Q108.5156,216.1406 109.8359,214.4844 Q111.1563,212.8281 113.6563,212.8281 Q114.3594,212.8281 115.0078,212.9844 Q115.6563,213.1406 116.2188,213.4375 L116.2188,216.1563 Q115.5938,215.5781 115,215.3047 Q114.4063,215.0313 113.7813,215.0313 Q112.4375,215.0313 111.75,216.1016 Q111.0625,217.1719 111.0625,219.2656 Q111.0625,221.3594 111.75,222.4297 Q112.4375,223.5 113.7813,223.5 Q114.4063,223.5 115,223.2266 Q115.5938,222.9531 116.2188,222.375 L116.2188,225.0938 Z "/><text fill="#000000" font-family="sans-serif" font-size="12" lengthAdjust="spacingAndGlyphs" textLength="108" x="133.75" y="223.6074">MensalineService</text><line style="stroke: #A80036; stroke-width: 1.5;" x1="29" x2="314" y1="235.4531" y2="235.4531"/><line style="stroke: #A80036; stroke-width: 1.5;" x1="29" x2="314" y1="243.4531" y2="243.4531"/><ellipse cx="39" cy="255.3555" fill="#84BE84" rx="3" ry="3" style="stroke: #038048; stroke-width: 1.0;"/><text fill="#000000" font-family="sans-serif" font-size="11" lengthAdjust="spacingAndGlyphs" textLength="261" x="48" y="257.6636">ResponseEntity&lt;MensaData&gt; getMensaData()</text><!--class AccountService--><rect fill="#FEFECE" filter="url(#f1hs5lidrti506)" height="73.6094" id="AccountService" style="stroke: #A80036; stroke-width: 1.5;" width="347" x="350" y="196.9531"/><ellipse cx="471.25" cy="212.9531" fill="#ADD1B2" rx="11" ry="11" style="stroke: #A80036; stroke-width: 1.0;"/><path d="M474.2188,218.5938 Q473.6406,218.8906 473,219.0391 Q472.3594,219.1875 471.6563,219.1875 Q469.1563,219.1875 467.8359,217.5391 Q466.5156,215.8906 466.5156,212.7656 Q466.5156,209.6406 467.8359,207.9844 Q469.1563,206.3281 471.6563,206.3281 Q472.3594,206.3281 473.0078,206.4844 Q473.6563,206.6406 474.2188,206.9375 L474.2188,209.6563 Q473.5938,209.0781 473,208.8047 Q472.4063,208.5313 471.7813,208.5313 Q470.4375,208.5313 469.75,209.6016 Q469.0625,210.6719 469.0625,212.7656 Q469.0625,214.8594 469.75,215.9297 Q470.4375,217 471.7813,217 Q472.4063,217 473,216.7266 Q473.5938,216.4531 474.2188,215.875 L474.2188,218.5938 Z "/><text fill="#000000" font-family="sans-serif" font-size="12" lengthAdjust="spacingAndGlyphs" textLength="96" x="491.75" y="217.1074">AccountService</text><line style="stroke: #A80036; stroke-width: 1.5;" x1="351" x2="696" y1="228.9531" y2="228.9531"/><line style="stroke: #A80036; stroke-width: 1.5;" x1="351" x2="696" y1="236.9531" y2="236.9531"/><ellipse cx="361" cy="248.8555" fill="#84BE84" rx="3" ry="3" style="stroke: #038048; stroke-width: 1.0;"/><text fill="#000000" font-family="sans-serif" font-size="11" lengthAdjust="spacingAndGlyphs" textLength="303" x="370" y="251.1636">ResponseEntity&lt;User&gt; login(Credentials credentials)</text><ellipse cx="361" cy="261.6602" fill="#84BE84" rx="3" ry="3" style="stroke: #038048; stroke-width: 1.0;"/><text fill="#000000" font-family="sans-serif" font-size="11" lengthAdjust="spacingAndGlyphs" textLength="321" x="370" y="263.9683">ResponseEntity&lt;User&gt; register(Credentials credentials)</text><!--link UserService to GroupService--><!--link GroupService to MembershipService--><!--link UserService to MensalineService--><!--link MensalineService to AccountService--><!--
@startuml
title Server Controller - Class Diagram

class UserService {
  +ResponseEntity<User> getUserByToken(string token)
  +ResponseEntity<User> updateUser(User user)
  ..for admins..
  +ResponseEntity<void> deleteUser(string token)
}

class GroupService {
  +ResponseEntity<Group> getGroupByToken(string token)
  +ResponseEntity<Group[]> getGroupsByPrefferences(Prefferecnces prefs)
  +ResponseEntity<void> createGroup(Group group)
  ..for admins..
  +ResponseEntity<void> deleteGroup(string token)
}

class MembershipService {
  +ResponseEntity<void> addUserToGroup(string userToken, string groupToken)
  +ResponseEntity<void> removeUserFromGroup(string userToken, string groupToken)
}

class MensalineService {
  +ResponseEntity<MensaData> getMensaData()
}

class AccountService {
  +ResponseEntity<User> login(Credentials credentials)
  +ResponseEntity<User> register(Credentials credentials)
}
@enduml

PlantUML version 1.2019.04(Fri Mar 29 15:44:36 UTC 2019)
(GPL source distribution)
Java Runtime: OpenJDK Runtime Environment
JVM: OpenJDK 64-Bit Server VM
Java Version: 1.8.0_201-heroku-b09
Operating System: Linux
OS Version: 4.4.0-1046-aws
Default Encoding: UTF-8
Language: en
Country: US
--></g></svg>