<?xml version="1.0" encoding="UTF-8" standalone="no"?><svg xmlns="http://www.w3.org/2000/svg" xmlns:xlink="http://www.w3.org/1999/xlink" contentScriptType="application/ecmascript" contentStyleType="text/css" height="268px" preserveAspectRatio="none" style="width:1063px;height:268px;" version="1.1" viewBox="0 0 1063 268" width="1063px" zoomAndPan="magnify"><defs><filter height="300%" id="fc0rj6nz15pzl" width="300%" x="-1" y="-1"><feGaussianBlur result="blurOut" stdDeviation="2.0"/><feColorMatrix in="blurOut" result="blurOut2" type="matrix" values="0 0 0 0 0 0 0 0 0 0 0 0 0 0 0 0 0 0 .4 0"/><feOffset dx="4.0" dy="4.0" in="blurOut2" result="blurOut3"/><feBlend in="SourceGraphic" in2="blurOut3" mode="normal"/></filter></defs><g><text fill="#000000" font-family="sans-serif" font-size="18" lengthAdjust="spacingAndGlyphs" textLength="300" x="385" y="16.708">Server Controller - Class Diagram</text><!--class UserController--><rect fill="#FEFECE" filter="url(#fc0rj6nz15pzl)" height="108.0234" id="UserController" style="stroke: #A80036; stroke-width: 1.5;" width="256" x="6" y="28.9531"/><ellipse cx="84.75" cy="44.9531" fill="#ADD1B2" rx="11" ry="11" style="stroke: #A80036; stroke-width: 1.0;"/><path d="M87.0938,40.625 L87.2656,40.7031 C87.4844,40.3906 87.6875,40.2969 87.9844,40.2969 C88.2813,40.2969 88.5625,40.4375 88.7188,40.7031 C88.8125,40.8594 88.8281,40.9844 88.8281,41.4219 L88.8281,42.8438 C88.8281,43.2656 88.7969,43.4531 88.6875,43.6094 C88.5156,43.8281 88.25,43.9688 87.9844,43.9688 C87.7656,43.9688 87.5313,43.8594 87.3906,43.7188 C87.25,43.5938 87.2188,43.4688 87.1563,43.0625 C87.0625,42.6563 86.8906,42.4375 86.4063,42.1563 C85.9375,41.9063 85.3281,41.75 84.75,41.75 C83.0156,41.75 81.7656,43.0625 81.7656,44.8438 L81.7656,45.9375 C81.7656,47.6406 83.0625,48.7344 85.1094,48.7344 C85.875,48.7344 86.5625,48.6094 86.9844,48.3438 C87.1719,48.25 87.1719,48.25 87.625,47.7656 C87.8125,47.5781 88.0156,47.5 88.2344,47.5 C88.7031,47.5 89.0938,47.8906 89.0938,48.3438 C89.0938,48.7344 88.7656,49.1875 88.1875,49.5938 C87.4375,50.1406 86.2813,50.4375 85.0625,50.4375 C82.1719,50.4375 80.0625,48.5469 80.0625,45.9688 L80.0625,44.8438 C80.0625,42.125 82.0625,40.0469 84.6875,40.0469 C85.5625,40.0469 86.1563,40.1875 87.0938,40.625 Z "/><text fill="#000000" font-family="sans-serif" font-size="12" lengthAdjust="spacingAndGlyphs" textLength="90" x="105.25" y="49.1074">UserController</text><line style="stroke: #A80036; stroke-width: 1.5;" x1="7" x2="261" y1="60.9531" y2="60.9531"/><ellipse cx="17" cy="72.8555" fill="#84BE84" rx="3" ry="3" style="stroke: #038048; stroke-width: 1.0;"/><text fill="#000000" font-family="sans-serif" font-size="11" lengthAdjust="spacingAndGlyphs" textLength="181" x="26" y="75.1636">User getUserById(string userId)</text><ellipse cx="17" cy="85.6602" fill="#84BE84" rx="3" ry="3" style="stroke: #038048; stroke-width: 1.0;"/><text fill="#000000" font-family="sans-serif" font-size="11" lengthAdjust="spacingAndGlyphs" textLength="105" x="26" y="87.9683">User[] getAllUser()</text><ellipse cx="17" cy="98.4648" fill="#84BE84" rx="3" ry="3" style="stroke: #038048; stroke-width: 1.0;"/><text fill="#000000" font-family="sans-serif" font-size="11" lengthAdjust="spacingAndGlyphs" textLength="230" x="26" y="100.7729">void createUser(Credentials credentials)</text><ellipse cx="17" cy="128.0742" fill="#84BE84" rx="3" ry="3" style="stroke: #038048; stroke-width: 1.0;"/><text fill="#000000" font-family="sans-serif" font-size="11" lengthAdjust="spacingAndGlyphs" textLength="170" x="26" y="130.3823">void deleteUser(string userId)</text><line style="stroke: #A80036; stroke-width: 1.0; stroke-dasharray: 1.0,2.0;" x1="7" x2="103" y1="113.7695" y2="113.7695"/><text fill="#000000" font-family="sans-serif" font-size="11" lengthAdjust="spacingAndGlyphs" textLength="62" x="103" y="117.0776">for admins</text><line style="stroke: #A80036; stroke-width: 1.0; stroke-dasharray: 1.0,2.0;" x1="165" x2="261" y1="113.7695" y2="113.7695"/><!--class GroupController--><rect fill="#FEFECE" filter="url(#fc0rj6nz15pzl)" height="108.0234" id="GroupController" style="stroke: #A80036; stroke-width: 1.5;" width="341" x="297.5" y="28.9531"/><ellipse cx="414.25" cy="44.9531" fill="#ADD1B2" rx="11" ry="11" style="stroke: #A80036; stroke-width: 1.0;"/><path d="M416.5938,40.625 L416.7656,40.7031 C416.9844,40.3906 417.1875,40.2969 417.4844,40.2969 C417.7813,40.2969 418.0625,40.4375 418.2188,40.7031 C418.3125,40.8594 418.3281,40.9844 418.3281,41.4219 L418.3281,42.8438 C418.3281,43.2656 418.2969,43.4531 418.1875,43.6094 C418.0156,43.8281 417.75,43.9688 417.4844,43.9688 C417.2656,43.9688 417.0313,43.8594 416.8906,43.7188 C416.75,43.5938 416.7188,43.4688 416.6563,43.0625 C416.5625,42.6563 416.3906,42.4375 415.9063,42.1563 C415.4375,41.9063 414.8281,41.75 414.25,41.75 C412.5156,41.75 411.2656,43.0625 411.2656,44.8438 L411.2656,45.9375 C411.2656,47.6406 412.5625,48.7344 414.6094,48.7344 C415.375,48.7344 416.0625,48.6094 416.4844,48.3438 C416.6719,48.25 416.6719,48.25 417.125,47.7656 C417.3125,47.5781 417.5156,47.5 417.7344,47.5 C418.2031,47.5 418.5938,47.8906 418.5938,48.3438 C418.5938,48.7344 418.2656,49.1875 417.6875,49.5938 C416.9375,50.1406 415.7813,50.4375 414.5625,50.4375 C411.6719,50.4375 409.5625,48.5469 409.5625,45.9688 L409.5625,44.8438 C409.5625,42.125 411.5625,40.0469 414.1875,40.0469 C415.0625,40.0469 415.6563,40.1875 416.5938,40.625 Z "/><text fill="#000000" font-family="sans-serif" font-size="12" lengthAdjust="spacingAndGlyphs" textLength="99" x="434.75" y="49.1074">GroupController</text><line style="stroke: #A80036; stroke-width: 1.5;" x1="298.5" x2="637.5" y1="60.9531" y2="60.9531"/><ellipse cx="308.5" cy="72.8555" fill="#84BE84" rx="3" ry="3" style="stroke: #038048; stroke-width: 1.0;"/><text fill="#000000" font-family="sans-serif" font-size="11" lengthAdjust="spacingAndGlyphs" textLength="204" x="317.5" y="75.1636">Group getGroupById(string groupId)</text><ellipse cx="308.5" cy="85.6602" fill="#84BE84" rx="3" ry="3" style="stroke: #038048; stroke-width: 1.0;"/><text fill="#000000" font-family="sans-serif" font-size="11" lengthAdjust="spacingAndGlyphs" textLength="315" x="317.5" y="87.9683">Group[] getGroupsByPrefferences(Prefferecnces prefs)</text><ellipse cx="308.5" cy="98.4648" fill="#84BE84" rx="3" ry="3" style="stroke: #038048; stroke-width: 1.0;"/><text fill="#000000" font-family="sans-serif" font-size="11" lengthAdjust="spacingAndGlyphs" textLength="178" x="317.5" y="100.7729">void createGroup(Group group)</text><ellipse cx="308.5" cy="128.0742" fill="#84BE84" rx="3" ry="3" style="stroke: #038048; stroke-width: 1.0;"/><text fill="#000000" font-family="sans-serif" font-size="11" lengthAdjust="spacingAndGlyphs" textLength="185" x="317.5" y="130.3823">void deleteGroup(string groupId)</text><line style="stroke: #A80036; stroke-width: 1.0; stroke-dasharray: 1.0,2.0;" x1="298.5" x2="437" y1="113.7695" y2="113.7695"/><text fill="#000000" font-family="sans-serif" font-size="11" lengthAdjust="spacingAndGlyphs" textLength="62" x="437" y="117.0776">for admins</text><line style="stroke: #A80036; stroke-width: 1.0; stroke-dasharray: 1.0,2.0;" x1="499" x2="637.5" y1="113.7695" y2="113.7695"/><!--class MembershipController--><rect fill="#FEFECE" filter="url(#fc0rj6nz15pzl)" height="73.6094" id="MembershipController" style="stroke: #A80036; stroke-width: 1.5;" width="378" x="674" y="45.9531"/><ellipse cx="790.25" cy="61.9531" fill="#ADD1B2" rx="11" ry="11" style="stroke: #A80036; stroke-width: 1.0;"/><path d="M792.5938,57.625 L792.7656,57.7031 C792.9844,57.3906 793.1875,57.2969 793.4844,57.2969 C793.7813,57.2969 794.0625,57.4375 794.2188,57.7031 C794.3125,57.8594 794.3281,57.9844 794.3281,58.4219 L794.3281,59.8438 C794.3281,60.2656 794.2969,60.4531 794.1875,60.6094 C794.0156,60.8281 793.75,60.9688 793.4844,60.9688 C793.2656,60.9688 793.0313,60.8594 792.8906,60.7188 C792.75,60.5938 792.7188,60.4688 792.6563,60.0625 C792.5625,59.6563 792.3906,59.4375 791.9063,59.1563 C791.4375,58.9063 790.8281,58.75 790.25,58.75 C788.5156,58.75 787.2656,60.0625 787.2656,61.8438 L787.2656,62.9375 C787.2656,64.6406 788.5625,65.7344 790.6094,65.7344 C791.375,65.7344 792.0625,65.6094 792.4844,65.3438 C792.6719,65.25 792.6719,65.25 793.125,64.7656 C793.3125,64.5781 793.5156,64.5 793.7344,64.5 C794.2031,64.5 794.5938,64.8906 794.5938,65.3438 C794.5938,65.7344 794.2656,66.1875 793.6875,66.5938 C792.9375,67.1406 791.7813,67.4375 790.5625,67.4375 C787.6719,67.4375 785.5625,65.5469 785.5625,62.9688 L785.5625,61.8438 C785.5625,59.125 787.5625,57.0469 790.1875,57.0469 C791.0625,57.0469 791.6563,57.1875 792.5938,57.625 Z "/><text fill="#000000" font-family="sans-serif" font-size="12" lengthAdjust="spacingAndGlyphs" textLength="137" x="810.75" y="66.1074">MembershipController</text><line style="stroke: #A80036; stroke-width: 1.5;" x1="675" x2="1051" y1="77.9531" y2="77.9531"/><line style="stroke: #A80036; stroke-width: 1.5;" x1="675" x2="1051" y1="85.9531" y2="85.9531"/><ellipse cx="685" cy="97.8555" fill="#84BE84" rx="3" ry="3" style="stroke: #038048; stroke-width: 1.0;"/><text fill="#000000" font-family="sans-serif" font-size="11" lengthAdjust="spacingAndGlyphs" textLength="315" x="694" y="100.1636">boolean addUserToGroup(string userId, string groupId)</text><ellipse cx="685" cy="110.6602" fill="#84BE84" rx="3" ry="3" style="stroke: #038048; stroke-width: 1.0;"/><text fill="#000000" font-family="sans-serif" font-size="11" lengthAdjust="spacingAndGlyphs" textLength="352" x="694" y="112.9683">boolean removeUserFromGroup(string userId, string groupId)</text><!--class MensalineController--><rect fill="#FEFECE" filter="url(#fc0rj6nz15pzl)" height="60.8047" id="MensalineController" style="stroke: #A80036; stroke-width: 1.5;" width="174" x="47" y="196.9531"/><ellipse cx="70.1" cy="212.9531" fill="#ADD1B2" rx="11" ry="11" style="stroke: #A80036; stroke-width: 1.0;"/><path d="M72.4438,208.625 L72.6156,208.7031 C72.8344,208.3906 73.0375,208.2969 73.3344,208.2969 C73.6313,208.2969 73.9125,208.4375 74.0688,208.7031 C74.1625,208.8594 74.1781,208.9844 74.1781,209.4219 L74.1781,210.8438 C74.1781,211.2656 74.1469,211.4531 74.0375,211.6094 C73.8656,211.8281 73.6,211.9688 73.3344,211.9688 C73.1156,211.9688 72.8813,211.8594 72.7406,211.7188 C72.6,211.5938 72.5688,211.4688 72.5063,211.0625 C72.4125,210.6563 72.2406,210.4375 71.7563,210.1563 C71.2875,209.9063 70.6781,209.75 70.1,209.75 C68.3656,209.75 67.1156,211.0625 67.1156,212.8438 L67.1156,213.9375 C67.1156,215.6406 68.4125,216.7344 70.4594,216.7344 C71.225,216.7344 71.9125,216.6094 72.3344,216.3438 C72.5219,216.25 72.5219,216.25 72.975,215.7656 C73.1625,215.5781 73.3656,215.5 73.5844,215.5 C74.0531,215.5 74.4438,215.8906 74.4438,216.3438 C74.4438,216.7344 74.1156,217.1875 73.5375,217.5938 C72.7875,218.1406 71.6313,218.4375 70.4125,218.4375 C67.5219,218.4375 65.4125,216.5469 65.4125,213.9688 L65.4125,212.8438 C65.4125,210.125 67.4125,208.0469 70.0375,208.0469 C70.9125,208.0469 71.5063,208.1875 72.4438,208.625 Z "/><text fill="#000000" font-family="sans-serif" font-size="12" lengthAdjust="spacingAndGlyphs" textLength="124" x="85.9" y="217.1074">MensalineController</text><line style="stroke: #A80036; stroke-width: 1.5;" x1="48" x2="220" y1="228.9531" y2="228.9531"/><line style="stroke: #A80036; stroke-width: 1.5;" x1="48" x2="220" y1="236.9531" y2="236.9531"/><ellipse cx="58" cy="248.8555" fill="#84BE84" rx="3" ry="3" style="stroke: #038048; stroke-width: 1.0;"/><text fill="#000000" font-family="sans-serif" font-size="11" lengthAdjust="spacingAndGlyphs" textLength="148" x="67" y="251.1636">Line[] getCurrentLineInfo()</text><!--class AuthenticationControler--><rect fill="#FEFECE" filter="url(#fc0rj6nz15pzl)" height="60.8047" id="AuthenticationControler" style="stroke: #A80036; stroke-width: 1.5;" width="231" x="256.5" y="196.9531"/><ellipse cx="293.55" cy="212.9531" fill="#ADD1B2" rx="11" ry="11" style="stroke: #A80036; stroke-width: 1.0;"/><path d="M295.8938,208.625 L296.0656,208.7031 C296.2844,208.3906 296.4875,208.2969 296.7844,208.2969 C297.0813,208.2969 297.3625,208.4375 297.5188,208.7031 C297.6125,208.8594 297.6281,208.9844 297.6281,209.4219 L297.6281,210.8438 C297.6281,211.2656 297.5969,211.4531 297.4875,211.6094 C297.3156,211.8281 297.05,211.9688 296.7844,211.9688 C296.5656,211.9688 296.3313,211.8594 296.1906,211.7188 C296.05,211.5938 296.0188,211.4688 295.9563,211.0625 C295.8625,210.6563 295.6906,210.4375 295.2063,210.1563 C294.7375,209.9063 294.1281,209.75 293.55,209.75 C291.8156,209.75 290.5656,211.0625 290.5656,212.8438 L290.5656,213.9375 C290.5656,215.6406 291.8625,216.7344 293.9094,216.7344 C294.675,216.7344 295.3625,216.6094 295.7844,216.3438 C295.9719,216.25 295.9719,216.25 296.425,215.7656 C296.6125,215.5781 296.8156,215.5 297.0344,215.5 C297.5031,215.5 297.8938,215.8906 297.8938,216.3438 C297.8938,216.7344 297.5656,217.1875 296.9875,217.5938 C296.2375,218.1406 295.0813,218.4375 293.8625,218.4375 C290.9719,218.4375 288.8625,216.5469 288.8625,213.9688 L288.8625,212.8438 C288.8625,210.125 290.8625,208.0469 293.4875,208.0469 C294.3625,208.0469 294.9563,208.1875 295.8938,208.625 Z "/><text fill="#000000" font-family="sans-serif" font-size="12" lengthAdjust="spacingAndGlyphs" textLength="150" x="312.45" y="217.1074">AuthenticationControler</text><line style="stroke: #A80036; stroke-width: 1.5;" x1="257.5" x2="486.5" y1="228.9531" y2="228.9531"/><line style="stroke: #A80036; stroke-width: 1.5;" x1="257.5" x2="486.5" y1="236.9531" y2="236.9531"/><ellipse cx="267.5" cy="248.8555" fill="#84BE84" rx="3" ry="3" style="stroke: #038048; stroke-width: 1.0;"/><text fill="#000000" font-family="sans-serif" font-size="11" lengthAdjust="spacingAndGlyphs" textLength="205" x="276.5" y="251.1636">Token login(Credentials credentials)</text><!--class UserProfileController--><rect fill="#FEFECE" filter="url(#fc0rj6nz15pzl)" height="60.8047" id="UserProfileController" style="stroke: #A80036; stroke-width: 1.5;" width="301" x="522.5" y="196.9531"/><ellipse cx="604.25" cy="212.9531" fill="#ADD1B2" rx="11" ry="11" style="stroke: #A80036; stroke-width: 1.0;"/><path d="M606.5938,208.625 L606.7656,208.7031 C606.9844,208.3906 607.1875,208.2969 607.4844,208.2969 C607.7813,208.2969 608.0625,208.4375 608.2188,208.7031 C608.3125,208.8594 608.3281,208.9844 608.3281,209.4219 L608.3281,210.8438 C608.3281,211.2656 608.2969,211.4531 608.1875,211.6094 C608.0156,211.8281 607.75,211.9688 607.4844,211.9688 C607.2656,211.9688 607.0313,211.8594 606.8906,211.7188 C606.75,211.5938 606.7188,211.4688 606.6563,211.0625 C606.5625,210.6563 606.3906,210.4375 605.9063,210.1563 C605.4375,209.9063 604.8281,209.75 604.25,209.75 C602.5156,209.75 601.2656,211.0625 601.2656,212.8438 L601.2656,213.9375 C601.2656,215.6406 602.5625,216.7344 604.6094,216.7344 C605.375,216.7344 606.0625,216.6094 606.4844,216.3438 C606.6719,216.25 606.6719,216.25 607.125,215.7656 C607.3125,215.5781 607.5156,215.5 607.7344,215.5 C608.2031,215.5 608.5938,215.8906 608.5938,216.3438 C608.5938,216.7344 608.2656,217.1875 607.6875,217.5938 C606.9375,218.1406 605.7813,218.4375 604.5625,218.4375 C601.6719,218.4375 599.5625,216.5469 599.5625,213.9688 L599.5625,212.8438 C599.5625,210.125 601.5625,208.0469 604.1875,208.0469 C605.0625,208.0469 605.6563,208.1875 606.5938,208.625 Z "/><text fill="#000000" font-family="sans-serif" font-size="12" lengthAdjust="spacingAndGlyphs" textLength="129" x="624.75" y="217.1074">UserProfileController</text><line style="stroke: #A80036; stroke-width: 1.5;" x1="523.5" x2="822.5" y1="228.9531" y2="228.9531"/><line style="stroke: #A80036; stroke-width: 1.5;" x1="523.5" x2="822.5" y1="236.9531" y2="236.9531"/><ellipse cx="533.5" cy="248.8555" fill="#84BE84" rx="3" ry="3" style="stroke: #038048; stroke-width: 1.0;"/><text fill="#000000" font-family="sans-serif" font-size="11" lengthAdjust="spacingAndGlyphs" textLength="275" x="542.5" y="251.1636">void updateUserProfile(string userId, User user)</text><!--link UserController to GroupController--><!--link GroupController to MembershipController--><!--link UserController to MensalineController--><!--link MensalineController to AuthenticationControler--><!--link AuthenticationControler to UserProfileController--><!--
@startuml
title Server Controller - Class Diagram


class UserController {
  +User getUserById(string userId)
  +User[] getAllUser()
  +void createUser(Credentials credentials)
  ..for admins..
  +void deleteUser(string userId)
}

class GroupController {
  +Group getGroupById(string groupId)
  +Group[] getGroupsByPrefferences(Prefferecnces prefs)
  +void createGroup(Group group)
  ..for admins..
  +void deleteGroup(string groupId)
}

class MembershipController {
  +boolean addUserToGroup(string userId, string groupId)
  +boolean removeUserFromGroup(string userId, string groupId)
}

class MensalineController {
  +Line[] getCurrentLineInfo()
}

class AuthenticationControler {
  +Token login(Credentials credentials)
}

class UserProfileController {
  +void updateUserProfile(string userId, User user)
}
@enduml

PlantUML version 1.2019.07beta1(Unknown compile time)
(GPL source distribution)
Java Runtime: Java(TM) SE Runtime Environment
JVM: Java HotSpot(TM) 64-Bit Server VM
Java Version: 1.7.0_25-b15
Operating System: Linux
Default Encoding: UTF-8
Language: en
Country: US
--></g></svg>