<?xml version="1.0" encoding="UTF-8" standalone="no"?><svg xmlns="http://www.w3.org/2000/svg" xmlns:xlink="http://www.w3.org/1999/xlink" contentScriptType="application/ecmascript" contentStyleType="text/css" height="272px" preserveAspectRatio="none" style="width:910px;height:272px;" version="1.1" viewBox="0 0 910 272" width="910px" zoomAndPan="magnify"><defs><filter height="300%" id="fmd4sjhojup9y" width="300%" x="-1" y="-1"><feGaussianBlur result="blurOut" stdDeviation="2.0"/><feColorMatrix in="blurOut" result="blurOut2" type="matrix" values="0 0 0 0 0 0 0 0 0 0 0 0 0 0 0 0 0 0 .4 0"/><feOffset dx="4.0" dy="4.0" in="blurOut2" result="blurOut3"/><feBlend in="SourceGraphic" in2="blurOut3" mode="normal"/></filter></defs><g><text fill="#000000" font-family="sans-serif" font-size="18" lengthAdjust="spacingAndGlyphs" textLength="284" x="316.5" y="16.708">Server Services - Class Diagram</text><!--class MensaLineDataService--><rect fill="#FEFECE" filter="url(#fmd4sjhojup9y)" height="86.4141" id="MensaLineDataService" style="stroke: #A80036; stroke-width: 1.5;" width="173" x="99" y="35.4531"/><ellipse cx="114" cy="51.4531" fill="#ADD1B2" rx="11" ry="11" style="stroke: #A80036; stroke-width: 1.0;"/><path d="M116.3438,47.125 L116.5156,47.2031 C116.7344,46.8906 116.9375,46.7969 117.2344,46.7969 C117.5313,46.7969 117.8125,46.9375 117.9688,47.2031 C118.0625,47.3594 118.0781,47.4844 118.0781,47.9219 L118.0781,49.3438 C118.0781,49.7656 118.0469,49.9531 117.9375,50.1094 C117.7656,50.3281 117.5,50.4688 117.2344,50.4688 C117.0156,50.4688 116.7813,50.3594 116.6406,50.2188 C116.5,50.0938 116.4688,49.9688 116.4063,49.5625 C116.3125,49.1563 116.1406,48.9375 115.6563,48.6563 C115.1875,48.4063 114.5781,48.25 114,48.25 C112.2656,48.25 111.0156,49.5625 111.0156,51.3438 L111.0156,52.4375 C111.0156,54.1406 112.3125,55.2344 114.3594,55.2344 C115.125,55.2344 115.8125,55.1094 116.2344,54.8438 C116.4219,54.75 116.4219,54.75 116.875,54.2656 C117.0625,54.0781 117.2656,54 117.4844,54 C117.9531,54 118.3438,54.3906 118.3438,54.8438 C118.3438,55.2344 118.0156,55.6875 117.4375,56.0938 C116.6875,56.6406 115.5313,56.9375 114.3125,56.9375 C111.4219,56.9375 109.3125,55.0469 109.3125,52.4688 L109.3125,51.3438 C109.3125,48.625 111.3125,46.5469 113.9375,46.5469 C114.8125,46.5469 115.4063,46.6875 116.3438,47.125 Z "/><text fill="#000000" font-family="sans-serif" font-size="12" lengthAdjust="spacingAndGlyphs" textLength="141" x="128" y="55.6074">MensaLineDataService</text><line style="stroke: #A80036; stroke-width: 1.5;" x1="100" x2="271" y1="67.4531" y2="67.4531"/><line style="stroke: #A80036; stroke-width: 1.5;" x1="100" x2="271" y1="75.4531" y2="75.4531"/><rect fill="#F24D5C" height="6" style="stroke: #C82930; stroke-width: 1.0;" width="6" x="107" y="84.3555"/><text fill="#000000" font-family="sans-serif" font-size="11" lengthAdjust="spacingAndGlyphs" textLength="141" x="119" y="89.6636">LineData[] grablineData()</text><ellipse cx="110" cy="100.1602" fill="#84BE84" rx="3" ry="3" style="stroke: #038048; stroke-width: 1.0;"/><text fill="#000000" font-family="sans-serif" font-size="11" lengthAdjust="spacingAndGlyphs" textLength="136" x="119" y="102.4683">LineData[] getLineData()</text><ellipse cx="110" cy="112.9648" fill="#84BE84" rx="3" ry="3" style="stroke: #038048; stroke-width: 1.0;"/><text fill="#000000" font-family="sans-serif" font-size="11" lengthAdjust="spacingAndGlyphs" textLength="123" x="119" y="115.2729">void updateLineData()</text><!--class UserService--><rect fill="#FEFECE" filter="url(#fmd4sjhojup9y)" height="86.4141" id="UserService" style="stroke: #A80036; stroke-width: 1.5;" width="208" x="307.5" y="35.4531"/><ellipse cx="370.25" cy="51.4531" fill="#ADD1B2" rx="11" ry="11" style="stroke: #A80036; stroke-width: 1.0;"/><path d="M372.5938,47.125 L372.7656,47.2031 C372.9844,46.8906 373.1875,46.7969 373.4844,46.7969 C373.7813,46.7969 374.0625,46.9375 374.2188,47.2031 C374.3125,47.3594 374.3281,47.4844 374.3281,47.9219 L374.3281,49.3438 C374.3281,49.7656 374.2969,49.9531 374.1875,50.1094 C374.0156,50.3281 373.75,50.4688 373.4844,50.4688 C373.2656,50.4688 373.0313,50.3594 372.8906,50.2188 C372.75,50.0938 372.7188,49.9688 372.6563,49.5625 C372.5625,49.1563 372.3906,48.9375 371.9063,48.6563 C371.4375,48.4063 370.8281,48.25 370.25,48.25 C368.5156,48.25 367.2656,49.5625 367.2656,51.3438 L367.2656,52.4375 C367.2656,54.1406 368.5625,55.2344 370.6094,55.2344 C371.375,55.2344 372.0625,55.1094 372.4844,54.8438 C372.6719,54.75 372.6719,54.75 373.125,54.2656 C373.3125,54.0781 373.5156,54 373.7344,54 C374.2031,54 374.5938,54.3906 374.5938,54.8438 C374.5938,55.2344 374.2656,55.6875 373.6875,56.0938 C372.9375,56.6406 371.7813,56.9375 370.5625,56.9375 C367.6719,56.9375 365.5625,55.0469 365.5625,52.4688 L365.5625,51.3438 C365.5625,48.625 367.5625,46.5469 370.1875,46.5469 C371.0625,46.5469 371.6563,46.6875 372.5938,47.125 Z "/><text fill="#000000" font-family="sans-serif" font-size="12" lengthAdjust="spacingAndGlyphs" textLength="74" x="390.75" y="55.6074">UserService</text><line style="stroke: #A80036; stroke-width: 1.5;" x1="308.5" x2="514.5" y1="67.4531" y2="67.4531"/><line style="stroke: #A80036; stroke-width: 1.5;" x1="308.5" x2="514.5" y1="75.4531" y2="75.4531"/><ellipse cx="318.5" cy="87.3555" fill="#84BE84" rx="3" ry="3" style="stroke: #038048; stroke-width: 1.0;"/><text fill="#000000" font-family="sans-serif" font-size="11" lengthAdjust="spacingAndGlyphs" textLength="182" x="327.5" y="89.6636">User getUserById(String userId)</text><ellipse cx="318.5" cy="100.1602" fill="#84BE84" rx="3" ry="3" style="stroke: #038048; stroke-width: 1.0;"/><text fill="#000000" font-family="sans-serif" font-size="11" lengthAdjust="spacingAndGlyphs" textLength="144" x="327.5" y="102.4683">User addUser(User user)</text><ellipse cx="318.5" cy="112.9648" fill="#84BE84" rx="3" ry="3" style="stroke: #038048; stroke-width: 1.0;"/><text fill="#000000" font-family="sans-serif" font-size="11" lengthAdjust="spacingAndGlyphs" textLength="180" x="327.5" y="115.2729">bool removeUser(String userId)</text><!--class GroupService--><rect fill="#FEFECE" filter="url(#fmd4sjhojup9y)" height="99.2188" id="GroupService" style="stroke: #A80036; stroke-width: 1.5;" width="320" x="550.5" y="28.9531"/><ellipse cx="664.75" cy="44.9531" fill="#ADD1B2" rx="11" ry="11" style="stroke: #A80036; stroke-width: 1.0;"/><path d="M667.0938,40.625 L667.2656,40.7031 C667.4844,40.3906 667.6875,40.2969 667.9844,40.2969 C668.2813,40.2969 668.5625,40.4375 668.7188,40.7031 C668.8125,40.8594 668.8281,40.9844 668.8281,41.4219 L668.8281,42.8438 C668.8281,43.2656 668.7969,43.4531 668.6875,43.6094 C668.5156,43.8281 668.25,43.9688 667.9844,43.9688 C667.7656,43.9688 667.5313,43.8594 667.3906,43.7188 C667.25,43.5938 667.2188,43.4688 667.1563,43.0625 C667.0625,42.6563 666.8906,42.4375 666.4063,42.1563 C665.9375,41.9063 665.3281,41.75 664.75,41.75 C663.0156,41.75 661.7656,43.0625 661.7656,44.8438 L661.7656,45.9375 C661.7656,47.6406 663.0625,48.7344 665.1094,48.7344 C665.875,48.7344 666.5625,48.6094 666.9844,48.3438 C667.1719,48.25 667.1719,48.25 667.625,47.7656 C667.8125,47.5781 668.0156,47.5 668.2344,47.5 C668.7031,47.5 669.0938,47.8906 669.0938,48.3438 C669.0938,48.7344 668.7656,49.1875 668.1875,49.5938 C667.4375,50.1406 666.2813,50.4375 665.0625,50.4375 C662.1719,50.4375 660.0625,48.5469 660.0625,45.9688 L660.0625,44.8438 C660.0625,42.125 662.0625,40.0469 664.6875,40.0469 C665.5625,40.0469 666.1563,40.1875 667.0938,40.625 Z "/><text fill="#000000" font-family="sans-serif" font-size="12" lengthAdjust="spacingAndGlyphs" textLength="83" x="685.25" y="49.1074">GroupService</text><line style="stroke: #A80036; stroke-width: 1.5;" x1="551.5" x2="869.5" y1="60.9531" y2="60.9531"/><line style="stroke: #A80036; stroke-width: 1.5;" x1="551.5" x2="869.5" y1="68.9531" y2="68.9531"/><ellipse cx="561.5" cy="80.8555" fill="#84BE84" rx="3" ry="3" style="stroke: #038048; stroke-width: 1.0;"/><text fill="#000000" font-family="sans-serif" font-size="11" lengthAdjust="spacingAndGlyphs" textLength="205" x="570.5" y="83.1636">Group getGroupById(String groupId)</text><ellipse cx="561.5" cy="93.6602" fill="#84BE84" rx="3" ry="3" style="stroke: #038048; stroke-width: 1.0;"/><text fill="#000000" font-family="sans-serif" font-size="11" lengthAdjust="spacingAndGlyphs" textLength="175" x="570.5" y="95.9683">Group addGroup(Group group)</text><ellipse cx="561.5" cy="106.4648" fill="#84BE84" rx="3" ry="3" style="stroke: #038048; stroke-width: 1.0;"/><text fill="#000000" font-family="sans-serif" font-size="11" lengthAdjust="spacingAndGlyphs" textLength="294" x="570.5" y="108.7729">Group[] getGroupByPreferences(Preferences prefs)</text><ellipse cx="561.5" cy="119.2695" fill="#84BE84" rx="3" ry="3" style="stroke: #038048; stroke-width: 1.0;"/><text fill="#000000" font-family="sans-serif" font-size="11" lengthAdjust="spacingAndGlyphs" textLength="195" x="570.5" y="121.5776">bool removeGroup(String groupId)</text><!--class MembershipService--><rect fill="#FEFECE" filter="url(#fmd4sjhojup9y)" height="73.6094" id="MembershipService" style="stroke: #A80036; stroke-width: 1.5;" width="359" x="6" y="187.9531"/><ellipse cx="120.75" cy="203.9531" fill="#ADD1B2" rx="11" ry="11" style="stroke: #A80036; stroke-width: 1.0;"/><path d="M123.0938,199.625 L123.2656,199.7031 C123.4844,199.3906 123.6875,199.2969 123.9844,199.2969 C124.2813,199.2969 124.5625,199.4375 124.7188,199.7031 C124.8125,199.8594 124.8281,199.9844 124.8281,200.4219 L124.8281,201.8438 C124.8281,202.2656 124.7969,202.4531 124.6875,202.6094 C124.5156,202.8281 124.25,202.9688 123.9844,202.9688 C123.7656,202.9688 123.5313,202.8594 123.3906,202.7188 C123.25,202.5938 123.2188,202.4688 123.1563,202.0625 C123.0625,201.6563 122.8906,201.4375 122.4063,201.1563 C121.9375,200.9063 121.3281,200.75 120.75,200.75 C119.0156,200.75 117.7656,202.0625 117.7656,203.8438 L117.7656,204.9375 C117.7656,206.6406 119.0625,207.7344 121.1094,207.7344 C121.875,207.7344 122.5625,207.6094 122.9844,207.3438 C123.1719,207.25 123.1719,207.25 123.625,206.7656 C123.8125,206.5781 124.0156,206.5 124.2344,206.5 C124.7031,206.5 125.0938,206.8906 125.0938,207.3438 C125.0938,207.7344 124.7656,208.1875 124.1875,208.5938 C123.4375,209.1406 122.2813,209.4375 121.0625,209.4375 C118.1719,209.4375 116.0625,207.5469 116.0625,204.9688 L116.0625,203.8438 C116.0625,201.125 118.0625,199.0469 120.6875,199.0469 C121.5625,199.0469 122.1563,199.1875 123.0938,199.625 Z "/><text fill="#000000" font-family="sans-serif" font-size="12" lengthAdjust="spacingAndGlyphs" textLength="121" x="141.25" y="208.1074">MembershipService</text><line style="stroke: #A80036; stroke-width: 1.5;" x1="7" x2="364" y1="219.9531" y2="219.9531"/><line style="stroke: #A80036; stroke-width: 1.5;" x1="7" x2="364" y1="227.9531" y2="227.9531"/><ellipse cx="17" cy="239.8555" fill="#84BE84" rx="3" ry="3" style="stroke: #038048; stroke-width: 1.0;"/><text fill="#000000" font-family="sans-serif" font-size="11" lengthAdjust="spacingAndGlyphs" textLength="297" x="26" y="242.1636">bool addUserToGroup(String UserId, String groupId)</text><ellipse cx="17" cy="252.6602" fill="#84BE84" rx="3" ry="3" style="stroke: #038048; stroke-width: 1.0;"/><text fill="#000000" font-family="sans-serif" font-size="11" lengthAdjust="spacingAndGlyphs" textLength="333" x="26" y="254.9683">bool removeUserFromGroup(String userId, String groupId)</text><!--class UserProfileService--><rect fill="#FEFECE" filter="url(#fmd4sjhojup9y)" height="60.8047" id="UserProfileService" style="stroke: #A80036; stroke-width: 1.5;" width="221" x="400" y="194.4531"/><ellipse cx="449.75" cy="210.4531" fill="#ADD1B2" rx="11" ry="11" style="stroke: #A80036; stroke-width: 1.0;"/><path d="M452.0938,206.125 L452.2656,206.2031 C452.4844,205.8906 452.6875,205.7969 452.9844,205.7969 C453.2813,205.7969 453.5625,205.9375 453.7188,206.2031 C453.8125,206.3594 453.8281,206.4844 453.8281,206.9219 L453.8281,208.3438 C453.8281,208.7656 453.7969,208.9531 453.6875,209.1094 C453.5156,209.3281 453.25,209.4688 452.9844,209.4688 C452.7656,209.4688 452.5313,209.3594 452.3906,209.2188 C452.25,209.0938 452.2188,208.9688 452.1563,208.5625 C452.0625,208.1563 451.8906,207.9375 451.4063,207.6563 C450.9375,207.4063 450.3281,207.25 449.75,207.25 C448.0156,207.25 446.7656,208.5625 446.7656,210.3438 L446.7656,211.4375 C446.7656,213.1406 448.0625,214.2344 450.1094,214.2344 C450.875,214.2344 451.5625,214.1094 451.9844,213.8438 C452.1719,213.75 452.1719,213.75 452.625,213.2656 C452.8125,213.0781 453.0156,213 453.2344,213 C453.7031,213 454.0938,213.3906 454.0938,213.8438 C454.0938,214.2344 453.7656,214.6875 453.1875,215.0938 C452.4375,215.6406 451.2813,215.9375 450.0625,215.9375 C447.1719,215.9375 445.0625,214.0469 445.0625,211.4688 L445.0625,210.3438 C445.0625,207.625 447.0625,205.5469 449.6875,205.5469 C450.5625,205.5469 451.1563,205.6875 452.0938,206.125 Z "/><text fill="#000000" font-family="sans-serif" font-size="12" lengthAdjust="spacingAndGlyphs" textLength="113" x="470.25" y="214.6074">UserProfileService</text><line style="stroke: #A80036; stroke-width: 1.5;" x1="401" x2="620" y1="226.4531" y2="226.4531"/><line style="stroke: #A80036; stroke-width: 1.5;" x1="401" x2="620" y1="234.4531" y2="234.4531"/><ellipse cx="411" cy="246.3555" fill="#84BE84" rx="3" ry="3" style="stroke: #038048; stroke-width: 1.0;"/><text fill="#000000" font-family="sans-serif" font-size="11" lengthAdjust="spacingAndGlyphs" textLength="195" x="420" y="248.6636">bool updateUserProfile(User user)</text><!--class AuthenticationService--><rect fill="#FEFECE" filter="url(#fmd4sjhojup9y)" height="60.8047" id="AuthenticationService" style="stroke: #A80036; stroke-width: 1.5;" width="243" x="656" y="194.4531"/><ellipse cx="704.75" cy="210.4531" fill="#ADD1B2" rx="11" ry="11" style="stroke: #A80036; stroke-width: 1.0;"/><path d="M707.0938,206.125 L707.2656,206.2031 C707.4844,205.8906 707.6875,205.7969 707.9844,205.7969 C708.2813,205.7969 708.5625,205.9375 708.7188,206.2031 C708.8125,206.3594 708.8281,206.4844 708.8281,206.9219 L708.8281,208.3438 C708.8281,208.7656 708.7969,208.9531 708.6875,209.1094 C708.5156,209.3281 708.25,209.4688 707.9844,209.4688 C707.7656,209.4688 707.5313,209.3594 707.3906,209.2188 C707.25,209.0938 707.2188,208.9688 707.1563,208.5625 C707.0625,208.1563 706.8906,207.9375 706.4063,207.6563 C705.9375,207.4063 705.3281,207.25 704.75,207.25 C703.0156,207.25 701.7656,208.5625 701.7656,210.3438 L701.7656,211.4375 C701.7656,213.1406 703.0625,214.2344 705.1094,214.2344 C705.875,214.2344 706.5625,214.1094 706.9844,213.8438 C707.1719,213.75 707.1719,213.75 707.625,213.2656 C707.8125,213.0781 708.0156,213 708.2344,213 C708.7031,213 709.0938,213.3906 709.0938,213.8438 C709.0938,214.2344 708.7656,214.6875 708.1875,215.0938 C707.4375,215.6406 706.2813,215.9375 705.0625,215.9375 C702.1719,215.9375 700.0625,214.0469 700.0625,211.4688 L700.0625,210.3438 C700.0625,207.625 702.0625,205.5469 704.6875,205.5469 C705.5625,205.5469 706.1563,205.6875 707.0938,206.125 Z "/><text fill="#000000" font-family="sans-serif" font-size="12" lengthAdjust="spacingAndGlyphs" textLength="137" x="725.25" y="214.6074">AuthenticationService</text><line style="stroke: #A80036; stroke-width: 1.5;" x1="657" x2="898" y1="226.4531" y2="226.4531"/><line style="stroke: #A80036; stroke-width: 1.5;" x1="657" x2="898" y1="234.4531" y2="234.4531"/><ellipse cx="667" cy="246.3555" fill="#84BE84" rx="3" ry="3" style="stroke: #038048; stroke-width: 1.0;"/><text fill="#000000" font-family="sans-serif" font-size="11" lengthAdjust="spacingAndGlyphs" textLength="217" x="676" y="248.6636">registerOrLogin(String googleIdToken)</text><!--link MensaLineDataService to UserService--><!--link UserService to GroupService--><!--link MensaLineDataService to MembershipService--><!--link MembershipService to UserProfileService--><!--link UserProfileService to AuthenticationService--><!--
@startuml
title Server Services - Class Diagram

class MensaLineDataService {
  -LineData[] grablineData()
  +LineData[] getLineData()
  +void updateLineData()
}

class UserService {
  +User getUserById(String userId)
  +User addUser(User user)
  +bool removeUser(String userId)
}

class GroupService {
  +Group getGroupById(String groupId)
  +Group addGroup(Group group)
  +Group[] getGroupByPreferences(Preferences prefs)
  +bool removeGroup(String groupId)
}

class MembershipService {
  +bool addUserToGroup(String UserId, String groupId)
  +bool removeUserFromGroup(String userId, String groupId)
}

class UserProfileService {
  +bool updateUserProfile(User user)
}

class AuthenticationService {
  +registerOrLogin(String googleIdToken)
}
@enduml

PlantUML version 1.2019.07beta1(Unknown compile time)
(GPL source distribution)
Java Runtime: Java(TM) SE Runtime Environment
JVM: Java HotSpot(TM) 64-Bit Server VM
Java Version: 1.7.0_25-b15
Operating System: Linux
Default Encoding: UTF-8
Language: en
Country: US
--></g></svg>