<?xml version="1.0" encoding="UTF-8" standalone="no"?><svg xmlns="http://www.w3.org/2000/svg" xmlns:xlink="http://www.w3.org/1999/xlink" contentScriptType="application/ecmascript" contentStyleType="text/css" height="268px" preserveAspectRatio="none" style="width:1355px;height:268px;" version="1.1" viewBox="0 0 1355 268" width="1355px" zoomAndPan="magnify"><defs><filter height="300%" id="f1idvjxli1dzkg" width="300%" x="-1" y="-1"><feGaussianBlur result="blurOut" stdDeviation="2.0"/><feColorMatrix in="blurOut" result="blurOut2" type="matrix" values="0 0 0 0 0 0 0 0 0 0 0 0 0 0 0 0 0 0 .4 0"/><feOffset dx="4.0" dy="4.0" in="blurOut2" result="blurOut3"/><feBlend in="SourceGraphic" in2="blurOut3" mode="normal"/></filter></defs><g><text fill="#000000" font-family="sans-serif" font-size="18" lengthAdjust="spacingAndGlyphs" textLength="300" x="531" y="16.708">Server Controller - Class Diagram</text><!--class UserController--><rect fill="#FEFECE" filter="url(#f1idvjxli1dzkg)" height="95.2188" id="UserController" style="stroke: #A80036; stroke-width: 1.5;" width="361" x="6" y="35.4531"/><ellipse cx="137.25" cy="51.4531" fill="#ADD1B2" rx="11" ry="11" style="stroke: #A80036; stroke-width: 1.0;"/><path d="M140.2188,57.0938 Q139.6406,57.3906 139,57.5391 Q138.3594,57.6875 137.6563,57.6875 Q135.1563,57.6875 133.8359,56.0391 Q132.5156,54.3906 132.5156,51.2656 Q132.5156,48.1406 133.8359,46.4844 Q135.1563,44.8281 137.6563,44.8281 Q138.3594,44.8281 139.0078,44.9844 Q139.6563,45.1406 140.2188,45.4375 L140.2188,48.1563 Q139.5938,47.5781 139,47.3047 Q138.4063,47.0313 137.7813,47.0313 Q136.4375,47.0313 135.75,48.1016 Q135.0625,49.1719 135.0625,51.2656 Q135.0625,53.3594 135.75,54.4297 Q136.4375,55.5 137.7813,55.5 Q138.4063,55.5 139,55.2266 Q139.5938,54.9531 140.2188,54.375 L140.2188,57.0938 Z "/><text fill="#000000" font-family="sans-serif" font-size="12" lengthAdjust="spacingAndGlyphs" textLength="90" x="157.75" y="55.6074">UserController</text><line style="stroke: #A80036; stroke-width: 1.5;" x1="7" x2="366" y1="67.4531" y2="67.4531"/><ellipse cx="17" cy="79.3555" fill="#84BE84" rx="3" ry="3" style="stroke: #038048; stroke-width: 1.0;"/><text fill="#000000" font-family="sans-serif" font-size="11" lengthAdjust="spacingAndGlyphs" textLength="322" x="26" y="81.6636">ResponseEntity&lt;UserProfile&gt; getUserById(string userId)</text><ellipse cx="17" cy="92.1602" fill="#84BE84" rx="3" ry="3" style="stroke: #038048; stroke-width: 1.0;"/><text fill="#000000" font-family="sans-serif" font-size="11" lengthAdjust="spacingAndGlyphs" textLength="335" x="26" y="94.4683">ResponseEntity&lt;void&gt; createUser(Credentials credentials)</text><ellipse cx="17" cy="121.7695" fill="#84BE84" rx="3" ry="3" style="stroke: #038048; stroke-width: 1.0;"/><text fill="#000000" font-family="sans-serif" font-size="11" lengthAdjust="spacingAndGlyphs" textLength="275" x="26" y="124.0776">ResponseEntity&lt;void&gt; deleteUser(string userId)</text><line style="stroke: #A80036; stroke-width: 1.0; stroke-dasharray: 1.0,2.0;" x1="7" x2="155.5" y1="107.4648" y2="107.4648"/><text fill="#000000" font-family="sans-serif" font-size="11" lengthAdjust="spacingAndGlyphs" textLength="62" x="155.5" y="110.7729">for admins</text><line style="stroke: #A80036; stroke-width: 1.0; stroke-dasharray: 1.0,2.0;" x1="217.5" x2="366" y1="107.4648" y2="107.4648"/><!--class GroupController--><rect fill="#FEFECE" filter="url(#f1idvjxli1dzkg)" height="108.0234" id="GroupController" style="stroke: #A80036; stroke-width: 1.5;" width="446" x="401.5" y="28.9531"/><ellipse cx="570.75" cy="44.9531" fill="#ADD1B2" rx="11" ry="11" style="stroke: #A80036; stroke-width: 1.0;"/><path d="M573.7188,50.5938 Q573.1406,50.8906 572.5,51.0391 Q571.8594,51.1875 571.1563,51.1875 Q568.6563,51.1875 567.3359,49.5391 Q566.0156,47.8906 566.0156,44.7656 Q566.0156,41.6406 567.3359,39.9844 Q568.6563,38.3281 571.1563,38.3281 Q571.8594,38.3281 572.5078,38.4844 Q573.1563,38.6406 573.7188,38.9375 L573.7188,41.6563 Q573.0938,41.0781 572.5,40.8047 Q571.9063,40.5313 571.2813,40.5313 Q569.9375,40.5313 569.25,41.6016 Q568.5625,42.6719 568.5625,44.7656 Q568.5625,46.8594 569.25,47.9297 Q569.9375,49 571.2813,49 Q571.9063,49 572.5,48.7266 Q573.0938,48.4531 573.7188,47.875 L573.7188,50.5938 Z "/><text fill="#000000" font-family="sans-serif" font-size="12" lengthAdjust="spacingAndGlyphs" textLength="99" x="591.25" y="49.1074">GroupController</text><line style="stroke: #A80036; stroke-width: 1.5;" x1="402.5" x2="846.5" y1="60.9531" y2="60.9531"/><ellipse cx="412.5" cy="72.8555" fill="#84BE84" rx="3" ry="3" style="stroke: #038048; stroke-width: 1.0;"/><text fill="#000000" font-family="sans-serif" font-size="11" lengthAdjust="spacingAndGlyphs" textLength="309" x="421.5" y="75.1636">ResponseEntity&lt;Group&gt; getGroupById(string groupId)</text><ellipse cx="412.5" cy="85.6602" fill="#84BE84" rx="3" ry="3" style="stroke: #038048; stroke-width: 1.0;"/><text fill="#000000" font-family="sans-serif" font-size="11" lengthAdjust="spacingAndGlyphs" textLength="420" x="421.5" y="87.9683">ResponseEntity&lt;Group[]&gt; getGroupsByPrefferences(Prefferecnces prefs)</text><ellipse cx="412.5" cy="98.4648" fill="#84BE84" rx="3" ry="3" style="stroke: #038048; stroke-width: 1.0;"/><text fill="#000000" font-family="sans-serif" font-size="11" lengthAdjust="spacingAndGlyphs" textLength="283" x="421.5" y="100.7729">ResponseEntity&lt;void&gt; createGroup(Group group)</text><ellipse cx="412.5" cy="128.0742" fill="#84BE84" rx="3" ry="3" style="stroke: #038048; stroke-width: 1.0;"/><text fill="#000000" font-family="sans-serif" font-size="11" lengthAdjust="spacingAndGlyphs" textLength="290" x="421.5" y="130.3823">ResponseEntity&lt;void&gt; deleteGroup(string groupId)</text><line style="stroke: #A80036; stroke-width: 1.0; stroke-dasharray: 1.0,2.0;" x1="402.5" x2="593.5" y1="113.7695" y2="113.7695"/><text fill="#000000" font-family="sans-serif" font-size="11" lengthAdjust="spacingAndGlyphs" textLength="62" x="593.5" y="117.0776">for admins</text><line style="stroke: #A80036; stroke-width: 1.0; stroke-dasharray: 1.0,2.0;" x1="655.5" x2="846.5" y1="113.7695" y2="113.7695"/><!--class MembershipController--><rect fill="#FEFECE" filter="url(#f1idvjxli1dzkg)" height="73.6094" id="MembershipController" style="stroke: #A80036; stroke-width: 1.5;" width="461" x="883" y="45.9531"/><ellipse cx="1040.75" cy="61.9531" fill="#ADD1B2" rx="11" ry="11" style="stroke: #A80036; stroke-width: 1.0;"/><path d="M1043.7188,67.5938 Q1043.1406,67.8906 1042.5,68.0391 Q1041.8594,68.1875 1041.1563,68.1875 Q1038.6563,68.1875 1037.3359,66.5391 Q1036.0156,64.8906 1036.0156,61.7656 Q1036.0156,58.6406 1037.3359,56.9844 Q1038.6563,55.3281 1041.1563,55.3281 Q1041.8594,55.3281 1042.5078,55.4844 Q1043.1563,55.6406 1043.7188,55.9375 L1043.7188,58.6563 Q1043.0938,58.0781 1042.5,57.8047 Q1041.9063,57.5313 1041.2813,57.5313 Q1039.9375,57.5313 1039.25,58.6016 Q1038.5625,59.6719 1038.5625,61.7656 Q1038.5625,63.8594 1039.25,64.9297 Q1039.9375,66 1041.2813,66 Q1041.9063,66 1042.5,65.7266 Q1043.0938,65.4531 1043.7188,64.875 L1043.7188,67.5938 Z "/><text fill="#000000" font-family="sans-serif" font-size="12" lengthAdjust="spacingAndGlyphs" textLength="137" x="1061.25" y="66.1074">MembershipController</text><line style="stroke: #A80036; stroke-width: 1.5;" x1="884" x2="1343" y1="77.9531" y2="77.9531"/><line style="stroke: #A80036; stroke-width: 1.5;" x1="884" x2="1343" y1="85.9531" y2="85.9531"/><ellipse cx="894" cy="97.8555" fill="#84BE84" rx="3" ry="3" style="stroke: #038048; stroke-width: 1.0;"/><text fill="#000000" font-family="sans-serif" font-size="11" lengthAdjust="spacingAndGlyphs" textLength="398" x="903" y="100.1636">ResponseEntity&lt;void&gt; addUserToGroup(string userId, string groupId)</text><ellipse cx="894" cy="110.6602" fill="#84BE84" rx="3" ry="3" style="stroke: #038048; stroke-width: 1.0;"/><text fill="#000000" font-family="sans-serif" font-size="11" lengthAdjust="spacingAndGlyphs" textLength="435" x="903" y="112.9683">ResponseEntity&lt;void&gt; removeUserFromGroup(string userId, string groupId)</text><!--class MensalineController--><rect fill="#FEFECE" filter="url(#f1idvjxli1dzkg)" height="60.8047" id="MensalineController" style="stroke: #A80036; stroke-width: 1.5;" width="287" x="43" y="196.9531"/><ellipse cx="120.25" cy="212.9531" fill="#ADD1B2" rx="11" ry="11" style="stroke: #A80036; stroke-width: 1.0;"/><path d="M123.2188,218.5938 Q122.6406,218.8906 122,219.0391 Q121.3594,219.1875 120.6563,219.1875 Q118.1563,219.1875 116.8359,217.5391 Q115.5156,215.8906 115.5156,212.7656 Q115.5156,209.6406 116.8359,207.9844 Q118.1563,206.3281 120.6563,206.3281 Q121.3594,206.3281 122.0078,206.4844 Q122.6563,206.6406 123.2188,206.9375 L123.2188,209.6563 Q122.5938,209.0781 122,208.8047 Q121.4063,208.5313 120.7813,208.5313 Q119.4375,208.5313 118.75,209.6016 Q118.0625,210.6719 118.0625,212.7656 Q118.0625,214.8594 118.75,215.9297 Q119.4375,217 120.7813,217 Q121.4063,217 122,216.7266 Q122.5938,216.4531 123.2188,215.875 L123.2188,218.5938 Z "/><text fill="#000000" font-family="sans-serif" font-size="12" lengthAdjust="spacingAndGlyphs" textLength="124" x="140.75" y="217.1074">MensalineController</text><line style="stroke: #A80036; stroke-width: 1.5;" x1="44" x2="329" y1="228.9531" y2="228.9531"/><line style="stroke: #A80036; stroke-width: 1.5;" x1="44" x2="329" y1="236.9531" y2="236.9531"/><ellipse cx="54" cy="248.8555" fill="#84BE84" rx="3" ry="3" style="stroke: #038048; stroke-width: 1.0;"/><text fill="#000000" font-family="sans-serif" font-size="11" lengthAdjust="spacingAndGlyphs" textLength="261" x="63" y="251.1636">ResponseEntity&lt;MensaData&gt; getMensaData()</text><!--class AuthenticationControler--><rect fill="#FEFECE" filter="url(#f1idvjxli1dzkg)" height="60.8047" id="AuthenticationControler" style="stroke: #A80036; stroke-width: 1.5;" width="336" x="365.5" y="196.9531"/><ellipse cx="454.25" cy="212.9531" fill="#ADD1B2" rx="11" ry="11" style="stroke: #A80036; stroke-width: 1.0;"/><path d="M457.2188,218.5938 Q456.6406,218.8906 456,219.0391 Q455.3594,219.1875 454.6563,219.1875 Q452.1563,219.1875 450.8359,217.5391 Q449.5156,215.8906 449.5156,212.7656 Q449.5156,209.6406 450.8359,207.9844 Q452.1563,206.3281 454.6563,206.3281 Q455.3594,206.3281 456.0078,206.4844 Q456.6563,206.6406 457.2188,206.9375 L457.2188,209.6563 Q456.5938,209.0781 456,208.8047 Q455.4063,208.5313 454.7813,208.5313 Q453.4375,208.5313 452.75,209.6016 Q452.0625,210.6719 452.0625,212.7656 Q452.0625,214.8594 452.75,215.9297 Q453.4375,217 454.7813,217 Q455.4063,217 456,216.7266 Q456.5938,216.4531 457.2188,215.875 L457.2188,218.5938 Z "/><text fill="#000000" font-family="sans-serif" font-size="12" lengthAdjust="spacingAndGlyphs" textLength="150" x="474.75" y="217.1074">AuthenticationControler</text><line style="stroke: #A80036; stroke-width: 1.5;" x1="366.5" x2="700.5" y1="228.9531" y2="228.9531"/><line style="stroke: #A80036; stroke-width: 1.5;" x1="366.5" x2="700.5" y1="236.9531" y2="236.9531"/><ellipse cx="376.5" cy="248.8555" fill="#84BE84" rx="3" ry="3" style="stroke: #038048; stroke-width: 1.0;"/><text fill="#000000" font-family="sans-serif" font-size="11" lengthAdjust="spacingAndGlyphs" textLength="310" x="385.5" y="251.1636">ResponseEntity&lt;Token&gt; login(Credentials credentials)</text><!--class UserProfileController--><rect fill="#FEFECE" filter="url(#f1idvjxli1dzkg)" height="60.8047" id="UserProfileController" style="stroke: #A80036; stroke-width: 1.5;" width="361" x="736" y="196.9531"/><ellipse cx="847.75" cy="212.9531" fill="#ADD1B2" rx="11" ry="11" style="stroke: #A80036; stroke-width: 1.0;"/><path d="M850.7188,218.5938 Q850.1406,218.8906 849.5,219.0391 Q848.8594,219.1875 848.1563,219.1875 Q845.6563,219.1875 844.3359,217.5391 Q843.0156,215.8906 843.0156,212.7656 Q843.0156,209.6406 844.3359,207.9844 Q845.6563,206.3281 848.1563,206.3281 Q848.8594,206.3281 849.5078,206.4844 Q850.1563,206.6406 850.7188,206.9375 L850.7188,209.6563 Q850.0938,209.0781 849.5,208.8047 Q848.9063,208.5313 848.2813,208.5313 Q846.9375,208.5313 846.25,209.6016 Q845.5625,210.6719 845.5625,212.7656 Q845.5625,214.8594 846.25,215.9297 Q846.9375,217 848.2813,217 Q848.9063,217 849.5,216.7266 Q850.0938,216.4531 850.7188,215.875 L850.7188,218.5938 Z "/><text fill="#000000" font-family="sans-serif" font-size="12" lengthAdjust="spacingAndGlyphs" textLength="129" x="868.25" y="217.1074">UserProfileController</text><line style="stroke: #A80036; stroke-width: 1.5;" x1="737" x2="1096" y1="228.9531" y2="228.9531"/><line style="stroke: #A80036; stroke-width: 1.5;" x1="737" x2="1096" y1="236.9531" y2="236.9531"/><ellipse cx="747" cy="248.8555" fill="#84BE84" rx="3" ry="3" style="stroke: #038048; stroke-width: 1.0;"/><text fill="#000000" font-family="sans-serif" font-size="11" lengthAdjust="spacingAndGlyphs" textLength="335" x="756" y="251.1636">ResponseEntity&lt;void&gt; updateUserProfile(UserProfile user)</text><!--link UserController to GroupController--><!--link GroupController to MembershipController--><!--link UserController to MensalineController--><!--link MensalineController to AuthenticationControler--><!--link AuthenticationControler to UserProfileController--><!--
@startuml
title Server Controller - Class Diagram

class UserController {
  +ResponseEntity<UserProfile> getUserById(string userId)
  +ResponseEntity<void> createUser(Credentials credentials)
  ..for admins..
  +ResponseEntity<void> deleteUser(string userId)
}

class GroupController {
  +ResponseEntity<Group> getGroupById(string groupId)
  +ResponseEntity<Group[]> getGroupsByPrefferences(Prefferecnces prefs)
  +ResponseEntity<void> createGroup(Group group)
  ..for admins..
  +ResponseEntity<void> deleteGroup(string groupId)
}

class MembershipController {
  +ResponseEntity<void> addUserToGroup(string userId, string groupId)
  +ResponseEntity<void> removeUserFromGroup(string userId, string groupId)
}

class MensalineController {
  +ResponseEntity<MensaData> getMensaData()
}

class AuthenticationControler {
  +ResponseEntity<Token> login(Credentials credentials)
}

class UserProfileController {
  +ResponseEntity<void> updateUserProfile(UserProfile user)
}
@enduml

PlantUML version 1.2019.04(Fri Mar 29 15:44:36 UTC 2019)
(GPL source distribution)
Java Runtime: OpenJDK Runtime Environment
JVM: OpenJDK 64-Bit Server VM
Java Version: 1.8.0_201-heroku-b09
Operating System: Linux
OS Version: 4.4.0-1046-aws
Default Encoding: UTF-8
Language: en
Country: US
--></g></svg>