<?xml version="1.0" encoding="UTF-8" standalone="no"?><svg xmlns="http://www.w3.org/2000/svg" xmlns:xlink="http://www.w3.org/1999/xlink" contentScriptType="application/ecmascript" contentStyleType="text/css" height="752px" preserveAspectRatio="none" style="width:1311px;height:752px;" version="1.1" viewBox="0 0 1311 752" width="1311px" zoomAndPan="magnify"><defs><filter height="300%" id="f1h78ciz5pjijg" width="300%" x="-1" y="-1"><feGaussianBlur result="blurOut" stdDeviation="2.0"/><feColorMatrix in="blurOut" result="blurOut2" type="matrix" values="0 0 0 0 0 0 0 0 0 0 0 0 0 0 0 0 0 0 .4 0"/><feOffset dx="4.0" dy="4.0" in="blurOut2" result="blurOut3"/><feBlend in="SourceGraphic" in2="blurOut3" mode="normal"/></filter></defs><g><text fill="#000000" font-family="sans-serif" font-size="18" lengthAdjust="spacingAndGlyphs" textLength="289" x="515" y="16.708">Server Models - Class Diagramm</text><!--class User--><rect fill="#FEFECE" filter="url(#f1h78ciz5pjijg)" height="137.6328" id="User" style="stroke: #A80036; stroke-width: 1.5;" width="312" x="558" y="28.9531"/><ellipse cx="695.25" cy="44.9531" fill="#ADD1B2" rx="11" ry="11" style="stroke: #A80036; stroke-width: 1.0;"/><path d="M698.2188,50.5938 Q697.6406,50.8906 697,51.0391 Q696.3594,51.1875 695.6563,51.1875 Q693.1563,51.1875 691.8359,49.5391 Q690.5156,47.8906 690.5156,44.7656 Q690.5156,41.6406 691.8359,39.9844 Q693.1563,38.3281 695.6563,38.3281 Q696.3594,38.3281 697.0078,38.4844 Q697.6563,38.6406 698.2188,38.9375 L698.2188,41.6563 Q697.5938,41.0781 697,40.8047 Q696.4063,40.5313 695.7813,40.5313 Q694.4375,40.5313 693.75,41.6016 Q693.0625,42.6719 693.0625,44.7656 Q693.0625,46.8594 693.75,47.9297 Q694.4375,49 695.7813,49 Q696.4063,49 697,48.7266 Q697.5938,48.4531 698.2188,47.875 L698.2188,50.5938 Z "/><text fill="#000000" font-family="sans-serif" font-size="12" lengthAdjust="spacingAndGlyphs" textLength="29" x="715.75" y="49.1074">User</text><line style="stroke: #A80036; stroke-width: 1.5;" x1="559" x2="869" y1="60.9531" y2="60.9531"/><rect fill="none" height="6" style="stroke: #C82930; stroke-width: 1.0;" width="6" x="566" y="69.8555"/><text fill="#000000" font-family="sans-serif" font-size="11" lengthAdjust="spacingAndGlyphs" textLength="48" x="578" y="75.1636">String id</text><rect fill="none" height="6" style="stroke: #C82930; stroke-width: 1.0;" width="6" x="566" y="82.6602"/><text fill="#000000" font-family="sans-serif" font-size="11" lengthAdjust="spacingAndGlyphs" textLength="70" x="578" y="87.9683">String name</text><rect fill="none" height="6" style="stroke: #C82930; stroke-width: 1.0;" width="6" x="566" y="95.4648"/><text fill="#000000" font-family="sans-serif" font-size="11" lengthAdjust="spacingAndGlyphs" textLength="94" x="578" y="100.7729">String password</text><line style="stroke: #A80036; stroke-width: 1.5;" x1="559" x2="869" y1="107.3672" y2="107.3672"/><ellipse cx="569" cy="119.2695" fill="#84BE84" rx="3" ry="3" style="stroke: #038048; stroke-width: 1.0;"/><text fill="#000000" font-family="sans-serif" font-size="11" lengthAdjust="spacingAndGlyphs" textLength="286" x="578" y="121.5776">«Constructor»User(string name, string password)</text><ellipse cx="569" cy="132.0742" fill="#84BE84" rx="3" ry="3" style="stroke: #038048; stroke-width: 1.0;"/><text fill="#000000" font-family="sans-serif" font-size="11" lengthAdjust="spacingAndGlyphs" textLength="73" x="578" y="134.3823">string getId()</text><ellipse cx="569" cy="144.8789" fill="#84BE84" rx="3" ry="3" style="stroke: #038048; stroke-width: 1.0;"/><text fill="#000000" font-family="sans-serif" font-size="11" lengthAdjust="spacingAndGlyphs" textLength="96" x="578" y="147.187">string getName()</text><ellipse cx="569" cy="157.6836" fill="#84BE84" rx="3" ry="3" style="stroke: #038048; stroke-width: 1.0;"/><text fill="#000000" font-family="sans-serif" font-size="11" lengthAdjust="spacingAndGlyphs" textLength="119" x="578" y="159.9917">string getPassword()</text><!--class UserProfile--><rect fill="#FEFECE" filter="url(#f1h78ciz5pjijg)" height="214.4609" id="UserProfile" style="stroke: #A80036; stroke-width: 1.5;" width="666" x="381" y="226.9531"/><ellipse cx="675.75" cy="242.9531" fill="#ADD1B2" rx="11" ry="11" style="stroke: #A80036; stroke-width: 1.0;"/><path d="M678.7188,248.5938 Q678.1406,248.8906 677.5,249.0391 Q676.8594,249.1875 676.1563,249.1875 Q673.6563,249.1875 672.3359,247.5391 Q671.0156,245.8906 671.0156,242.7656 Q671.0156,239.6406 672.3359,237.9844 Q673.6563,236.3281 676.1563,236.3281 Q676.8594,236.3281 677.5078,236.4844 Q678.1563,236.6406 678.7188,236.9375 L678.7188,239.6563 Q678.0938,239.0781 677.5,238.8047 Q676.9063,238.5313 676.2813,238.5313 Q674.9375,238.5313 674.25,239.6016 Q673.5625,240.6719 673.5625,242.7656 Q673.5625,244.8594 674.25,245.9297 Q674.9375,247 676.2813,247 Q676.9063,247 677.5,246.7266 Q678.0938,246.4531 678.7188,245.875 L678.7188,248.5938 Z "/><text fill="#000000" font-family="sans-serif" font-size="12" lengthAdjust="spacingAndGlyphs" textLength="68" x="696.25" y="247.1074">UserProfile</text><line style="stroke: #A80036; stroke-width: 1.5;" x1="382" x2="1046" y1="258.9531" y2="258.9531"/><rect fill="none" height="6" style="stroke: #C82930; stroke-width: 1.0;" width="6" x="389" y="267.8555"/><text fill="#000000" font-family="sans-serif" font-size="11" lengthAdjust="spacingAndGlyphs" textLength="71" x="401" y="273.1636">String motto</text><rect fill="none" height="6" style="stroke: #C82930; stroke-width: 1.0;" width="6" x="389" y="280.6602"/><text fill="#000000" font-family="sans-serif" font-size="11" lengthAdjust="spacingAndGlyphs" textLength="82" x="401" y="285.9683">Date birthDate</text><rect fill="none" height="6" style="stroke: #C82930; stroke-width: 1.0;" width="6" x="389" y="293.4648"/><text fill="#000000" font-family="sans-serif" font-size="11" lengthAdjust="spacingAndGlyphs" textLength="65" x="401" y="298.7729">Sex gender</text><rect fill="none" height="6" style="stroke: #C82930; stroke-width: 1.0;" width="6" x="389" y="306.2695"/><text fill="#000000" font-family="sans-serif" font-size="11" lengthAdjust="spacingAndGlyphs" textLength="87" x="401" y="311.5776">Subject subject</text><rect fill="none" height="6" style="stroke: #C82930; stroke-width: 1.0;" width="6" x="389" y="319.0742"/><text fill="#000000" font-family="sans-serif" font-size="11" lengthAdjust="spacingAndGlyphs" textLength="77" x="401" y="324.3823">Status status</text><rect fill="none" height="6" style="stroke: #C82930; stroke-width: 1.0;" width="6" x="389" y="331.8789"/><text fill="#000000" font-family="sans-serif" font-size="11" lengthAdjust="spacingAndGlyphs" textLength="103" x="401" y="337.187">int profilePictureId</text><line style="stroke: #A80036; stroke-width: 1.5;" x1="382" x2="1046" y1="343.7813" y2="343.7813"/><ellipse cx="392" cy="355.6836" fill="#84BE84" rx="3" ry="3" style="stroke: #038048; stroke-width: 1.0;"/><text fill="#000000" font-family="sans-serif" font-size="11" lengthAdjust="spacingAndGlyphs" textLength="640" x="401" y="357.9917">«Constructor»UserProfile(string motto, Date birthDate, Sex gender, Subject subject, Status status, int pictureId)</text><ellipse cx="392" cy="368.4883" fill="#84BE84" rx="3" ry="3" style="stroke: #038048; stroke-width: 1.0;"/><text fill="#000000" font-family="sans-serif" font-size="11" lengthAdjust="spacingAndGlyphs" textLength="94" x="401" y="370.7964">string getMotto()</text><ellipse cx="392" cy="381.293" fill="#84BE84" rx="3" ry="3" style="stroke: #038048; stroke-width: 1.0;"/><text fill="#000000" font-family="sans-serif" font-size="11" lengthAdjust="spacingAndGlyphs" textLength="109" x="401" y="383.6011">Date getBirthDate()</text><ellipse cx="392" cy="394.0977" fill="#84BE84" rx="3" ry="3" style="stroke: #038048; stroke-width: 1.0;"/><text fill="#000000" font-family="sans-serif" font-size="11" lengthAdjust="spacingAndGlyphs" textLength="93" x="401" y="396.4058">Sex getGender()</text><ellipse cx="392" cy="406.9023" fill="#84BE84" rx="3" ry="3" style="stroke: #038048; stroke-width: 1.0;"/><text fill="#000000" font-family="sans-serif" font-size="11" lengthAdjust="spacingAndGlyphs" textLength="114" x="401" y="409.2104">Subject getSubject()</text><ellipse cx="392" cy="419.707" fill="#84BE84" rx="3" ry="3" style="stroke: #038048; stroke-width: 1.0;"/><text fill="#000000" font-family="sans-serif" font-size="11" lengthAdjust="spacingAndGlyphs" textLength="104" x="401" y="422.0151">Status getStatus()</text><ellipse cx="392" cy="432.5117" fill="#84BE84" rx="3" ry="3" style="stroke: #038048; stroke-width: 1.0;"/><text fill="#000000" font-family="sans-serif" font-size="11" lengthAdjust="spacingAndGlyphs" textLength="129" x="401" y="434.8198">int getProfilePictureId()</text><!--class Group--><rect fill="#FEFECE" filter="url(#f1h78ciz5pjijg)" height="240.0703" id="Group" style="stroke: #A80036; stroke-width: 1.5;" width="718" x="355" y="500.9531"/><ellipse cx="690.75" cy="516.9531" fill="#ADD1B2" rx="11" ry="11" style="stroke: #A80036; stroke-width: 1.0;"/><path d="M693.7188,522.5938 Q693.1406,522.8906 692.5,523.0391 Q691.8594,523.1875 691.1563,523.1875 Q688.6563,523.1875 687.3359,521.5391 Q686.0156,519.8906 686.0156,516.7656 Q686.0156,513.6406 687.3359,511.9844 Q688.6563,510.3281 691.1563,510.3281 Q691.8594,510.3281 692.5078,510.4844 Q693.1563,510.6406 693.7188,510.9375 L693.7188,513.6563 Q693.0938,513.0781 692.5,512.8047 Q691.9063,512.5313 691.2813,512.5313 Q689.9375,512.5313 689.25,513.6016 Q688.5625,514.6719 688.5625,516.7656 Q688.5625,518.8594 689.25,519.9297 Q689.9375,521 691.2813,521 Q691.9063,521 692.5,520.7266 Q693.0938,520.4531 693.7188,519.875 L693.7188,522.5938 Z "/><text fill="#000000" font-family="sans-serif" font-size="12" lengthAdjust="spacingAndGlyphs" textLength="38" x="711.25" y="521.1074">Group</text><line style="stroke: #A80036; stroke-width: 1.5;" x1="356" x2="1072" y1="532.9531" y2="532.9531"/><rect fill="none" height="6" style="stroke: #C82930; stroke-width: 1.0;" width="6" x="363" y="541.8555"/><text fill="#000000" font-family="sans-serif" font-size="11" lengthAdjust="spacingAndGlyphs" textLength="47" x="375" y="547.1636">string id</text><rect fill="none" height="6" style="stroke: #C82930; stroke-width: 1.0;" width="6" x="363" y="554.6602"/><text fill="#000000" font-family="sans-serif" font-size="11" lengthAdjust="spacingAndGlyphs" textLength="69" x="375" y="559.9683">string name</text><rect fill="none" height="6" style="stroke: #C82930; stroke-width: 1.0;" width="6" x="363" y="567.4648"/><text fill="#000000" font-family="sans-serif" font-size="11" lengthAdjust="spacingAndGlyphs" textLength="70" x="375" y="572.7729">string motto</text><rect fill="none" height="6" style="stroke: #C82930; stroke-width: 1.0;" width="6" x="363" y="580.2695"/><text fill="#000000" font-family="sans-serif" font-size="11" lengthAdjust="spacingAndGlyphs" textLength="95" x="375" y="585.5776">int maxMembers</text><rect fill="none" height="6" style="stroke: #C82930; stroke-width: 1.0;" width="6" x="363" y="593.0742"/><text fill="#000000" font-family="sans-serif" font-size="11" lengthAdjust="spacingAndGlyphs" textLength="57" x="375" y="598.3823">string line</text><rect fill="none" height="6" style="stroke: #C82930; stroke-width: 1.0;" width="6" x="363" y="605.8789"/><text fill="#000000" font-family="sans-serif" font-size="11" lengthAdjust="spacingAndGlyphs" textLength="102" x="375" y="611.187">Date meetingDate</text><rect fill="none" height="6" style="stroke: #C82930; stroke-width: 1.0;" width="6" x="363" y="618.6836"/><text fill="#000000" font-family="sans-serif" font-size="11" lengthAdjust="spacingAndGlyphs" textLength="145" x="375" y="623.9917">List&lt;UserProfiles&gt; users</text><line style="stroke: #A80036; stroke-width: 1.5;" x1="356" x2="1072" y1="630.5859" y2="630.5859"/><ellipse cx="366" cy="642.4883" fill="#84BE84" rx="3" ry="3" style="stroke: #038048; stroke-width: 1.0;"/><text fill="#000000" font-family="sans-serif" font-size="11" lengthAdjust="spacingAndGlyphs" textLength="692" x="375" y="644.7964">«Constructor» Group(string name, string motto, int maxMembers, string line, Date meetingDate, List&lt;UserProfile&gt; user)</text><ellipse cx="366" cy="655.293" fill="#84BE84" rx="3" ry="3" style="stroke: #038048; stroke-width: 1.0;"/><text fill="#000000" font-family="sans-serif" font-size="11" lengthAdjust="spacingAndGlyphs" textLength="73" x="375" y="657.6011">string getId()</text><ellipse cx="366" cy="668.0977" fill="#84BE84" rx="3" ry="3" style="stroke: #038048; stroke-width: 1.0;"/><text fill="#000000" font-family="sans-serif" font-size="11" lengthAdjust="spacingAndGlyphs" textLength="96" x="375" y="670.4058">string getName()</text><ellipse cx="366" cy="680.9023" fill="#84BE84" rx="3" ry="3" style="stroke: #038048; stroke-width: 1.0;"/><text fill="#000000" font-family="sans-serif" font-size="11" lengthAdjust="spacingAndGlyphs" textLength="94" x="375" y="683.2104">string getMotto()</text><ellipse cx="366" cy="693.707" fill="#84BE84" rx="3" ry="3" style="stroke: #038048; stroke-width: 1.0;"/><text fill="#000000" font-family="sans-serif" font-size="11" lengthAdjust="spacingAndGlyphs" textLength="119" x="375" y="696.0151">int getMaxMembers()</text><ellipse cx="366" cy="706.5117" fill="#84BE84" rx="3" ry="3" style="stroke: #038048; stroke-width: 1.0;"/><text fill="#000000" font-family="sans-serif" font-size="11" lengthAdjust="spacingAndGlyphs" textLength="86" x="375" y="708.8198">string getLine()</text><ellipse cx="366" cy="719.3164" fill="#84BE84" rx="3" ry="3" style="stroke: #038048; stroke-width: 1.0;"/><text fill="#000000" font-family="sans-serif" font-size="11" lengthAdjust="spacingAndGlyphs" textLength="126" x="375" y="721.6245">Date getMeetingDate()</text><ellipse cx="366" cy="732.1211" fill="#84BE84" rx="3" ry="3" style="stroke: #038048; stroke-width: 1.0;"/><text fill="#000000" font-family="sans-serif" font-size="11" lengthAdjust="spacingAndGlyphs" textLength="158" x="375" y="734.4292">List&lt;UserProfile&gt; getUser()</text><!--class Line--><rect fill="#FEFECE" filter="url(#f1h78ciz5pjijg)" height="86.4141" id="Line" style="stroke: #A80036; stroke-width: 1.5;" width="215" x="90.5" y="290.9531"/><ellipse cx="181.25" cy="306.9531" fill="#ADD1B2" rx="11" ry="11" style="stroke: #A80036; stroke-width: 1.0;"/><path d="M184.2188,312.5938 Q183.6406,312.8906 183,313.0391 Q182.3594,313.1875 181.6563,313.1875 Q179.1563,313.1875 177.8359,311.5391 Q176.5156,309.8906 176.5156,306.7656 Q176.5156,303.6406 177.8359,301.9844 Q179.1563,300.3281 181.6563,300.3281 Q182.3594,300.3281 183.0078,300.4844 Q183.6563,300.6406 184.2188,300.9375 L184.2188,303.6563 Q183.5938,303.0781 183,302.8047 Q182.4063,302.5313 181.7813,302.5313 Q180.4375,302.5313 179.75,303.6016 Q179.0625,304.6719 179.0625,306.7656 Q179.0625,308.8594 179.75,309.9297 Q180.4375,311 181.7813,311 Q182.4063,311 183,310.7266 Q183.5938,310.4531 184.2188,309.875 L184.2188,312.5938 Z "/><text fill="#000000" font-family="sans-serif" font-size="12" lengthAdjust="spacingAndGlyphs" textLength="25" x="201.75" y="311.1074">Line</text><line style="stroke: #A80036; stroke-width: 1.5;" x1="91.5" x2="304.5" y1="322.9531" y2="322.9531"/><rect fill="none" height="6" style="stroke: #C82930; stroke-width: 1.0;" width="6" x="98.5" y="331.8555"/><text fill="#000000" font-family="sans-serif" font-size="11" lengthAdjust="spacingAndGlyphs" textLength="73" x="110.5" y="337.1636">Meal[] meals</text><line style="stroke: #A80036; stroke-width: 1.5;" x1="91.5" x2="304.5" y1="343.7578" y2="343.7578"/><ellipse cx="101.5" cy="355.6602" fill="#84BE84" rx="3" ry="3" style="stroke: #038048; stroke-width: 1.0;"/><text fill="#000000" font-family="sans-serif" font-size="11" lengthAdjust="spacingAndGlyphs" textLength="189" x="110.5" y="357.9683">«Constructor» Line(Meal[] meals)</text><ellipse cx="101.5" cy="368.4648" fill="#84BE84" rx="3" ry="3" style="stroke: #038048; stroke-width: 1.0;"/><text fill="#000000" font-family="sans-serif" font-size="11" lengthAdjust="spacingAndGlyphs" textLength="97" x="110.5" y="370.7729">Meal[] getMeals()</text><!--class Meal--><rect fill="#FEFECE" filter="url(#f1h78ciz5pjijg)" height="137.6328" id="Meal" style="stroke: #A80036; stroke-width: 1.5;" width="384" x="6" y="28.9531"/><ellipse cx="179.25" cy="44.9531" fill="#ADD1B2" rx="11" ry="11" style="stroke: #A80036; stroke-width: 1.0;"/><path d="M182.2188,50.5938 Q181.6406,50.8906 181,51.0391 Q180.3594,51.1875 179.6563,51.1875 Q177.1563,51.1875 175.8359,49.5391 Q174.5156,47.8906 174.5156,44.7656 Q174.5156,41.6406 175.8359,39.9844 Q177.1563,38.3281 179.6563,38.3281 Q180.3594,38.3281 181.0078,38.4844 Q181.6563,38.6406 182.2188,38.9375 L182.2188,41.6563 Q181.5938,41.0781 181,40.8047 Q180.4063,40.5313 179.7813,40.5313 Q178.4375,40.5313 177.75,41.6016 Q177.0625,42.6719 177.0625,44.7656 Q177.0625,46.8594 177.75,47.9297 Q178.4375,49 179.7813,49 Q180.4063,49 181,48.7266 Q181.5938,48.4531 182.2188,47.875 L182.2188,50.5938 Z "/><text fill="#000000" font-family="sans-serif" font-size="12" lengthAdjust="spacingAndGlyphs" textLength="29" x="199.75" y="49.1074">Meal</text><line style="stroke: #A80036; stroke-width: 1.5;" x1="7" x2="389" y1="60.9531" y2="60.9531"/><rect fill="none" height="6" style="stroke: #C82930; stroke-width: 1.0;" width="6" x="14" y="69.8555"/><text fill="#000000" font-family="sans-serif" font-size="11" lengthAdjust="spacingAndGlyphs" textLength="70" x="26" y="75.1636">String name</text><rect fill="none" height="6" style="stroke: #C82930; stroke-width: 1.0;" width="6" x="14" y="82.6602"/><text fill="#000000" font-family="sans-serif" font-size="11" lengthAdjust="spacingAndGlyphs" textLength="57" x="26" y="87.9683">float price</text><rect fill="none" height="6" style="stroke: #C82930; stroke-width: 1.0;" width="6" x="14" y="95.4648"/><text fill="#000000" font-family="sans-serif" font-size="11" lengthAdjust="spacingAndGlyphs" textLength="97" x="26" y="100.7729">FoodType[] types</text><line style="stroke: #A80036; stroke-width: 1.5;" x1="7" x2="389" y1="107.3672" y2="107.3672"/><ellipse cx="17" cy="119.2695" fill="#84BE84" rx="3" ry="3" style="stroke: #038048; stroke-width: 1.0;"/><text fill="#000000" font-family="sans-serif" font-size="11" lengthAdjust="spacingAndGlyphs" textLength="358" x="26" y="121.5776">«Constructor» Meal(string name, float price, FoodType[] types)</text><ellipse cx="17" cy="132.0742" fill="#84BE84" rx="3" ry="3" style="stroke: #038048; stroke-width: 1.0;"/><text fill="#000000" font-family="sans-serif" font-size="11" lengthAdjust="spacingAndGlyphs" textLength="96" x="26" y="134.3823">string getName()</text><ellipse cx="17" cy="144.8789" fill="#84BE84" rx="3" ry="3" style="stroke: #038048; stroke-width: 1.0;"/><text fill="#000000" font-family="sans-serif" font-size="11" lengthAdjust="spacingAndGlyphs" textLength="83" x="26" y="147.187">float getPrice()</text><ellipse cx="17" cy="157.6836" fill="#84BE84" rx="3" ry="3" style="stroke: #038048; stroke-width: 1.0;"/><text fill="#000000" font-family="sans-serif" font-size="11" lengthAdjust="spacingAndGlyphs" textLength="153" x="26" y="159.9917">FoodType[] getFoodTypes()</text><!--class MensaData--><rect fill="#FEFECE" filter="url(#f1h78ciz5pjijg)" height="86.4141" id="MensaData" style="stroke: #A80036; stroke-width: 1.5;" width="244" x="76" y="577.9531"/><ellipse cx="158.25" cy="593.9531" fill="#ADD1B2" rx="11" ry="11" style="stroke: #A80036; stroke-width: 1.0;"/><path d="M161.2188,599.5938 Q160.6406,599.8906 160,600.0391 Q159.3594,600.1875 158.6563,600.1875 Q156.1563,600.1875 154.8359,598.5391 Q153.5156,596.8906 153.5156,593.7656 Q153.5156,590.6406 154.8359,588.9844 Q156.1563,587.3281 158.6563,587.3281 Q159.3594,587.3281 160.0078,587.4844 Q160.6563,587.6406 161.2188,587.9375 L161.2188,590.6563 Q160.5938,590.0781 160,589.8047 Q159.4063,589.5313 158.7813,589.5313 Q157.4375,589.5313 156.75,590.6016 Q156.0625,591.6719 156.0625,593.7656 Q156.0625,595.8594 156.75,596.9297 Q157.4375,598 158.7813,598 Q159.4063,598 160,597.7266 Q160.5938,597.4531 161.2188,596.875 L161.2188,599.5938 Z "/><text fill="#000000" font-family="sans-serif" font-size="12" lengthAdjust="spacingAndGlyphs" textLength="71" x="178.75" y="598.1074">MensaData</text><line style="stroke: #A80036; stroke-width: 1.5;" x1="77" x2="319" y1="609.9531" y2="609.9531"/><rect fill="none" height="6" style="stroke: #C82930; stroke-width: 1.0;" width="6" x="84" y="618.8555"/><text fill="#000000" font-family="sans-serif" font-size="11" lengthAdjust="spacingAndGlyphs" textLength="62" x="96" y="624.1636">Line[] lines</text><line style="stroke: #A80036; stroke-width: 1.5;" x1="77" x2="319" y1="630.7578" y2="630.7578"/><ellipse cx="87" cy="642.6602" fill="#84BE84" rx="3" ry="3" style="stroke: #038048; stroke-width: 1.0;"/><text fill="#000000" font-family="sans-serif" font-size="11" lengthAdjust="spacingAndGlyphs" textLength="218" x="96" y="644.9683">«Constructor» MensaData(Line[] lines)</text><ellipse cx="87" cy="655.4648" fill="#84BE84" rx="3" ry="3" style="stroke: #038048; stroke-width: 1.0;"/><text fill="#000000" font-family="sans-serif" font-size="11" lengthAdjust="spacingAndGlyphs" textLength="91" x="96" y="657.7729">Line[] getLines()</text><!--class Sex--><rect fill="#FEFECE" filter="url(#f1h78ciz5pjijg)" height="86.4141" id="Sex" style="stroke: #A80036; stroke-width: 1.5;" width="54" x="1107" y="54.9531"/><ellipse cx="1122" cy="70.9531" fill="#EB937F" rx="11" ry="11" style="stroke: #A80036; stroke-width: 1.0;"/><path d="M1126.1094,76.9531 L1118.3906,76.9531 L1118.3906,64.5625 L1126.1094,64.5625 L1126.1094,66.7188 L1120.8438,66.7188 L1120.8438,69.3906 L1125.6094,69.3906 L1125.6094,71.5469 L1120.8438,71.5469 L1120.8438,74.7969 L1126.1094,74.7969 L1126.1094,76.9531 Z "/><text fill="#000000" font-family="sans-serif" font-size="12" lengthAdjust="spacingAndGlyphs" textLength="22" x="1136" y="75.1074">Sex</text><line style="stroke: #A80036; stroke-width: 1.5;" x1="1108" x2="1160" y1="86.9531" y2="86.9531"/><text fill="#000000" font-family="sans-serif" font-size="11" lengthAdjust="spacingAndGlyphs" textLength="29" x="1113" y="101.1636">MALE</text><text fill="#000000" font-family="sans-serif" font-size="11" lengthAdjust="spacingAndGlyphs" textLength="42" x="1113" y="113.9683">FEMALE</text><text fill="#000000" font-family="sans-serif" font-size="11" lengthAdjust="spacingAndGlyphs" textLength="38" x="1113" y="126.7729">OTHER</text><line style="stroke: #A80036; stroke-width: 1.5;" x1="1108" x2="1160" y1="133.3672" y2="133.3672"/><!--class Status--><rect fill="#FEFECE" filter="url(#f1h78ciz5pjijg)" height="99.2188" id="Status" style="stroke: #A80036; stroke-width: 1.5;" width="88" x="1196" y="48.4531"/><ellipse cx="1217.75" cy="64.4531" fill="#EB937F" rx="11" ry="11" style="stroke: #A80036; stroke-width: 1.0;"/><path d="M1221.8594,70.4531 L1214.1406,70.4531 L1214.1406,58.0625 L1221.8594,58.0625 L1221.8594,60.2188 L1216.5938,60.2188 L1216.5938,62.8906 L1221.3594,62.8906 L1221.3594,65.0469 L1216.5938,65.0469 L1216.5938,68.2969 L1221.8594,68.2969 L1221.8594,70.4531 Z "/><text fill="#000000" font-family="sans-serif" font-size="12" lengthAdjust="spacingAndGlyphs" textLength="41" x="1233.25" y="68.6074">Status</text><line style="stroke: #A80036; stroke-width: 1.5;" x1="1197" x2="1283" y1="80.4531" y2="80.4531"/><text fill="#000000" font-family="sans-serif" font-size="11" lengthAdjust="spacingAndGlyphs" textLength="30" x="1202" y="94.6636">MEAT</text><text fill="#000000" font-family="sans-serif" font-size="11" lengthAdjust="spacingAndGlyphs" textLength="69" x="1202" y="107.4683">VEGETERIAN</text><text fill="#000000" font-family="sans-serif" font-size="11" lengthAdjust="spacingAndGlyphs" textLength="38" x="1202" y="120.2729">VEGAN</text><text fill="#000000" font-family="sans-serif" font-size="11" lengthAdjust="spacingAndGlyphs" textLength="76" x="1202" y="133.0776">PESCETERIAN</text><line style="stroke: #A80036; stroke-width: 1.5;" x1="1197" x2="1283" y1="139.6719" y2="139.6719"/><!--class FoodType--><rect fill="#FEFECE" filter="url(#f1h78ciz5pjijg)" height="176.0469" id="FoodType" style="stroke: #A80036; stroke-width: 1.5;" width="104" x="1082" y="245.9531"/><ellipse cx="1102.4" cy="261.9531" fill="#EB937F" rx="11" ry="11" style="stroke: #A80036; stroke-width: 1.0;"/><path d="M1106.5094,267.9531 L1098.7906,267.9531 L1098.7906,255.5625 L1106.5094,255.5625 L1106.5094,257.7188 L1101.2438,257.7188 L1101.2438,260.3906 L1106.0094,260.3906 L1106.0094,262.5469 L1101.2438,262.5469 L1101.2438,265.7969 L1106.5094,265.7969 L1106.5094,267.9531 Z "/><text fill="#000000" font-family="sans-serif" font-size="12" lengthAdjust="spacingAndGlyphs" textLength="60" x="1117.6" y="266.1074">FoodType</text><line style="stroke: #A80036; stroke-width: 1.5;" x1="1083" x2="1185" y1="277.9531" y2="277.9531"/><text fill="#000000" font-family="sans-serif" font-size="11" lengthAdjust="spacingAndGlyphs" textLength="28" x="1088" y="292.1636">BEEF</text><text fill="#000000" font-family="sans-serif" font-size="11" lengthAdjust="spacingAndGlyphs" textLength="92" x="1088" y="304.9683">REGIONAL_MEAT</text><text fill="#000000" font-family="sans-serif" font-size="11" lengthAdjust="spacingAndGlyphs" textLength="30" x="1088" y="317.7729">PORK</text><text fill="#000000" font-family="sans-serif" font-size="11" lengthAdjust="spacingAndGlyphs" textLength="92" x="1088" y="330.5776">REGIONAL_PORK</text><text fill="#000000" font-family="sans-serif" font-size="11" lengthAdjust="spacingAndGlyphs" textLength="25" x="1088" y="343.3823">FISH</text><text fill="#000000" font-family="sans-serif" font-size="11" lengthAdjust="spacingAndGlyphs" textLength="69" x="1088" y="356.187">VEGETARIAN</text><text fill="#000000" font-family="sans-serif" font-size="11" lengthAdjust="spacingAndGlyphs" textLength="38" x="1088" y="368.9917">VEGAN</text><text fill="#000000" font-family="sans-serif" font-size="11" lengthAdjust="spacingAndGlyphs" textLength="21" x="1088" y="381.7964">LAB</text><text fill="#000000" font-family="sans-serif" font-size="11" lengthAdjust="spacingAndGlyphs" textLength="51" x="1088" y="394.6011">ORGANIC</text><text fill="#000000" font-family="sans-serif" font-size="11" lengthAdjust="spacingAndGlyphs" textLength="75" x="1088" y="407.4058">MENSA_VITAL</text><line style="stroke: #A80036; stroke-width: 1.5;" x1="1083" x2="1185" y1="414" y2="414"/><!--class Subject--><rect fill="#FEFECE" filter="url(#f1h78ciz5pjijg)" height="137.6328" id="Subject" style="stroke: #A80036; stroke-width: 1.5;" width="79" x="1221.5" y="264.9531"/><ellipse cx="1236.5" cy="280.9531" fill="#EB937F" rx="11" ry="11" style="stroke: #A80036; stroke-width: 1.0;"/><path d="M1240.6094,286.9531 L1232.8906,286.9531 L1232.8906,274.5625 L1240.6094,274.5625 L1240.6094,276.7188 L1235.3438,276.7188 L1235.3438,279.3906 L1240.1094,279.3906 L1240.1094,281.5469 L1235.3438,281.5469 L1235.3438,284.7969 L1240.6094,284.7969 L1240.6094,286.9531 Z "/><text fill="#000000" font-family="sans-serif" font-size="12" lengthAdjust="spacingAndGlyphs" textLength="47" x="1250.5" y="285.1074">Subject</text><line style="stroke: #A80036; stroke-width: 1.5;" x1="1222.5" x2="1299.5" y1="296.9531" y2="296.9531"/><text fill="#000000" font-family="sans-serif" font-size="11" lengthAdjust="spacingAndGlyphs" textLength="10" x="1227.5" y="311.1636">IT</text><text fill="#000000" font-family="sans-serif" font-size="11" lengthAdjust="spacingAndGlyphs" textLength="57" x="1227.5" y="323.9683">ECONOMY</text><text fill="#000000" font-family="sans-serif" font-size="11" lengthAdjust="spacingAndGlyphs" textLength="31" x="1227.5" y="336.7729">MATH</text><text fill="#000000" font-family="sans-serif" font-size="11" lengthAdjust="spacingAndGlyphs" textLength="49" x="1227.5" y="349.5776">PHYSICS</text><text fill="#000000" font-family="sans-serif" font-size="11" lengthAdjust="spacingAndGlyphs" textLength="64" x="1227.5" y="362.3823">CHEMISTRY</text><text fill="#000000" font-family="sans-serif" font-size="11" lengthAdjust="spacingAndGlyphs" textLength="45" x="1227.5" y="375.187">BIOLIGY</text><text fill="#000000" font-family="sans-serif" font-size="11" lengthAdjust="spacingAndGlyphs" textLength="63" x="1227.5" y="387.9917">LINGUISTIC</text><line style="stroke: #A80036; stroke-width: 1.5;" x1="1222.5" x2="1299.5" y1="394.5859" y2="394.5859"/><!--link User to UserProfile--><path d="M714,187.4452 C714,200.2345 714,213.499 714,226.5875 " fill="none" id="User-UserProfile" style="stroke: #A80036; stroke-width: 1.0;"/><polygon fill="none" points="707.0001,187.1663,714,167.1663,721.0001,187.1662,707.0001,187.1663" style="stroke: #A80036; stroke-width: 1.0;"/><!--link UserProfile to Group--><path d="M714,441.2294 C714,456.4046 714,472.1581 714,487.7487 " fill="none" id="UserProfile-Group" style="stroke: #A80036; stroke-width: 1.0;"/><polygon fill="#A80036" points="714,500.7902,718,494.7902,714,488.7902,710,494.7902,714,500.7902" style="stroke: #A80036; stroke-width: 1.0;"/><text fill="#000000" font-family="sans-serif" font-size="13" lengthAdjust="spacingAndGlyphs" textLength="7" x="706.7539" y="461.355">*</text><text fill="#000000" font-family="sans-serif" font-size="13" lengthAdjust="spacingAndGlyphs" textLength="8" x="705.7563" y="490.0796">1</text><!--link Meal to Line--><path d="M198,167.1663 C198,202.3109 198,244.4633 198,277.5985 " fill="none" id="Meal-Line" style="stroke: #A80036; stroke-width: 1.0;"/><polygon fill="#A80036" points="198,290.7389,202,284.7389,198,278.7389,194,284.7389,198,290.7389" style="stroke: #A80036; stroke-width: 1.0;"/><text fill="#000000" font-family="sans-serif" font-size="13" lengthAdjust="spacingAndGlyphs" textLength="7" x="190.6664" y="186.5688">*</text><text fill="#000000" font-family="sans-serif" font-size="13" lengthAdjust="spacingAndGlyphs" textLength="8" x="189.3875" y="280.0187">1</text><!--link Line to MensaData--><path d="M198,377.2306 C198,427.1792 198,509.4847 198,564.4457 " fill="none" id="Line-MensaData" style="stroke: #A80036; stroke-width: 1.0;"/><polygon fill="#A80036" points="198,577.7934,202,571.7934,198,565.7934,194,571.7934,198,577.7934" style="stroke: #A80036; stroke-width: 1.0;"/><text fill="#000000" font-family="sans-serif" font-size="13" lengthAdjust="spacingAndGlyphs" textLength="7" x="190.4422" y="397.3678">*</text><text fill="#000000" font-family="sans-serif" font-size="13" lengthAdjust="spacingAndGlyphs" textLength="8" x="189.3625" y="566.764">1</text><!--link Sex to Status--><!--link Sex to FoodType--><!--link FoodType to Subject--><!--
@startuml
title Server Models - Class Diagramm

User <|-down- UserProfile
Group "1" *-up- "*" UserProfile
Line "1" *-up- "*" Meal
MensaData "1" *-up- "*" Line

class User {
  -String id
  -String name
  -String password
  +<<Constructor>>User(string name, string password)
  +string getId()
  +string getName()
  +string getPassword()
}

class UserProfile {
  -String motto
  -Date birthDate
  -Sex gender
  -Subject subject
  -Status status
  -int profilePictureId
  +<<Constructor>>UserProfile(string motto, Date birthDate, Sex gender, Subject subject, Status status, int pictureId) 
  +string getMotto()
  +Date getBirthDate()
  +Sex getGender()
  +Subject getSubject()
  +Status getStatus()
  +int getProfilePictureId()
}
 
class Group {
  -string id
  -string name
  -string motto
  -int maxMembers
  -string line
  -Date meetingDate
  -List<UserProfiles> users
  +<<Constructor>> Group(string name, string motto, int maxMembers, string line, Date meetingDate, List<UserProfile> user)
  +string getId()
  +string getName()
  +string getMotto()
  +int getMaxMembers()
  +string getLine()
  +Date getMeetingDate()
  +List<UserProfile> getUser()
}

class Meal {
  -String name
  -float price
  -FoodType[] types
  +<<Constructor>> Meal(string name, float price, FoodType[] types)
  +string getName()
  +float getPrice()
  +FoodType[] getFoodTypes()
}

class Line {
  -Meal[] meals
  +<<Constructor>> Line(Meal[] meals)
  +Meal[] getMeals()
}

class MensaData {
  -Line[] lines
  +<<Constructor>> MensaData(Line[] lines)
  +Line[] getLines()
}

enum Sex {
  MALE
  FEMALE
  OTHER
}

enum Status {
  MEAT
  VEGETERIAN
  VEGAN
  PESCETERIAN
}

enum FoodType {
  BEEF
  REGIONAL_MEAT
  PORK
  REGIONAL_PORK
  FISH
  VEGETARIAN
  VEGAN
  LAB
  ORGANIC
  MENSA_VITAL
}

enum Subject {
  IT
  ECONOMY
  MATH
  PHYSICS
  CHEMISTRY
  BIOLIGY
  LINGUISTIC
}
@enduml

PlantUML version 1.2019.04(Fri Mar 29 15:44:36 UTC 2019)
(GPL source distribution)
Java Runtime: OpenJDK Runtime Environment
JVM: OpenJDK 64-Bit Server VM
Java Version: 1.8.0_201-heroku-b09
Operating System: Linux
OS Version: 4.4.0-1046-aws
Default Encoding: UTF-8
Language: en
Country: US
--></g></svg>