<?xml version="1.0" encoding="UTF-8" standalone="no"?><svg xmlns="http://www.w3.org/2000/svg" xmlns:xlink="http://www.w3.org/1999/xlink" contentScriptType="application/ecmascript" contentStyleType="text/css" height="898px" preserveAspectRatio="none" style="width:862px;height:898px;" version="1.1" viewBox="0 0 862 898" width="862px" zoomAndPan="magnify"><defs><filter height="300%" id="f1iksc96cvig7u" width="300%" x="-1" y="-1"><feGaussianBlur result="blurOut" stdDeviation="2.0"/><feColorMatrix in="blurOut" result="blurOut2" type="matrix" values="0 0 0 0 0 0 0 0 0 0 0 0 0 0 0 0 0 0 .4 0"/><feOffset dx="4.0" dy="4.0" in="blurOut2" result="blurOut3"/><feBlend in="SourceGraphic" in2="blurOut3" mode="normal"/></filter></defs><g><text fill="#000000" font-family="sans-serif" font-size="18" lengthAdjust="spacingAndGlyphs" textLength="289" x="290.5" y="16.708">Server Models - Class Diagramm</text><!--class Group--><rect fill="#FEFECE" filter="url(#f1iksc96cvig7u)" height="124.8281" id="Group" style="stroke: #A80036; stroke-width: 1.5;" width="156" x="85" y="28.9531"/><ellipse cx="139.75" cy="44.9531" fill="#ADD1B2" rx="11" ry="11" style="stroke: #A80036; stroke-width: 1.0;"/><path d="M142.7188,50.5938 Q142.1406,50.8906 141.5,51.0391 Q140.8594,51.1875 140.1563,51.1875 Q137.6563,51.1875 136.3359,49.5391 Q135.0156,47.8906 135.0156,44.7656 Q135.0156,41.6406 136.3359,39.9844 Q137.6563,38.3281 140.1563,38.3281 Q140.8594,38.3281 141.5078,38.4844 Q142.1563,38.6406 142.7188,38.9375 L142.7188,41.6563 Q142.0938,41.0781 141.5,40.8047 Q140.9063,40.5313 140.2813,40.5313 Q138.9375,40.5313 138.25,41.6016 Q137.5625,42.6719 137.5625,44.7656 Q137.5625,46.8594 138.25,47.9297 Q138.9375,49 140.2813,49 Q140.9063,49 141.5,48.7266 Q142.0938,48.4531 142.7188,47.875 L142.7188,50.5938 Z "/><text fill="#000000" font-family="sans-serif" font-size="12" lengthAdjust="spacingAndGlyphs" textLength="38" x="160.25" y="49.1074">Group</text><line style="stroke: #A80036; stroke-width: 1.5;" x1="86" x2="240" y1="60.9531" y2="60.9531"/><rect fill="none" height="6" style="stroke: #C82930; stroke-width: 1.0;" width="6" x="93" y="69.8555"/><text fill="#000000" font-family="sans-serif" font-size="11" lengthAdjust="spacingAndGlyphs" textLength="47" x="105" y="75.1636">string id</text><rect fill="none" height="6" style="stroke: #C82930; stroke-width: 1.0;" width="6" x="93" y="82.6602"/><text fill="#000000" font-family="sans-serif" font-size="11" lengthAdjust="spacingAndGlyphs" textLength="69" x="105" y="87.9683">string name</text><rect fill="none" height="6" style="stroke: #C82930; stroke-width: 1.0;" width="6" x="93" y="95.4648"/><text fill="#000000" font-family="sans-serif" font-size="11" lengthAdjust="spacingAndGlyphs" textLength="70" x="105" y="100.7729">string motto</text><rect fill="none" height="6" style="stroke: #C82930; stroke-width: 1.0;" width="6" x="93" y="108.2695"/><text fill="#000000" font-family="sans-serif" font-size="11" lengthAdjust="spacingAndGlyphs" textLength="95" x="105" y="113.5776">int maxMembers</text><rect fill="none" height="6" style="stroke: #C82930; stroke-width: 1.0;" width="6" x="93" y="121.0742"/><text fill="#000000" font-family="sans-serif" font-size="11" lengthAdjust="spacingAndGlyphs" textLength="57" x="105" y="126.3823">string line</text><rect fill="none" height="6" style="stroke: #C82930; stroke-width: 1.0;" width="6" x="93" y="133.8789"/><text fill="#000000" font-family="sans-serif" font-size="11" lengthAdjust="spacingAndGlyphs" textLength="130" x="105" y="139.187">DateTime meetingDate</text><line style="stroke: #A80036; stroke-width: 1.5;" x1="86" x2="240" y1="145.7813" y2="145.7813"/><!--class User--><rect fill="#FEFECE" filter="url(#f1iksc96cvig7u)" height="137.6328" id="User" style="stroke: #A80036; stroke-width: 1.5;" width="129" x="98.5" y="268.9531"/><ellipse cx="144.25" cy="284.9531" fill="#ADD1B2" rx="11" ry="11" style="stroke: #A80036; stroke-width: 1.0;"/><path d="M147.2188,290.5938 Q146.6406,290.8906 146,291.0391 Q145.3594,291.1875 144.6563,291.1875 Q142.1563,291.1875 140.8359,289.5391 Q139.5156,287.8906 139.5156,284.7656 Q139.5156,281.6406 140.8359,279.9844 Q142.1563,278.3281 144.6563,278.3281 Q145.3594,278.3281 146.0078,278.4844 Q146.6563,278.6406 147.2188,278.9375 L147.2188,281.6563 Q146.5938,281.0781 146,280.8047 Q145.4063,280.5313 144.7813,280.5313 Q143.4375,280.5313 142.75,281.6016 Q142.0625,282.6719 142.0625,284.7656 Q142.0625,286.8594 142.75,287.9297 Q143.4375,289 144.7813,289 Q145.4063,289 146,288.7266 Q146.5938,288.4531 147.2188,287.875 L147.2188,290.5938 Z "/><text fill="#000000" font-family="sans-serif" font-size="12" lengthAdjust="spacingAndGlyphs" textLength="29" x="164.75" y="289.1074">User</text><line style="stroke: #A80036; stroke-width: 1.5;" x1="99.5" x2="226.5" y1="300.9531" y2="300.9531"/><rect fill="none" height="6" style="stroke: #C82930; stroke-width: 1.0;" width="6" x="106.5" y="309.8555"/><text fill="#000000" font-family="sans-serif" font-size="11" lengthAdjust="spacingAndGlyphs" textLength="68" x="118.5" y="315.1636">string token</text><rect fill="none" height="6" style="stroke: #C82930; stroke-width: 1.0;" width="6" x="106.5" y="322.6602"/><text fill="#000000" font-family="sans-serif" font-size="11" lengthAdjust="spacingAndGlyphs" textLength="71" x="118.5" y="327.9683">String motto</text><rect fill="none" height="6" style="stroke: #C82930; stroke-width: 1.0;" width="6" x="106.5" y="335.4648"/><text fill="#000000" font-family="sans-serif" font-size="11" lengthAdjust="spacingAndGlyphs" textLength="82" x="118.5" y="340.7729">Date birthDate</text><rect fill="none" height="6" style="stroke: #C82930; stroke-width: 1.0;" width="6" x="106.5" y="348.2695"/><text fill="#000000" font-family="sans-serif" font-size="11" lengthAdjust="spacingAndGlyphs" textLength="65" x="118.5" y="353.5776">Sex gender</text><rect fill="none" height="6" style="stroke: #C82930; stroke-width: 1.0;" width="6" x="106.5" y="361.0742"/><text fill="#000000" font-family="sans-serif" font-size="11" lengthAdjust="spacingAndGlyphs" textLength="87" x="118.5" y="366.3823">Subject subject</text><rect fill="none" height="6" style="stroke: #C82930; stroke-width: 1.0;" width="6" x="106.5" y="373.8789"/><text fill="#000000" font-family="sans-serif" font-size="11" lengthAdjust="spacingAndGlyphs" textLength="77" x="118.5" y="379.187">Status status</text><rect fill="none" height="6" style="stroke: #C82930; stroke-width: 1.0;" width="6" x="106.5" y="386.6836"/><text fill="#000000" font-family="sans-serif" font-size="11" lengthAdjust="spacingAndGlyphs" textLength="103" x="118.5" y="391.9917">int profilePictureId</text><line style="stroke: #A80036; stroke-width: 1.5;" x1="99.5" x2="226.5" y1="398.5859" y2="398.5859"/><!--class Line--><rect fill="#FEFECE" filter="url(#f1iksc96cvig7u)" height="48" id="Line" style="stroke: #A80036; stroke-width: 1.5;" width="57" x="469.5" y="313.9531"/><ellipse cx="484.5" cy="329.9531" fill="#ADD1B2" rx="11" ry="11" style="stroke: #A80036; stroke-width: 1.0;"/><path d="M487.4688,335.5938 Q486.8906,335.8906 486.25,336.0391 Q485.6094,336.1875 484.9063,336.1875 Q482.4063,336.1875 481.0859,334.5391 Q479.7656,332.8906 479.7656,329.7656 Q479.7656,326.6406 481.0859,324.9844 Q482.4063,323.3281 484.9063,323.3281 Q485.6094,323.3281 486.2578,323.4844 Q486.9063,323.6406 487.4688,323.9375 L487.4688,326.6563 Q486.8438,326.0781 486.25,325.8047 Q485.6563,325.5313 485.0313,325.5313 Q483.6875,325.5313 483,326.6016 Q482.3125,327.6719 482.3125,329.7656 Q482.3125,331.8594 483,332.9297 Q483.6875,334 485.0313,334 Q485.6563,334 486.25,333.7266 Q486.8438,333.4531 487.4688,332.875 L487.4688,335.5938 Z "/><text fill="#000000" font-family="sans-serif" font-size="12" lengthAdjust="spacingAndGlyphs" textLength="25" x="498.5" y="334.1074">Line</text><line style="stroke: #A80036; stroke-width: 1.5;" x1="470.5" x2="525.5" y1="345.9531" y2="345.9531"/><line style="stroke: #A80036; stroke-width: 1.5;" x1="470.5" x2="525.5" y1="353.9531" y2="353.9531"/><!--class Meal--><rect fill="#FEFECE" filter="url(#f1iksc96cvig7u)" height="73.6094" id="Meal" style="stroke: #A80036; stroke-width: 1.5;" width="96" x="450" y="540.9531"/><ellipse cx="480.75" cy="556.9531" fill="#ADD1B2" rx="11" ry="11" style="stroke: #A80036; stroke-width: 1.0;"/><path d="M483.7188,562.5938 Q483.1406,562.8906 482.5,563.0391 Q481.8594,563.1875 481.1563,563.1875 Q478.6563,563.1875 477.3359,561.5391 Q476.0156,559.8906 476.0156,556.7656 Q476.0156,553.6406 477.3359,551.9844 Q478.6563,550.3281 481.1563,550.3281 Q481.8594,550.3281 482.5078,550.4844 Q483.1563,550.6406 483.7188,550.9375 L483.7188,553.6563 Q483.0938,553.0781 482.5,552.8047 Q481.9063,552.5313 481.2813,552.5313 Q479.9375,552.5313 479.25,553.6016 Q478.5625,554.6719 478.5625,556.7656 Q478.5625,558.8594 479.25,559.9297 Q479.9375,561 481.2813,561 Q481.9063,561 482.5,560.7266 Q483.0938,560.4531 483.7188,559.875 L483.7188,562.5938 Z "/><text fill="#000000" font-family="sans-serif" font-size="12" lengthAdjust="spacingAndGlyphs" textLength="29" x="498.25" y="561.1074">Meal</text><line style="stroke: #A80036; stroke-width: 1.5;" x1="451" x2="545" y1="572.9531" y2="572.9531"/><rect fill="none" height="6" style="stroke: #C82930; stroke-width: 1.0;" width="6" x="458" y="581.8555"/><text fill="#000000" font-family="sans-serif" font-size="11" lengthAdjust="spacingAndGlyphs" textLength="70" x="470" y="587.1636">String name</text><rect fill="none" height="6" style="stroke: #C82930; stroke-width: 1.0;" width="6" x="458" y="594.6602"/><text fill="#000000" font-family="sans-serif" font-size="11" lengthAdjust="spacingAndGlyphs" textLength="57" x="470" y="599.9683">float price</text><line style="stroke: #A80036; stroke-width: 1.5;" x1="451" x2="545" y1="606.5625" y2="606.5625"/><!--class MensaData--><rect fill="#FEFECE" filter="url(#f1iksc96cvig7u)" height="48" id="MensaData" style="stroke: #A80036; stroke-width: 1.5;" width="103" x="446.5" y="67.4531"/><ellipse cx="461.5" cy="83.4531" fill="#ADD1B2" rx="11" ry="11" style="stroke: #A80036; stroke-width: 1.0;"/><path d="M464.4688,89.0938 Q463.8906,89.3906 463.25,89.5391 Q462.6094,89.6875 461.9063,89.6875 Q459.4063,89.6875 458.0859,88.0391 Q456.7656,86.3906 456.7656,83.2656 Q456.7656,80.1406 458.0859,78.4844 Q459.4063,76.8281 461.9063,76.8281 Q462.6094,76.8281 463.2578,76.9844 Q463.9063,77.1406 464.4688,77.4375 L464.4688,80.1563 Q463.8438,79.5781 463.25,79.3047 Q462.6563,79.0313 462.0313,79.0313 Q460.6875,79.0313 460,80.1016 Q459.3125,81.1719 459.3125,83.2656 Q459.3125,85.3594 460,86.4297 Q460.6875,87.5 462.0313,87.5 Q462.6563,87.5 463.25,87.2266 Q463.8438,86.9531 464.4688,86.375 L464.4688,89.0938 Z "/><text fill="#000000" font-family="sans-serif" font-size="12" lengthAdjust="spacingAndGlyphs" textLength="71" x="475.5" y="87.6074">MensaData</text><line style="stroke: #A80036; stroke-width: 1.5;" x1="447.5" x2="548.5" y1="99.4531" y2="99.4531"/><line style="stroke: #A80036; stroke-width: 1.5;" x1="447.5" x2="548.5" y1="107.4531" y2="107.4531"/><!--class Preference--><rect fill="#FEFECE" filter="url(#f1iksc96cvig7u)" height="73.6094" id="Preference" style="stroke: #A80036; stroke-width: 1.5;" width="113" x="584.5" y="54.4531"/><ellipse cx="604.9" cy="70.4531" fill="#ADD1B2" rx="11" ry="11" style="stroke: #A80036; stroke-width: 1.0;"/><path d="M607.8688,76.0938 Q607.2906,76.3906 606.65,76.5391 Q606.0094,76.6875 605.3063,76.6875 Q602.8063,76.6875 601.4859,75.0391 Q600.1656,73.3906 600.1656,70.2656 Q600.1656,67.1406 601.4859,65.4844 Q602.8063,63.8281 605.3063,63.8281 Q606.0094,63.8281 606.6578,63.9844 Q607.3063,64.1406 607.8688,64.4375 L607.8688,67.1563 Q607.2438,66.5781 606.65,66.3047 Q606.0563,66.0313 605.4313,66.0313 Q604.0875,66.0313 603.4,67.1016 Q602.7125,68.1719 602.7125,70.2656 Q602.7125,72.3594 603.4,73.4297 Q604.0875,74.5 605.4313,74.5 Q606.0563,74.5 606.65,74.2266 Q607.2438,73.9531 607.8688,73.375 L607.8688,76.0938 Z "/><text fill="#000000" font-family="sans-serif" font-size="12" lengthAdjust="spacingAndGlyphs" textLength="69" x="620.1" y="74.6074">Preference</text><line style="stroke: #A80036; stroke-width: 1.5;" x1="585.5" x2="696.5" y1="86.4531" y2="86.4531"/><rect fill="none" height="6" style="stroke: #C82930; stroke-width: 1.0;" width="6" x="592.5" y="95.3555"/><text fill="#000000" font-family="sans-serif" font-size="11" lengthAdjust="spacingAndGlyphs" textLength="87" x="604.5" y="100.6636">Time startTime</text><rect fill="none" height="6" style="stroke: #C82930; stroke-width: 1.0;" width="6" x="592.5" y="108.1602"/><text fill="#000000" font-family="sans-serif" font-size="11" lengthAdjust="spacingAndGlyphs" textLength="81" x="604.5" y="113.4683">Time endTime</text><line style="stroke: #A80036; stroke-width: 1.5;" x1="585.5" x2="696.5" y1="120.0625" y2="120.0625"/><!--class MealLine--><rect fill="#FEFECE" filter="url(#f1iksc96cvig7u)" height="214.4609" id="MealLine" style="stroke: #A80036; stroke-width: 1.5;" width="119" x="581.5" y="230.9531"/><ellipse cx="611.35" cy="246.9531" fill="#EB937F" rx="11" ry="11" style="stroke: #A80036; stroke-width: 1.0;"/><path d="M615.4594,252.9531 L607.7406,252.9531 L607.7406,240.5625 L615.4594,240.5625 L615.4594,242.7188 L610.1938,242.7188 L610.1938,245.3906 L614.9594,245.3906 L614.9594,247.5469 L610.1938,247.5469 L610.1938,250.7969 L615.4594,250.7969 L615.4594,252.9531 Z "/><text fill="#000000" font-family="sans-serif" font-size="12" lengthAdjust="spacingAndGlyphs" textLength="54" x="628.65" y="251.1074">MealLine</text><line style="stroke: #A80036; stroke-width: 1.5;" x1="582.5" x2="699.5" y1="262.9531" y2="262.9531"/><text fill="#000000" font-family="sans-serif" font-size="11" lengthAdjust="spacingAndGlyphs" textLength="54" x="587.5" y="277.1636">LINE_ONE</text><text fill="#000000" font-family="sans-serif" font-size="11" lengthAdjust="spacingAndGlyphs" textLength="55" x="587.5" y="289.9683">LINE_TWO</text><text fill="#000000" font-family="sans-serif" font-size="11" lengthAdjust="spacingAndGlyphs" textLength="66" x="587.5" y="302.7729">LINE_THREE</text><text fill="#000000" font-family="sans-serif" font-size="11" lengthAdjust="spacingAndGlyphs" textLength="89" x="587.5" y="315.5776">LINE_FOUR_FIVE</text><text fill="#000000" font-family="sans-serif" font-size="11" lengthAdjust="spacingAndGlyphs" textLength="71" x="587.5" y="328.3823">CUTLET_BAR</text><text fill="#000000" font-family="sans-serif" font-size="11" lengthAdjust="spacingAndGlyphs" textLength="48" x="587.5" y="341.187">LINE_SIX</text><text fill="#000000" font-family="sans-serif" font-size="11" lengthAdjust="spacingAndGlyphs" textLength="57" x="587.5" y="353.9917">LATE_LINE</text><text fill="#000000" font-family="sans-serif" font-size="11" lengthAdjust="spacingAndGlyphs" textLength="67" x="587.5" y="366.7964">CURRY_LINE</text><text fill="#000000" font-family="sans-serif" font-size="11" lengthAdjust="spacingAndGlyphs" textLength="59" x="587.5" y="379.6011">CAFETERIA</text><text fill="#000000" font-family="sans-serif" font-size="11" lengthAdjust="spacingAndGlyphs" textLength="92" x="587.5" y="392.4058">CAFETERIA_LATE</text><text fill="#000000" font-family="sans-serif" font-size="11" lengthAdjust="spacingAndGlyphs" textLength="65" x="587.5" y="405.2104">PIZZA_LINE</text><text fill="#000000" font-family="sans-serif" font-size="11" lengthAdjust="spacingAndGlyphs" textLength="107" x="587.5" y="418.0151">PIZZA_LINE_PASTA</text><text fill="#000000" font-family="sans-serif" font-size="11" lengthAdjust="spacingAndGlyphs" textLength="107" x="587.5" y="430.8198">PIZZA_LINE_SALAD</text><line style="stroke: #A80036; stroke-width: 1.5;" x1="582.5" x2="699.5" y1="437.4141" y2="437.4141"/><!--class Ingredients--><rect fill="#FEFECE" filter="url(#f1iksc96cvig7u)" height="60.8047" id="Ingredients" style="stroke: #A80036; stroke-width: 1.5;" width="103" x="376.5" y="768.4531"/><ellipse cx="391.5" cy="784.4531" fill="#EB937F" rx="11" ry="11" style="stroke: #A80036; stroke-width: 1.0;"/><path d="M395.6094,790.4531 L387.8906,790.4531 L387.8906,778.0625 L395.6094,778.0625 L395.6094,780.2188 L390.3438,780.2188 L390.3438,782.8906 L395.1094,782.8906 L395.1094,785.0469 L390.3438,785.0469 L390.3438,788.2969 L395.6094,788.2969 L395.6094,790.4531 Z "/><text fill="#000000" font-family="sans-serif" font-size="12" lengthAdjust="spacingAndGlyphs" textLength="71" x="405.5" y="788.6074">Ingredients</text><line style="stroke: #A80036; stroke-width: 1.5;" x1="377.5" x2="478.5" y1="800.4531" y2="800.4531"/><line style="stroke: #A80036; stroke-width: 1.5;" x1="377.5" x2="478.5" y1="808.4531" y2="808.4531"/><text fill="#000000" font-family="sans-serif" font-size="11" lengthAdjust="spacingAndGlyphs" textLength="76" x="382.5" y="822.6636">(listed below)</text><!--class FoodType--><rect fill="#FEFECE" filter="url(#f1iksc96cvig7u)" height="176.0469" id="FoodType" style="stroke: #A80036; stroke-width: 1.5;" width="104" x="515" y="710.9531"/><ellipse cx="535.4" cy="726.9531" fill="#EB937F" rx="11" ry="11" style="stroke: #A80036; stroke-width: 1.0;"/><path d="M539.5094,732.9531 L531.7906,732.9531 L531.7906,720.5625 L539.5094,720.5625 L539.5094,722.7188 L534.2438,722.7188 L534.2438,725.3906 L539.0094,725.3906 L539.0094,727.5469 L534.2438,727.5469 L534.2438,730.7969 L539.5094,730.7969 L539.5094,732.9531 Z "/><text fill="#000000" font-family="sans-serif" font-size="12" lengthAdjust="spacingAndGlyphs" textLength="60" x="550.6" y="731.1074">FoodType</text><line style="stroke: #A80036; stroke-width: 1.5;" x1="516" x2="618" y1="742.9531" y2="742.9531"/><text fill="#000000" font-family="sans-serif" font-size="11" lengthAdjust="spacingAndGlyphs" textLength="28" x="521" y="757.1636">BEEF</text><text fill="#000000" font-family="sans-serif" font-size="11" lengthAdjust="spacingAndGlyphs" textLength="92" x="521" y="769.9683">REGIONAL_MEAT</text><text fill="#000000" font-family="sans-serif" font-size="11" lengthAdjust="spacingAndGlyphs" textLength="30" x="521" y="782.7729">PORK</text><text fill="#000000" font-family="sans-serif" font-size="11" lengthAdjust="spacingAndGlyphs" textLength="92" x="521" y="795.5776">REGIONAL_PORK</text><text fill="#000000" font-family="sans-serif" font-size="11" lengthAdjust="spacingAndGlyphs" textLength="25" x="521" y="808.3823">FISH</text><text fill="#000000" font-family="sans-serif" font-size="11" lengthAdjust="spacingAndGlyphs" textLength="69" x="521" y="821.187">VEGETARIAN</text><text fill="#000000" font-family="sans-serif" font-size="11" lengthAdjust="spacingAndGlyphs" textLength="38" x="521" y="833.9917">VEGAN</text><text fill="#000000" font-family="sans-serif" font-size="11" lengthAdjust="spacingAndGlyphs" textLength="21" x="521" y="846.7964">LAB</text><text fill="#000000" font-family="sans-serif" font-size="11" lengthAdjust="spacingAndGlyphs" textLength="51" x="521" y="859.6011">ORGANIC</text><text fill="#000000" font-family="sans-serif" font-size="11" lengthAdjust="spacingAndGlyphs" textLength="75" x="521" y="872.4058">MENSA_VITAL</text><line style="stroke: #A80036; stroke-width: 1.5;" x1="516" x2="618" y1="879" y2="879"/><!--class Gender--><rect fill="#FEFECE" filter="url(#f1iksc96cvig7u)" height="86.4141" id="Gender" style="stroke: #A80036; stroke-width: 1.5;" width="78" x="6" y="534.9531"/><ellipse cx="21" cy="550.9531" fill="#EB937F" rx="11" ry="11" style="stroke: #A80036; stroke-width: 1.0;"/><path d="M25.1094,556.9531 L17.3906,556.9531 L17.3906,544.5625 L25.1094,544.5625 L25.1094,546.7188 L19.8438,546.7188 L19.8438,549.3906 L24.6094,549.3906 L24.6094,551.5469 L19.8438,551.5469 L19.8438,554.7969 L25.1094,554.7969 L25.1094,556.9531 Z "/><text fill="#000000" font-family="sans-serif" font-size="12" lengthAdjust="spacingAndGlyphs" textLength="46" x="35" y="555.1074">Gender</text><line style="stroke: #A80036; stroke-width: 1.5;" x1="7" x2="83" y1="566.9531" y2="566.9531"/><text fill="#000000" font-family="sans-serif" font-size="11" lengthAdjust="spacingAndGlyphs" textLength="29" x="12" y="581.1636">MALE</text><text fill="#000000" font-family="sans-serif" font-size="11" lengthAdjust="spacingAndGlyphs" textLength="42" x="12" y="593.9683">FEMALE</text><text fill="#000000" font-family="sans-serif" font-size="11" lengthAdjust="spacingAndGlyphs" textLength="38" x="12" y="606.7729">OTHER</text><line style="stroke: #A80036; stroke-width: 1.5;" x1="7" x2="83" y1="613.3672" y2="613.3672"/><!--class Subject--><rect fill="#FEFECE" filter="url(#f1iksc96cvig7u)" height="60.8047" id="Subject" style="stroke: #A80036; stroke-width: 1.5;" width="88" x="119" y="547.4531"/><ellipse cx="138.05" cy="563.4531" fill="#EB937F" rx="11" ry="11" style="stroke: #A80036; stroke-width: 1.0;"/><path d="M142.1594,569.4531 L134.4406,569.4531 L134.4406,557.0625 L142.1594,557.0625 L142.1594,559.2188 L136.8938,559.2188 L136.8938,561.8906 L141.6594,561.8906 L141.6594,564.0469 L136.8938,564.0469 L136.8938,567.2969 L142.1594,567.2969 L142.1594,569.4531 Z "/><text fill="#000000" font-family="sans-serif" font-size="12" lengthAdjust="spacingAndGlyphs" textLength="47" x="152.95" y="567.6074">Subject</text><line style="stroke: #A80036; stroke-width: 1.5;" x1="120" x2="206" y1="579.4531" y2="579.4531"/><line style="stroke: #A80036; stroke-width: 1.5;" x1="120" x2="206" y1="587.4531" y2="587.4531"/><text fill="#000000" font-family="sans-serif" font-size="11" lengthAdjust="spacingAndGlyphs" textLength="76" x="125" y="601.6636">(listed below)</text><!--class Status--><rect fill="#FEFECE" filter="url(#f1iksc96cvig7u)" height="112.0234" id="Status" style="stroke: #A80036; stroke-width: 1.5;" width="123" x="291.5" y="521.9531"/><ellipse cx="329" cy="537.9531" fill="#EB937F" rx="11" ry="11" style="stroke: #A80036; stroke-width: 1.0;"/><path d="M333.1094,543.9531 L325.3906,543.9531 L325.3906,531.5625 L333.1094,531.5625 L333.1094,533.7188 L327.8438,533.7188 L327.8438,536.3906 L332.6094,536.3906 L332.6094,538.5469 L327.8438,538.5469 L327.8438,541.7969 L333.1094,541.7969 L333.1094,543.9531 Z "/><text fill="#000000" font-family="sans-serif" font-size="12" lengthAdjust="spacingAndGlyphs" textLength="41" x="348" y="542.1074">Status</text><line style="stroke: #A80036; stroke-width: 1.5;" x1="292.5" x2="413.5" y1="553.9531" y2="553.9531"/><text fill="#000000" font-family="sans-serif" font-size="11" lengthAdjust="spacingAndGlyphs" textLength="68" x="297.5" y="568.1636">PROFESSOR</text><text fill="#000000" font-family="sans-serif" font-size="11" lengthAdjust="spacingAndGlyphs" textLength="111" x="297.5" y="580.9683">COLLEGE_STUDENT</text><text fill="#000000" font-family="sans-serif" font-size="11" lengthAdjust="spacingAndGlyphs" textLength="68" x="297.5" y="593.7729">APPRENTICE</text><text fill="#000000" font-family="sans-serif" font-size="11" lengthAdjust="spacingAndGlyphs" textLength="53" x="297.5" y="606.5776">STUDENT</text><text fill="#000000" font-family="sans-serif" font-size="11" lengthAdjust="spacingAndGlyphs" textLength="38" x="297.5" y="619.3823">OTHER</text><line style="stroke: #A80036; stroke-width: 1.5;" x1="292.5" x2="413.5" y1="625.9766" y2="625.9766"/><!--class Credentials--><rect fill="#FEFECE" filter="url(#f1iksc96cvig7u)" height="73.6094" id="Credentials" style="stroke: #A80036; stroke-width: 1.5;" width="119" x="732.5" y="54.4531"/><ellipse cx="754.7" cy="70.4531" fill="#ADD1B2" rx="11" ry="11" style="stroke: #A80036; stroke-width: 1.0;"/><path d="M757.6688,76.0938 Q757.0906,76.3906 756.45,76.5391 Q755.8094,76.6875 755.1063,76.6875 Q752.6063,76.6875 751.2859,75.0391 Q749.9656,73.3906 749.9656,70.2656 Q749.9656,67.1406 751.2859,65.4844 Q752.6063,63.8281 755.1063,63.8281 Q755.8094,63.8281 756.4578,63.9844 Q757.1063,64.1406 757.6688,64.4375 L757.6688,67.1563 Q757.0438,66.5781 756.45,66.3047 Q755.8563,66.0313 755.2313,66.0313 Q753.8875,66.0313 753.2,67.1016 Q752.5125,68.1719 752.5125,70.2656 Q752.5125,72.3594 753.2,73.4297 Q753.8875,74.5 755.2313,74.5 Q755.8563,74.5 756.45,74.2266 Q757.0438,73.9531 757.6688,73.375 L757.6688,76.0938 Z "/><text fill="#000000" font-family="sans-serif" font-size="12" lengthAdjust="spacingAndGlyphs" textLength="71" x="770.3" y="74.6074">Credentials</text><line style="stroke: #A80036; stroke-width: 1.5;" x1="733.5" x2="850.5" y1="86.4531" y2="86.4531"/><rect fill="none" height="6" style="stroke: #C82930; stroke-width: 1.0;" width="6" x="740.5" y="95.3555"/><text fill="#000000" font-family="sans-serif" font-size="11" lengthAdjust="spacingAndGlyphs" textLength="68" x="752.5" y="100.6636">string email</text><rect fill="none" height="6" style="stroke: #C82930; stroke-width: 1.0;" width="6" x="740.5" y="108.1602"/><text fill="#000000" font-family="sans-serif" font-size="11" lengthAdjust="spacingAndGlyphs" textLength="93" x="752.5" y="113.4683">string password</text><line style="stroke: #A80036; stroke-width: 1.5;" x1="733.5" x2="850.5" y1="120.0625" y2="120.0625"/><!--link Group to User--><path d="M163,167.0221 C163,199.3737 163,236.9072 163,268.5478 " fill="none" id="Group-User" style="stroke: #A80036; stroke-width: 1.0;"/><polygon fill="#A80036" points="163,153.9741,159,159.9741,163,165.9741,167,159.9741,163,153.9741" style="stroke: #A80036; stroke-width: 1.0;"/><text fill="#000000" font-family="sans-serif" font-size="13" lengthAdjust="spacingAndGlyphs" textLength="54" x="164" y="197.02">contains</text><text fill="#000000" font-family="sans-serif" font-size="13" lengthAdjust="spacingAndGlyphs" textLength="8" x="154.5625" y="173.7162">1</text><text fill="#000000" font-family="sans-serif" font-size="13" lengthAdjust="spacingAndGlyphs" textLength="7" x="155.6391" y="257.7096">*</text><!--link Line to Meal--><path d="M498,375.5158 C498,420.587 498,495.688 498,540.6455 " fill="none" id="Line-Meal" style="stroke: #A80036; stroke-width: 1.0;"/><polygon fill="#A80036" points="498,362.2863,494,368.2863,498,374.2863,502,368.2863,498,362.2863" style="stroke: #A80036; stroke-width: 1.0;"/><text fill="#000000" font-family="sans-serif" font-size="13" lengthAdjust="spacingAndGlyphs" textLength="36" x="499" y="488.02">offers</text><text fill="#000000" font-family="sans-serif" font-size="13" lengthAdjust="spacingAndGlyphs" textLength="8" x="489.025" y="382.1287">1</text><text fill="#000000" font-family="sans-serif" font-size="13" lengthAdjust="spacingAndGlyphs" textLength="7" x="490.3766" y="529.7777">*</text><!--link MensaData to Line--><path d="M498,128.5449 C498,179.7153 498,270.5319 498,313.7711 " fill="none" id="MensaData-Line" style="stroke: #A80036; stroke-width: 1.0;"/><polygon fill="#A80036" points="498,115.5374,494,121.5374,498,127.5374,502,121.5374,498,115.5374" style="stroke: #A80036; stroke-width: 1.0;"/><text fill="#000000" font-family="sans-serif" font-size="13" lengthAdjust="spacingAndGlyphs" textLength="54" x="499" y="197.02">contains</text><text fill="#000000" font-family="sans-serif" font-size="13" lengthAdjust="spacingAndGlyphs" textLength="8" x="488.975" y="135.7148">1</text><text fill="#000000" font-family="sans-serif" font-size="13" lengthAdjust="spacingAndGlyphs" textLength="7" x="490.1031" y="302.7365">*</text><!--link Preference to MealLine--><path d="M641,141.8045 C641,167.5256 641,199.8586 641,230.8124 " fill="none" id="Preference-MealLine" style="stroke: #A80036; stroke-width: 1.0;"/><polygon fill="#A80036" points="641,128.6235,637,134.6235,641,140.6235,645,134.6235,641,128.6235" style="stroke: #A80036; stroke-width: 1.0;"/><text fill="#000000" font-family="sans-serif" font-size="13" lengthAdjust="spacingAndGlyphs" textLength="54" x="642" y="197.02">contains</text><text fill="#000000" font-family="sans-serif" font-size="13" lengthAdjust="spacingAndGlyphs" textLength="8" x="632.3375" y="148.1323">1</text><text fill="#000000" font-family="sans-serif" font-size="13" lengthAdjust="spacingAndGlyphs" textLength="7" x="633.7539" y="219.8071">*</text><!--link Meal to Ingredients--><path d="M476.6285,627.2519 C471.8335,639.1547 466.9903,651.9156 463,663.9531 C451.3056,699.2313 441.0518,740.74 434.7154,768.3238 " fill="none" id="Meal-Ingredients" style="stroke: #A80036; stroke-width: 1.0;"/><polygon fill="#A80036" points="481.5702,615.2249,475.59,619.2544,477.0094,626.3245,482.9897,622.2949,481.5702,615.2249" style="stroke: #A80036; stroke-width: 1.0;"/><text fill="#000000" font-family="sans-serif" font-size="13" lengthAdjust="spacingAndGlyphs" textLength="54" x="464" y="677.02">contains</text><text fill="#000000" font-family="sans-serif" font-size="13" lengthAdjust="spacingAndGlyphs" textLength="8" x="470.1865" y="634.7505">1</text><text fill="#000000" font-family="sans-serif" font-size="13" lengthAdjust="spacingAndGlyphs" textLength="7" x="428.3786" y="757.5604">*</text><!--link Meal to FoodType--><path d="M513.6303,628.0153 C521.2558,652.4391 530.6577,682.5525 539.435,710.6652 " fill="none" id="Meal-FoodType" style="stroke: #A80036; stroke-width: 1.0;"/><polygon fill="#A80036" points="509.7049,615.4427,507.6749,622.3622,513.2813,626.8974,515.3113,619.9779,509.7049,615.4427" style="stroke: #A80036; stroke-width: 1.0;"/><text fill="#000000" font-family="sans-serif" font-size="13" lengthAdjust="spacingAndGlyphs" textLength="138" x="530" y="677.02">can be described with</text><text fill="#000000" font-family="sans-serif" font-size="13" lengthAdjust="spacingAndGlyphs" textLength="8" x="502.9329" y="634.7215">1</text><text fill="#000000" font-family="sans-serif" font-size="13" lengthAdjust="spacingAndGlyphs" textLength="7" x="529.8624" y="699.8032">*</text><!--link User to Gender--><path d="M123.2239,418.8537 C104.1789,457.5893 82.1336,502.4271 66.3099,534.6109 " fill="none" id="User-Gender" style="stroke: #A80036; stroke-width: 1.0;"/><polygon fill="#A80036" points="129.0278,407.0491,122.7909,410.6687,123.7332,417.8179,129.9701,414.1984,129.0278,407.0491" style="stroke: #A80036; stroke-width: 1.0;"/><text fill="#000000" font-family="sans-serif" font-size="13" lengthAdjust="spacingAndGlyphs" textLength="54" x="95" y="488.02">is of Sex</text><text fill="#000000" font-family="sans-serif" font-size="13" lengthAdjust="spacingAndGlyphs" textLength="8" x="117.2899" y="426.6805">1</text><text fill="#000000" font-family="sans-serif" font-size="13" lengthAdjust="spacingAndGlyphs" textLength="8" x="60.9605" y="523.8711">1</text><!--link User to Subject--><path d="M160.2724,420.3326 C159.8106,443.4991 159.5948,468.7122 160,491.9531 C160.3204,510.3261 161.0254,530.8969 161.6716,547.3121 " fill="none" id="User-Subject" style="stroke: #A80036; stroke-width: 1.0;"/><polygon fill="#A80036" points="160.5609,407.3303,156.4288,413.2401,160.2947,419.3274,164.4268,413.4176,160.5609,407.3303" style="stroke: #A80036; stroke-width: 1.0;"/><text fill="#000000" font-family="sans-serif" font-size="13" lengthAdjust="spacingAndGlyphs" textLength="148" x="161" y="488.02">is working in the field of</text><text fill="#000000" font-family="sans-serif" font-size="13" lengthAdjust="spacingAndGlyphs" textLength="8" x="151.9472" y="426.7484">1</text><text fill="#000000" font-family="sans-serif" font-size="13" lengthAdjust="spacingAndGlyphs" textLength="8" x="152.5726" y="536.5463">1</text><!--link User to Status--><path d="M237.7642,393.4824 C264.6096,416.351 293.3263,444.6021 314,474.9531 C323.6341,489.0969 331.2987,505.9404 337.1933,521.8672 " fill="none" id="User-Status" style="stroke: #A80036; stroke-width: 1.0;"/><polygon fill="#A80036" points="227.5878,384.9882,229.6309,391.9039,236.8003,392.6778,234.7572,385.7622,227.5878,384.9882" style="stroke: #A80036; stroke-width: 1.0;"/><text fill="#000000" font-family="sans-serif" font-size="13" lengthAdjust="spacingAndGlyphs" textLength="76" x="325" y="488.02">has the title</text><text fill="#000000" font-family="sans-serif" font-size="13" lengthAdjust="spacingAndGlyphs" textLength="8" x="235.5183" y="386.6553">1</text><text fill="#000000" font-family="sans-serif" font-size="13" lengthAdjust="spacingAndGlyphs" textLength="8" x="326.6556" y="510.7942">1</text><!--
@startuml
title Server Models - Class Diagramm

Group "1" *- - "*" User : contains
Line "1" *- - "*" Meal : offers
MensaData "1" *- - "*" Line : contains 
Preference "1" *- - "*" MealLine : contains
Meal "1" *- - "*" Ingredients : contains
Meal "1" *- - "*" FoodType : can be described with
User "1" *- - "1" Gender : is of Sex
User "1" *- - "1" Subject : is working in the field of 
User "1" *- - "1" Status : has the title 

class Credentials {
  -string email
  -string password
}

class User {
  -string token
  -String motto
  -Date birthDate
  -Sex gender
  -Subject subject
  -Status status
  -int profilePictureId
}
 
class Group {
  -string id
  -string name
  -string motto
  -int maxMembers
  -string line
  -DateTime meetingDate
}

class Meal {
  -String name
  -float price
}

class Line {
}

class MensaData {
}

class Preference {
  -Time startTime
  -Time endTime
}

enum MealLine {
  LINE_ONE
  LINE_TWO
  LINE_THREE
  LINE_FOUR_FIVE
  CUTLET_BAR
  LINE_SIX
  LATE_LINE
  CURRY_LINE
  CAFETERIA
  CAFETERIA_LATE
  PIZZA_LINE
  PIZZA_LINE_PASTA
  PIZZA_LINE_SALAD
}

enum Ingredients {
  (listed below)
}

enum Gender {
  MALE
  FEMALE
  OTHER
}

enum Status {
  PROFESSOR
  COLLEGE_STUDENT
  APPRENTICE
  STUDENT
  OTHER 
}

enum FoodType {
  BEEF
  REGIONAL_MEAT
  PORK
  REGIONAL_PORK
  FISH
  VEGETARIAN
  VEGAN
  LAB
  ORGANIC
  MENSA_VITAL
}

enum Subject {
  (listed below)
}
@enduml

PlantUML version 1.2019.04(Fri Mar 29 15:44:36 UTC 2019)
(GPL source distribution)
Java Runtime: OpenJDK Runtime Environment
JVM: OpenJDK 64-Bit Server VM
Java Version: 1.8.0_201-heroku-b09
Operating System: Linux
OS Version: 4.4.0-1046-aws
Default Encoding: UTF-8
Language: en
Country: US
--></g></svg>