<?xml version="1.0" encoding="UTF-8" standalone="no"?><svg xmlns="http://www.w3.org/2000/svg" xmlns:xlink="http://www.w3.org/1999/xlink" contentScriptType="application/ecmascript" contentStyleType="text/css" height="272px" preserveAspectRatio="none" style="width:935px;height:272px;" version="1.1" viewBox="0 0 935 272" width="935px" zoomAndPan="magnify"><defs><filter height="300%" id="fvzxh5l9lgk8h" width="300%" x="-1" y="-1"><feGaussianBlur result="blurOut" stdDeviation="2.0"/><feColorMatrix in="blurOut" result="blurOut2" type="matrix" values="0 0 0 0 0 0 0 0 0 0 0 0 0 0 0 0 0 0 .4 0"/><feOffset dx="4.0" dy="4.0" in="blurOut2" result="blurOut3"/><feBlend in="SourceGraphic" in2="blurOut3" mode="normal"/></filter></defs><g><text fill="#000000" font-family="sans-serif" font-size="18" lengthAdjust="spacingAndGlyphs" textLength="300" x="321.5" y="16.708">Server Controller - Class Diagram</text><!--class MensaLineDataController--><rect fill="#FEFECE" filter="url(#fvzxh5l9lgk8h)" height="73.6094" id="MensaLineDataController" style="stroke: #A80036; stroke-width: 1.5;" width="189" x="115" y="41.4531"/><ellipse cx="130" cy="57.4531" fill="#ADD1B2" rx="11" ry="11" style="stroke: #A80036; stroke-width: 1.0;"/><path d="M132.3438,53.125 L132.5156,53.2031 C132.7344,52.8906 132.9375,52.7969 133.2344,52.7969 C133.5313,52.7969 133.8125,52.9375 133.9688,53.2031 C134.0625,53.3594 134.0781,53.4844 134.0781,53.9219 L134.0781,55.3438 C134.0781,55.7656 134.0469,55.9531 133.9375,56.1094 C133.7656,56.3281 133.5,56.4688 133.2344,56.4688 C133.0156,56.4688 132.7813,56.3594 132.6406,56.2188 C132.5,56.0938 132.4688,55.9688 132.4063,55.5625 C132.3125,55.1563 132.1406,54.9375 131.6563,54.6563 C131.1875,54.4063 130.5781,54.25 130,54.25 C128.2656,54.25 127.0156,55.5625 127.0156,57.3438 L127.0156,58.4375 C127.0156,60.1406 128.3125,61.2344 130.3594,61.2344 C131.125,61.2344 131.8125,61.1094 132.2344,60.8438 C132.4219,60.75 132.4219,60.75 132.875,60.2656 C133.0625,60.0781 133.2656,60 133.4844,60 C133.9531,60 134.3438,60.3906 134.3438,60.8438 C134.3438,61.2344 134.0156,61.6875 133.4375,62.0938 C132.6875,62.6406 131.5313,62.9375 130.3125,62.9375 C127.4219,62.9375 125.3125,61.0469 125.3125,58.4688 L125.3125,57.3438 C125.3125,54.625 127.3125,52.5469 129.9375,52.5469 C130.8125,52.5469 131.4063,52.6875 132.3438,53.125 Z "/><text fill="#000000" font-family="sans-serif" font-size="12" lengthAdjust="spacingAndGlyphs" textLength="157" x="144" y="61.6074">MensaLineDataController</text><line style="stroke: #A80036; stroke-width: 1.5;" x1="116" x2="303" y1="73.4531" y2="73.4531"/><line style="stroke: #A80036; stroke-width: 1.5;" x1="116" x2="303" y1="81.4531" y2="81.4531"/><ellipse cx="126" cy="93.3555" fill="#84BE84" rx="3" ry="3" style="stroke: #038048; stroke-width: 1.0;"/><text fill="#000000" font-family="sans-serif" font-size="11" lengthAdjust="spacingAndGlyphs" textLength="136" x="135" y="95.6636">LineData[] getLineData()</text><ellipse cx="126" cy="106.1602" fill="#84BE84" rx="3" ry="3" style="stroke: #038048; stroke-width: 1.0;"/><text fill="#000000" font-family="sans-serif" font-size="11" lengthAdjust="spacingAndGlyphs" textLength="123" x="135" y="108.4683">void updateLineData()</text><!--class UserController--><rect fill="#FEFECE" filter="url(#fvzxh5l9lgk8h)" height="99.2188" id="UserController" style="stroke: #A80036; stroke-width: 1.5;" width="230" x="339.5" y="28.9531"/><ellipse cx="405.25" cy="44.9531" fill="#ADD1B2" rx="11" ry="11" style="stroke: #A80036; stroke-width: 1.0;"/><path d="M407.5938,40.625 L407.7656,40.7031 C407.9844,40.3906 408.1875,40.2969 408.4844,40.2969 C408.7813,40.2969 409.0625,40.4375 409.2188,40.7031 C409.3125,40.8594 409.3281,40.9844 409.3281,41.4219 L409.3281,42.8438 C409.3281,43.2656 409.2969,43.4531 409.1875,43.6094 C409.0156,43.8281 408.75,43.9688 408.4844,43.9688 C408.2656,43.9688 408.0313,43.8594 407.8906,43.7188 C407.75,43.5938 407.7188,43.4688 407.6563,43.0625 C407.5625,42.6563 407.3906,42.4375 406.9063,42.1563 C406.4375,41.9063 405.8281,41.75 405.25,41.75 C403.5156,41.75 402.2656,43.0625 402.2656,44.8438 L402.2656,45.9375 C402.2656,47.6406 403.5625,48.7344 405.6094,48.7344 C406.375,48.7344 407.0625,48.6094 407.4844,48.3438 C407.6719,48.25 407.6719,48.25 408.125,47.7656 C408.3125,47.5781 408.5156,47.5 408.7344,47.5 C409.2031,47.5 409.5938,47.8906 409.5938,48.3438 C409.5938,48.7344 409.2656,49.1875 408.6875,49.5938 C407.9375,50.1406 406.7813,50.4375 405.5625,50.4375 C402.6719,50.4375 400.5625,48.5469 400.5625,45.9688 L400.5625,44.8438 C400.5625,42.125 402.5625,40.0469 405.1875,40.0469 C406.0625,40.0469 406.6563,40.1875 407.5938,40.625 Z "/><text fill="#000000" font-family="sans-serif" font-size="12" lengthAdjust="spacingAndGlyphs" textLength="90" x="425.75" y="49.1074">UserController</text><line style="stroke: #A80036; stroke-width: 1.5;" x1="340.5" x2="568.5" y1="60.9531" y2="60.9531"/><line style="stroke: #A80036; stroke-width: 1.5;" x1="340.5" x2="568.5" y1="68.9531" y2="68.9531"/><ellipse cx="350.5" cy="80.8555" fill="#84BE84" rx="3" ry="3" style="stroke: #038048; stroke-width: 1.0;"/><text fill="#000000" font-family="sans-serif" font-size="11" lengthAdjust="spacingAndGlyphs" textLength="182" x="359.5" y="83.1636">User getUser(String userToken)</text><ellipse cx="350.5" cy="93.6602" fill="#84BE84" rx="3" ry="3" style="stroke: #038048; stroke-width: 1.0;"/><text fill="#000000" font-family="sans-serif" font-size="11" lengthAdjust="spacingAndGlyphs" textLength="144" x="359.5" y="95.9683">User addUser(User user)</text><ellipse cx="350.5" cy="106.4648" fill="#84BE84" rx="3" ry="3" style="stroke: #038048; stroke-width: 1.0;"/><text fill="#000000" font-family="sans-serif" font-size="11" lengthAdjust="spacingAndGlyphs" textLength="204" x="359.5" y="108.7729">bool removeUser(String userToken)</text><ellipse cx="350.5" cy="119.2695" fill="#84BE84" rx="3" ry="3" style="stroke: #038048; stroke-width: 1.0;"/><text fill="#000000" font-family="sans-serif" font-size="11" lengthAdjust="spacingAndGlyphs" textLength="159" x="359.5" y="121.5776">bool updateUser(User user)</text><!--class GroupController--><rect fill="#FEFECE" filter="url(#fvzxh5l9lgk8h)" height="99.2188" id="GroupController" style="stroke: #A80036; stroke-width: 1.5;" width="320" x="604.5" y="28.9531"/><ellipse cx="710.75" cy="44.9531" fill="#ADD1B2" rx="11" ry="11" style="stroke: #A80036; stroke-width: 1.0;"/><path d="M713.0938,40.625 L713.2656,40.7031 C713.4844,40.3906 713.6875,40.2969 713.9844,40.2969 C714.2813,40.2969 714.5625,40.4375 714.7188,40.7031 C714.8125,40.8594 714.8281,40.9844 714.8281,41.4219 L714.8281,42.8438 C714.8281,43.2656 714.7969,43.4531 714.6875,43.6094 C714.5156,43.8281 714.25,43.9688 713.9844,43.9688 C713.7656,43.9688 713.5313,43.8594 713.3906,43.7188 C713.25,43.5938 713.2188,43.4688 713.1563,43.0625 C713.0625,42.6563 712.8906,42.4375 712.4063,42.1563 C711.9375,41.9063 711.3281,41.75 710.75,41.75 C709.0156,41.75 707.7656,43.0625 707.7656,44.8438 L707.7656,45.9375 C707.7656,47.6406 709.0625,48.7344 711.1094,48.7344 C711.875,48.7344 712.5625,48.6094 712.9844,48.3438 C713.1719,48.25 713.1719,48.25 713.625,47.7656 C713.8125,47.5781 714.0156,47.5 714.2344,47.5 C714.7031,47.5 715.0938,47.8906 715.0938,48.3438 C715.0938,48.7344 714.7656,49.1875 714.1875,49.5938 C713.4375,50.1406 712.2813,50.4375 711.0625,50.4375 C708.1719,50.4375 706.0625,48.5469 706.0625,45.9688 L706.0625,44.8438 C706.0625,42.125 708.0625,40.0469 710.6875,40.0469 C711.5625,40.0469 712.1563,40.1875 713.0938,40.625 Z "/><text fill="#000000" font-family="sans-serif" font-size="12" lengthAdjust="spacingAndGlyphs" textLength="99" x="731.25" y="49.1074">GroupController</text><line style="stroke: #A80036; stroke-width: 1.5;" x1="605.5" x2="923.5" y1="60.9531" y2="60.9531"/><line style="stroke: #A80036; stroke-width: 1.5;" x1="605.5" x2="923.5" y1="68.9531" y2="68.9531"/><ellipse cx="615.5" cy="80.8555" fill="#84BE84" rx="3" ry="3" style="stroke: #038048; stroke-width: 1.0;"/><text fill="#000000" font-family="sans-serif" font-size="11" lengthAdjust="spacingAndGlyphs" textLength="205" x="624.5" y="83.1636">Group getGroup(String groupToken)</text><ellipse cx="615.5" cy="93.6602" fill="#84BE84" rx="3" ry="3" style="stroke: #038048; stroke-width: 1.0;"/><text fill="#000000" font-family="sans-serif" font-size="11" lengthAdjust="spacingAndGlyphs" textLength="175" x="624.5" y="95.9683">Group addGroup(Group group)</text><ellipse cx="615.5" cy="106.4648" fill="#84BE84" rx="3" ry="3" style="stroke: #038048; stroke-width: 1.0;"/><text fill="#000000" font-family="sans-serif" font-size="11" lengthAdjust="spacingAndGlyphs" textLength="294" x="624.5" y="108.7729">Group[] getGroupByPreferences(Preferences prefs)</text><ellipse cx="615.5" cy="119.2695" fill="#84BE84" rx="3" ry="3" style="stroke: #038048; stroke-width: 1.0;"/><text fill="#000000" font-family="sans-serif" font-size="11" lengthAdjust="spacingAndGlyphs" textLength="219" x="624.5" y="121.5776">bool removeGroup(String groupToken)</text><!--class MembershipController--><rect fill="#FEFECE" filter="url(#fvzxh5l9lgk8h)" height="73.6094" id="MembershipController" style="stroke: #A80036; stroke-width: 1.5;" width="407" x="6" y="187.9531"/><ellipse cx="136.75" cy="203.9531" fill="#ADD1B2" rx="11" ry="11" style="stroke: #A80036; stroke-width: 1.0;"/><path d="M139.0938,199.625 L139.2656,199.7031 C139.4844,199.3906 139.6875,199.2969 139.9844,199.2969 C140.2813,199.2969 140.5625,199.4375 140.7188,199.7031 C140.8125,199.8594 140.8281,199.9844 140.8281,200.4219 L140.8281,201.8438 C140.8281,202.2656 140.7969,202.4531 140.6875,202.6094 C140.5156,202.8281 140.25,202.9688 139.9844,202.9688 C139.7656,202.9688 139.5313,202.8594 139.3906,202.7188 C139.25,202.5938 139.2188,202.4688 139.1563,202.0625 C139.0625,201.6563 138.8906,201.4375 138.4063,201.1563 C137.9375,200.9063 137.3281,200.75 136.75,200.75 C135.0156,200.75 133.7656,202.0625 133.7656,203.8438 L133.7656,204.9375 C133.7656,206.6406 135.0625,207.7344 137.1094,207.7344 C137.875,207.7344 138.5625,207.6094 138.9844,207.3438 C139.1719,207.25 139.1719,207.25 139.625,206.7656 C139.8125,206.5781 140.0156,206.5 140.2344,206.5 C140.7031,206.5 141.0938,206.8906 141.0938,207.3438 C141.0938,207.7344 140.7656,208.1875 140.1875,208.5938 C139.4375,209.1406 138.2813,209.4375 137.0625,209.4375 C134.1719,209.4375 132.0625,207.5469 132.0625,204.9688 L132.0625,203.8438 C132.0625,201.125 134.0625,199.0469 136.6875,199.0469 C137.5625,199.0469 138.1563,199.1875 139.0938,199.625 Z "/><text fill="#000000" font-family="sans-serif" font-size="12" lengthAdjust="spacingAndGlyphs" textLength="137" x="157.25" y="208.1074">MembershipController</text><line style="stroke: #A80036; stroke-width: 1.5;" x1="7" x2="412" y1="219.9531" y2="219.9531"/><line style="stroke: #A80036; stroke-width: 1.5;" x1="7" x2="412" y1="227.9531" y2="227.9531"/><ellipse cx="17" cy="239.8555" fill="#84BE84" rx="3" ry="3" style="stroke: #038048; stroke-width: 1.0;"/><text fill="#000000" font-family="sans-serif" font-size="11" lengthAdjust="spacingAndGlyphs" textLength="345" x="26" y="242.1636">bool addUserToGroup(String UserToken, String groupToken)</text><ellipse cx="17" cy="252.6602" fill="#84BE84" rx="3" ry="3" style="stroke: #038048; stroke-width: 1.0;"/><text fill="#000000" font-family="sans-serif" font-size="11" lengthAdjust="spacingAndGlyphs" textLength="381" x="26" y="254.9683">bool removeUserFromGroup(String userToken, String groupToken)</text><!--class AuthenticationController--><rect fill="#FEFECE" filter="url(#fvzxh5l9lgk8h)" height="73.6094" id="AuthenticationController" style="stroke: #A80036; stroke-width: 1.5;" width="211" x="448" y="187.9531"/><ellipse cx="474.7" cy="203.9531" fill="#ADD1B2" rx="11" ry="11" style="stroke: #A80036; stroke-width: 1.0;"/><path d="M477.0438,199.625 L477.2156,199.7031 C477.4344,199.3906 477.6375,199.2969 477.9344,199.2969 C478.2313,199.2969 478.5125,199.4375 478.6688,199.7031 C478.7625,199.8594 478.7781,199.9844 478.7781,200.4219 L478.7781,201.8438 C478.7781,202.2656 478.7469,202.4531 478.6375,202.6094 C478.4656,202.8281 478.2,202.9688 477.9344,202.9688 C477.7156,202.9688 477.4813,202.8594 477.3406,202.7188 C477.2,202.5938 477.1688,202.4688 477.1063,202.0625 C477.0125,201.6563 476.8406,201.4375 476.3563,201.1563 C475.8875,200.9063 475.2781,200.75 474.7,200.75 C472.9656,200.75 471.7156,202.0625 471.7156,203.8438 L471.7156,204.9375 C471.7156,206.6406 473.0125,207.7344 475.0594,207.7344 C475.825,207.7344 476.5125,207.6094 476.9344,207.3438 C477.1219,207.25 477.1219,207.25 477.575,206.7656 C477.7625,206.5781 477.9656,206.5 478.1844,206.5 C478.6531,206.5 479.0438,206.8906 479.0438,207.3438 C479.0438,207.7344 478.7156,208.1875 478.1375,208.5938 C477.3875,209.1406 476.2313,209.4375 475.0125,209.4375 C472.1219,209.4375 470.0125,207.5469 470.0125,204.9688 L470.0125,203.8438 C470.0125,201.125 472.0125,199.0469 474.6375,199.0469 C475.5125,199.0469 476.1063,199.1875 477.0438,199.625 Z "/><text fill="#000000" font-family="sans-serif" font-size="12" lengthAdjust="spacingAndGlyphs" textLength="153" x="491.3" y="208.1074">AuthenticationController</text><line style="stroke: #A80036; stroke-width: 1.5;" x1="449" x2="658" y1="219.9531" y2="219.9531"/><line style="stroke: #A80036; stroke-width: 1.5;" x1="449" x2="658" y1="227.9531" y2="227.9531"/><ellipse cx="459" cy="239.8555" fill="#84BE84" rx="3" ry="3" style="stroke: #038048; stroke-width: 1.0;"/><text fill="#000000" font-family="sans-serif" font-size="11" lengthAdjust="spacingAndGlyphs" textLength="185" x="468" y="242.1636">User register(Credentials creds)</text><ellipse cx="459" cy="252.6602" fill="#84BE84" rx="3" ry="3" style="stroke: #038048; stroke-width: 1.0;"/><text fill="#000000" font-family="sans-serif" font-size="11" lengthAdjust="spacingAndGlyphs" textLength="167" x="468" y="254.9683">User login(Credentials creds)</text><!--class TimeController--><rect fill="#FEFECE" filter="url(#fvzxh5l9lgk8h)" height="73.6094" id="TimeController" style="stroke: #A80036; stroke-width: 1.5;" width="170" x="694.5" y="187.9531"/><ellipse cx="731.1" cy="203.9531" fill="#ADD1B2" rx="11" ry="11" style="stroke: #A80036; stroke-width: 1.0;"/><path d="M733.4438,199.625 L733.6156,199.7031 C733.8344,199.3906 734.0375,199.2969 734.3344,199.2969 C734.6313,199.2969 734.9125,199.4375 735.0688,199.7031 C735.1625,199.8594 735.1781,199.9844 735.1781,200.4219 L735.1781,201.8438 C735.1781,202.2656 735.1469,202.4531 735.0375,202.6094 C734.8656,202.8281 734.6,202.9688 734.3344,202.9688 C734.1156,202.9688 733.8813,202.8594 733.7406,202.7188 C733.6,202.5938 733.5688,202.4688 733.5063,202.0625 C733.4125,201.6563 733.2406,201.4375 732.7563,201.1563 C732.2875,200.9063 731.6781,200.75 731.1,200.75 C729.3656,200.75 728.1156,202.0625 728.1156,203.8438 L728.1156,204.9375 C728.1156,206.6406 729.4125,207.7344 731.4594,207.7344 C732.225,207.7344 732.9125,207.6094 733.3344,207.3438 C733.5219,207.25 733.5219,207.25 733.975,206.7656 C734.1625,206.5781 734.3656,206.5 734.5844,206.5 C735.0531,206.5 735.4438,206.8906 735.4438,207.3438 C735.4438,207.7344 735.1156,208.1875 734.5375,208.5938 C733.7875,209.1406 732.6313,209.4375 731.4125,209.4375 C728.5219,209.4375 726.4125,207.5469 726.4125,204.9688 L726.4125,203.8438 C726.4125,201.125 728.4125,199.0469 731.0375,199.0469 C731.9125,199.0469 732.5063,199.1875 733.4438,199.625 Z "/><text fill="#000000" font-family="sans-serif" font-size="12" lengthAdjust="spacingAndGlyphs" textLength="90" x="749.9" y="208.1074">TimeController</text><line style="stroke: #A80036; stroke-width: 1.5;" x1="695.5" x2="863.5" y1="219.9531" y2="219.9531"/><line style="stroke: #A80036; stroke-width: 1.5;" x1="695.5" x2="863.5" y1="227.9531" y2="227.9531"/><ellipse cx="705.5" cy="239.8555" fill="#84BE84" rx="3" ry="3" style="stroke: #038048; stroke-width: 1.0;"/><text fill="#000000" font-family="sans-serif" font-size="11" lengthAdjust="spacingAndGlyphs" textLength="125" x="714.5" y="242.1636">void deleteAllGroups()</text><ellipse cx="705.5" cy="252.6602" fill="#84BE84" rx="3" ry="3" style="stroke: #038048; stroke-width: 1.0;"/><text fill="#000000" font-family="sans-serif" font-size="11" lengthAdjust="spacingAndGlyphs" textLength="144" x="714.5" y="254.9683">bool startMensaCrawler()</text><!--link MensaLineDataController to UserController--><!--link UserController to GroupController--><!--link MensaLineDataController to MembershipController--><!--link MembershipController to AuthenticationController--><!--link AuthenticationController to TimeController--><!--
@startuml
title Server Controller - Class Diagram

class MensaLineDataController {
  +LineData[] getLineData()
  +void updateLineData()
}

class UserController {
  +User getUser(String userToken)
  +User addUser(User user)
  +bool removeUser(String userToken)
  +bool updateUser(User user)
}

class GroupController {
  +Group getGroup(String groupToken)
  +Group addGroup(Group group)
  +Group[] getGroupByPreferences(Preferences prefs)
  +bool removeGroup(String groupToken)
}

class MembershipController {
  +bool addUserToGroup(String UserToken, String groupToken)
  +bool removeUserFromGroup(String userToken, String groupToken)
}

class AuthenticationController {
  +User register(Credentials creds)
  +User login(Credentials creds)
}

class TimeController {
  +void deleteAllGroups()
  +bool startMensaCrawler()
}
@enduml

PlantUML version 1.2019.07(Mon Jun 24 19:59:20 UTC 2019)
(GPL source distribution)
Java Runtime: Java(TM) SE Runtime Environment
JVM: Java HotSpot(TM) 64-Bit Server VM
Java Version: 1.7.0_25-b15
Operating System: Linux
Default Encoding: UTF-8
Language: en
Country: US
--></g></svg>