<?xml version="1.0" encoding="UTF-8" standalone="no"?><svg xmlns="http://www.w3.org/2000/svg" xmlns:xlink="http://www.w3.org/1999/xlink" contentScriptType="application/ecmascript" contentStyleType="text/css" height="272px" preserveAspectRatio="none" style="width:889px;height:272px;" version="1.1" viewBox="0 0 889 272" width="889px" zoomAndPan="magnify"><defs><filter height="300%" id="f1gvfbumh1jc4x" width="300%" x="-1" y="-1"><feGaussianBlur result="blurOut" stdDeviation="2.0"/><feColorMatrix in="blurOut" result="blurOut2" type="matrix" values="0 0 0 0 0 0 0 0 0 0 0 0 0 0 0 0 0 0 .4 0"/><feOffset dx="4.0" dy="4.0" in="blurOut2" result="blurOut3"/><feBlend in="SourceGraphic" in2="blurOut3" mode="normal"/></filter></defs><g><text fill="#000000" font-family="sans-serif" font-size="18" lengthAdjust="spacingAndGlyphs" textLength="300" x="298.5" y="16.708">Server Controller - Class Diagram</text><!--class MensaLineDataController--><rect fill="#FEFECE" filter="url(#f1gvfbumh1jc4x)" height="73.6094" id="MensaLineDataController" style="stroke: #A80036; stroke-width: 1.5;" width="189" x="91" y="41.4531"/><ellipse cx="106" cy="57.4531" fill="#ADD1B2" rx="11" ry="11" style="stroke: #A80036; stroke-width: 1.0;"/><path d="M108.3438,53.125 L108.5156,53.2031 C108.7344,52.8906 108.9375,52.7969 109.2344,52.7969 C109.5313,52.7969 109.8125,52.9375 109.9688,53.2031 C110.0625,53.3594 110.0781,53.4844 110.0781,53.9219 L110.0781,55.3438 C110.0781,55.7656 110.0469,55.9531 109.9375,56.1094 C109.7656,56.3281 109.5,56.4688 109.2344,56.4688 C109.0156,56.4688 108.7813,56.3594 108.6406,56.2188 C108.5,56.0938 108.4688,55.9688 108.4063,55.5625 C108.3125,55.1563 108.1406,54.9375 107.6563,54.6563 C107.1875,54.4063 106.5781,54.25 106,54.25 C104.2656,54.25 103.0156,55.5625 103.0156,57.3438 L103.0156,58.4375 C103.0156,60.1406 104.3125,61.2344 106.3594,61.2344 C107.125,61.2344 107.8125,61.1094 108.2344,60.8438 C108.4219,60.75 108.4219,60.75 108.875,60.2656 C109.0625,60.0781 109.2656,60 109.4844,60 C109.9531,60 110.3438,60.3906 110.3438,60.8438 C110.3438,61.2344 110.0156,61.6875 109.4375,62.0938 C108.6875,62.6406 107.5313,62.9375 106.3125,62.9375 C103.4219,62.9375 101.3125,61.0469 101.3125,58.4688 L101.3125,57.3438 C101.3125,54.625 103.3125,52.5469 105.9375,52.5469 C106.8125,52.5469 107.4063,52.6875 108.3438,53.125 Z "/><text fill="#000000" font-family="sans-serif" font-size="12" lengthAdjust="spacingAndGlyphs" textLength="157" x="120" y="61.6074">MensaLineDataController</text><line style="stroke: #A80036; stroke-width: 1.5;" x1="92" x2="279" y1="73.4531" y2="73.4531"/><line style="stroke: #A80036; stroke-width: 1.5;" x1="92" x2="279" y1="81.4531" y2="81.4531"/><ellipse cx="102" cy="93.3555" fill="#84BE84" rx="3" ry="3" style="stroke: #038048; stroke-width: 1.0;"/><text fill="#000000" font-family="sans-serif" font-size="11" lengthAdjust="spacingAndGlyphs" textLength="136" x="111" y="95.6636">LineData[] getLineData()</text><ellipse cx="102" cy="106.1602" fill="#84BE84" rx="3" ry="3" style="stroke: #038048; stroke-width: 1.0;"/><text fill="#000000" font-family="sans-serif" font-size="11" lengthAdjust="spacingAndGlyphs" textLength="123" x="111" y="108.4683">void updateLineData()</text><!--class UserController--><rect fill="#FEFECE" filter="url(#f1gvfbumh1jc4x)" height="99.2188" id="UserController" style="stroke: #A80036; stroke-width: 1.5;" width="208" x="315.5" y="28.9531"/><ellipse cx="370.25" cy="44.9531" fill="#ADD1B2" rx="11" ry="11" style="stroke: #A80036; stroke-width: 1.0;"/><path d="M372.5938,40.625 L372.7656,40.7031 C372.9844,40.3906 373.1875,40.2969 373.4844,40.2969 C373.7813,40.2969 374.0625,40.4375 374.2188,40.7031 C374.3125,40.8594 374.3281,40.9844 374.3281,41.4219 L374.3281,42.8438 C374.3281,43.2656 374.2969,43.4531 374.1875,43.6094 C374.0156,43.8281 373.75,43.9688 373.4844,43.9688 C373.2656,43.9688 373.0313,43.8594 372.8906,43.7188 C372.75,43.5938 372.7188,43.4688 372.6563,43.0625 C372.5625,42.6563 372.3906,42.4375 371.9063,42.1563 C371.4375,41.9063 370.8281,41.75 370.25,41.75 C368.5156,41.75 367.2656,43.0625 367.2656,44.8438 L367.2656,45.9375 C367.2656,47.6406 368.5625,48.7344 370.6094,48.7344 C371.375,48.7344 372.0625,48.6094 372.4844,48.3438 C372.6719,48.25 372.6719,48.25 373.125,47.7656 C373.3125,47.5781 373.5156,47.5 373.7344,47.5 C374.2031,47.5 374.5938,47.8906 374.5938,48.3438 C374.5938,48.7344 374.2656,49.1875 373.6875,49.5938 C372.9375,50.1406 371.7813,50.4375 370.5625,50.4375 C367.6719,50.4375 365.5625,48.5469 365.5625,45.9688 L365.5625,44.8438 C365.5625,42.125 367.5625,40.0469 370.1875,40.0469 C371.0625,40.0469 371.6563,40.1875 372.5938,40.625 Z "/><text fill="#000000" font-family="sans-serif" font-size="12" lengthAdjust="spacingAndGlyphs" textLength="90" x="390.75" y="49.1074">UserController</text><line style="stroke: #A80036; stroke-width: 1.5;" x1="316.5" x2="522.5" y1="60.9531" y2="60.9531"/><line style="stroke: #A80036; stroke-width: 1.5;" x1="316.5" x2="522.5" y1="68.9531" y2="68.9531"/><ellipse cx="326.5" cy="80.8555" fill="#84BE84" rx="3" ry="3" style="stroke: #038048; stroke-width: 1.0;"/><text fill="#000000" font-family="sans-serif" font-size="11" lengthAdjust="spacingAndGlyphs" textLength="182" x="335.5" y="83.1636">User getUserById(String userId)</text><ellipse cx="326.5" cy="93.6602" fill="#84BE84" rx="3" ry="3" style="stroke: #038048; stroke-width: 1.0;"/><text fill="#000000" font-family="sans-serif" font-size="11" lengthAdjust="spacingAndGlyphs" textLength="144" x="335.5" y="95.9683">User addUser(User user)</text><ellipse cx="326.5" cy="106.4648" fill="#84BE84" rx="3" ry="3" style="stroke: #038048; stroke-width: 1.0;"/><text fill="#000000" font-family="sans-serif" font-size="11" lengthAdjust="spacingAndGlyphs" textLength="180" x="335.5" y="108.7729">bool removeUser(String userId)</text><ellipse cx="326.5" cy="119.2695" fill="#84BE84" rx="3" ry="3" style="stroke: #038048; stroke-width: 1.0;"/><text fill="#000000" font-family="sans-serif" font-size="11" lengthAdjust="spacingAndGlyphs" textLength="159" x="335.5" y="121.5776">bool updateUser(User user)</text><!--class GroupController--><rect fill="#FEFECE" filter="url(#f1gvfbumh1jc4x)" height="99.2188" id="GroupController" style="stroke: #A80036; stroke-width: 1.5;" width="320" x="558.5" y="28.9531"/><ellipse cx="664.75" cy="44.9531" fill="#ADD1B2" rx="11" ry="11" style="stroke: #A80036; stroke-width: 1.0;"/><path d="M667.0938,40.625 L667.2656,40.7031 C667.4844,40.3906 667.6875,40.2969 667.9844,40.2969 C668.2813,40.2969 668.5625,40.4375 668.7188,40.7031 C668.8125,40.8594 668.8281,40.9844 668.8281,41.4219 L668.8281,42.8438 C668.8281,43.2656 668.7969,43.4531 668.6875,43.6094 C668.5156,43.8281 668.25,43.9688 667.9844,43.9688 C667.7656,43.9688 667.5313,43.8594 667.3906,43.7188 C667.25,43.5938 667.2188,43.4688 667.1563,43.0625 C667.0625,42.6563 666.8906,42.4375 666.4063,42.1563 C665.9375,41.9063 665.3281,41.75 664.75,41.75 C663.0156,41.75 661.7656,43.0625 661.7656,44.8438 L661.7656,45.9375 C661.7656,47.6406 663.0625,48.7344 665.1094,48.7344 C665.875,48.7344 666.5625,48.6094 666.9844,48.3438 C667.1719,48.25 667.1719,48.25 667.625,47.7656 C667.8125,47.5781 668.0156,47.5 668.2344,47.5 C668.7031,47.5 669.0938,47.8906 669.0938,48.3438 C669.0938,48.7344 668.7656,49.1875 668.1875,49.5938 C667.4375,50.1406 666.2813,50.4375 665.0625,50.4375 C662.1719,50.4375 660.0625,48.5469 660.0625,45.9688 L660.0625,44.8438 C660.0625,42.125 662.0625,40.0469 664.6875,40.0469 C665.5625,40.0469 666.1563,40.1875 667.0938,40.625 Z "/><text fill="#000000" font-family="sans-serif" font-size="12" lengthAdjust="spacingAndGlyphs" textLength="99" x="685.25" y="49.1074">GroupController</text><line style="stroke: #A80036; stroke-width: 1.5;" x1="559.5" x2="877.5" y1="60.9531" y2="60.9531"/><line style="stroke: #A80036; stroke-width: 1.5;" x1="559.5" x2="877.5" y1="68.9531" y2="68.9531"/><ellipse cx="569.5" cy="80.8555" fill="#84BE84" rx="3" ry="3" style="stroke: #038048; stroke-width: 1.0;"/><text fill="#000000" font-family="sans-serif" font-size="11" lengthAdjust="spacingAndGlyphs" textLength="205" x="578.5" y="83.1636">Group getGroupById(String groupId)</text><ellipse cx="569.5" cy="93.6602" fill="#84BE84" rx="3" ry="3" style="stroke: #038048; stroke-width: 1.0;"/><text fill="#000000" font-family="sans-serif" font-size="11" lengthAdjust="spacingAndGlyphs" textLength="175" x="578.5" y="95.9683">Group addGroup(Group group)</text><ellipse cx="569.5" cy="106.4648" fill="#84BE84" rx="3" ry="3" style="stroke: #038048; stroke-width: 1.0;"/><text fill="#000000" font-family="sans-serif" font-size="11" lengthAdjust="spacingAndGlyphs" textLength="294" x="578.5" y="108.7729">Group[] getGroupByPreferences(Preferences prefs)</text><ellipse cx="569.5" cy="119.2695" fill="#84BE84" rx="3" ry="3" style="stroke: #038048; stroke-width: 1.0;"/><text fill="#000000" font-family="sans-serif" font-size="11" lengthAdjust="spacingAndGlyphs" textLength="195" x="578.5" y="121.5776">bool removeGroup(String groupId)</text><!--class MembershipController--><rect fill="#FEFECE" filter="url(#f1gvfbumh1jc4x)" height="73.6094" id="MembershipController" style="stroke: #A80036; stroke-width: 1.5;" width="359" x="6" y="187.9531"/><ellipse cx="112.75" cy="203.9531" fill="#ADD1B2" rx="11" ry="11" style="stroke: #A80036; stroke-width: 1.0;"/><path d="M115.0938,199.625 L115.2656,199.7031 C115.4844,199.3906 115.6875,199.2969 115.9844,199.2969 C116.2813,199.2969 116.5625,199.4375 116.7188,199.7031 C116.8125,199.8594 116.8281,199.9844 116.8281,200.4219 L116.8281,201.8438 C116.8281,202.2656 116.7969,202.4531 116.6875,202.6094 C116.5156,202.8281 116.25,202.9688 115.9844,202.9688 C115.7656,202.9688 115.5313,202.8594 115.3906,202.7188 C115.25,202.5938 115.2188,202.4688 115.1563,202.0625 C115.0625,201.6563 114.8906,201.4375 114.4063,201.1563 C113.9375,200.9063 113.3281,200.75 112.75,200.75 C111.0156,200.75 109.7656,202.0625 109.7656,203.8438 L109.7656,204.9375 C109.7656,206.6406 111.0625,207.7344 113.1094,207.7344 C113.875,207.7344 114.5625,207.6094 114.9844,207.3438 C115.1719,207.25 115.1719,207.25 115.625,206.7656 C115.8125,206.5781 116.0156,206.5 116.2344,206.5 C116.7031,206.5 117.0938,206.8906 117.0938,207.3438 C117.0938,207.7344 116.7656,208.1875 116.1875,208.5938 C115.4375,209.1406 114.2813,209.4375 113.0625,209.4375 C110.1719,209.4375 108.0625,207.5469 108.0625,204.9688 L108.0625,203.8438 C108.0625,201.125 110.0625,199.0469 112.6875,199.0469 C113.5625,199.0469 114.1563,199.1875 115.0938,199.625 Z "/><text fill="#000000" font-family="sans-serif" font-size="12" lengthAdjust="spacingAndGlyphs" textLength="137" x="133.25" y="208.1074">MembershipController</text><line style="stroke: #A80036; stroke-width: 1.5;" x1="7" x2="364" y1="219.9531" y2="219.9531"/><line style="stroke: #A80036; stroke-width: 1.5;" x1="7" x2="364" y1="227.9531" y2="227.9531"/><ellipse cx="17" cy="239.8555" fill="#84BE84" rx="3" ry="3" style="stroke: #038048; stroke-width: 1.0;"/><text fill="#000000" font-family="sans-serif" font-size="11" lengthAdjust="spacingAndGlyphs" textLength="297" x="26" y="242.1636">bool addUserToGroup(String UserId, String groupId)</text><ellipse cx="17" cy="252.6602" fill="#84BE84" rx="3" ry="3" style="stroke: #038048; stroke-width: 1.0;"/><text fill="#000000" font-family="sans-serif" font-size="11" lengthAdjust="spacingAndGlyphs" textLength="333" x="26" y="254.9683">bool removeUserFromGroup(String userId, String groupId)</text><!--class AuthenticationController--><rect fill="#FEFECE" filter="url(#f1gvfbumh1jc4x)" height="73.6094" id="AuthenticationController" style="stroke: #A80036; stroke-width: 1.5;" width="211" x="400" y="187.9531"/><ellipse cx="426.7" cy="203.9531" fill="#ADD1B2" rx="11" ry="11" style="stroke: #A80036; stroke-width: 1.0;"/><path d="M429.0438,199.625 L429.2156,199.7031 C429.4344,199.3906 429.6375,199.2969 429.9344,199.2969 C430.2313,199.2969 430.5125,199.4375 430.6688,199.7031 C430.7625,199.8594 430.7781,199.9844 430.7781,200.4219 L430.7781,201.8438 C430.7781,202.2656 430.7469,202.4531 430.6375,202.6094 C430.4656,202.8281 430.2,202.9688 429.9344,202.9688 C429.7156,202.9688 429.4813,202.8594 429.3406,202.7188 C429.2,202.5938 429.1688,202.4688 429.1063,202.0625 C429.0125,201.6563 428.8406,201.4375 428.3563,201.1563 C427.8875,200.9063 427.2781,200.75 426.7,200.75 C424.9656,200.75 423.7156,202.0625 423.7156,203.8438 L423.7156,204.9375 C423.7156,206.6406 425.0125,207.7344 427.0594,207.7344 C427.825,207.7344 428.5125,207.6094 428.9344,207.3438 C429.1219,207.25 429.1219,207.25 429.575,206.7656 C429.7625,206.5781 429.9656,206.5 430.1844,206.5 C430.6531,206.5 431.0438,206.8906 431.0438,207.3438 C431.0438,207.7344 430.7156,208.1875 430.1375,208.5938 C429.3875,209.1406 428.2313,209.4375 427.0125,209.4375 C424.1219,209.4375 422.0125,207.5469 422.0125,204.9688 L422.0125,203.8438 C422.0125,201.125 424.0125,199.0469 426.6375,199.0469 C427.5125,199.0469 428.1063,199.1875 429.0438,199.625 Z "/><text fill="#000000" font-family="sans-serif" font-size="12" lengthAdjust="spacingAndGlyphs" textLength="153" x="443.3" y="208.1074">AuthenticationController</text><line style="stroke: #A80036; stroke-width: 1.5;" x1="401" x2="610" y1="219.9531" y2="219.9531"/><line style="stroke: #A80036; stroke-width: 1.5;" x1="401" x2="610" y1="227.9531" y2="227.9531"/><ellipse cx="411" cy="239.8555" fill="#84BE84" rx="3" ry="3" style="stroke: #038048; stroke-width: 1.0;"/><text fill="#000000" font-family="sans-serif" font-size="11" lengthAdjust="spacingAndGlyphs" textLength="185" x="420" y="242.1636">User register(Credentials creds)</text><ellipse cx="411" cy="252.6602" fill="#84BE84" rx="3" ry="3" style="stroke: #038048; stroke-width: 1.0;"/><text fill="#000000" font-family="sans-serif" font-size="11" lengthAdjust="spacingAndGlyphs" textLength="167" x="420" y="254.9683">User login(Credentials creds)</text><!--class TimeController--><rect fill="#FEFECE" filter="url(#f1gvfbumh1jc4x)" height="73.6094" id="TimeController" style="stroke: #A80036; stroke-width: 1.5;" width="170" x="646.5" y="187.9531"/><ellipse cx="683.1" cy="203.9531" fill="#ADD1B2" rx="11" ry="11" style="stroke: #A80036; stroke-width: 1.0;"/><path d="M685.4438,199.625 L685.6156,199.7031 C685.8344,199.3906 686.0375,199.2969 686.3344,199.2969 C686.6313,199.2969 686.9125,199.4375 687.0688,199.7031 C687.1625,199.8594 687.1781,199.9844 687.1781,200.4219 L687.1781,201.8438 C687.1781,202.2656 687.1469,202.4531 687.0375,202.6094 C686.8656,202.8281 686.6,202.9688 686.3344,202.9688 C686.1156,202.9688 685.8813,202.8594 685.7406,202.7188 C685.6,202.5938 685.5688,202.4688 685.5063,202.0625 C685.4125,201.6563 685.2406,201.4375 684.7563,201.1563 C684.2875,200.9063 683.6781,200.75 683.1,200.75 C681.3656,200.75 680.1156,202.0625 680.1156,203.8438 L680.1156,204.9375 C680.1156,206.6406 681.4125,207.7344 683.4594,207.7344 C684.225,207.7344 684.9125,207.6094 685.3344,207.3438 C685.5219,207.25 685.5219,207.25 685.975,206.7656 C686.1625,206.5781 686.3656,206.5 686.5844,206.5 C687.0531,206.5 687.4438,206.8906 687.4438,207.3438 C687.4438,207.7344 687.1156,208.1875 686.5375,208.5938 C685.7875,209.1406 684.6313,209.4375 683.4125,209.4375 C680.5219,209.4375 678.4125,207.5469 678.4125,204.9688 L678.4125,203.8438 C678.4125,201.125 680.4125,199.0469 683.0375,199.0469 C683.9125,199.0469 684.5063,199.1875 685.4438,199.625 Z "/><text fill="#000000" font-family="sans-serif" font-size="12" lengthAdjust="spacingAndGlyphs" textLength="90" x="701.9" y="208.1074">TimeController</text><line style="stroke: #A80036; stroke-width: 1.5;" x1="647.5" x2="815.5" y1="219.9531" y2="219.9531"/><line style="stroke: #A80036; stroke-width: 1.5;" x1="647.5" x2="815.5" y1="227.9531" y2="227.9531"/><ellipse cx="657.5" cy="239.8555" fill="#84BE84" rx="3" ry="3" style="stroke: #038048; stroke-width: 1.0;"/><text fill="#000000" font-family="sans-serif" font-size="11" lengthAdjust="spacingAndGlyphs" textLength="125" x="666.5" y="242.1636">void deleteAllGroups()</text><ellipse cx="657.5" cy="252.6602" fill="#84BE84" rx="3" ry="3" style="stroke: #038048; stroke-width: 1.0;"/><text fill="#000000" font-family="sans-serif" font-size="11" lengthAdjust="spacingAndGlyphs" textLength="144" x="666.5" y="254.9683">bool startMensaCrawler()</text><!--link MensaLineDataController to UserController--><!--link UserController to GroupController--><!--link MensaLineDataController to MembershipController--><!--link MembershipController to AuthenticationController--><!--link AuthenticationController to TimeController--><!--
@startuml
title Server Controller - Class Diagram

class MensaLineDataController {
  +LineData[] getLineData()
  +void updateLineData()
}

class UserController {
  +User getUserById(String userId)
  +User addUser(User user)
  +bool removeUser(String userId)
  +bool updateUser(User user)
}

class GroupController {
  +Group getGroupById(String groupId)
  +Group addGroup(Group group)
  +Group[] getGroupByPreferences(Preferences prefs)
  +bool removeGroup(String groupId)
}

class MembershipController {
  +bool addUserToGroup(String UserId, String groupId)
  +bool removeUserFromGroup(String userId, String groupId)
}

class AuthenticationController {
  +User register(Credentials creds)
  +User login(Credentials creds)
}

class TimeController {
  +void deleteAllGroups()
  +bool startMensaCrawler()
}
@enduml

PlantUML version 1.2019.07(Mon Jun 24 19:59:20 UTC 2019)
(GPL source distribution)
Java Runtime: Java(TM) SE Runtime Environment
JVM: Java HotSpot(TM) 64-Bit Server VM
Java Version: 1.7.0_25-b15
Operating System: Linux
Default Encoding: UTF-8
Language: en
Country: US
--></g></svg>