<?xml version="1.0" encoding="UTF-8" standalone="no"?><svg xmlns="http://www.w3.org/2000/svg" xmlns:xlink="http://www.w3.org/1999/xlink" contentScriptType="application/ecmascript" contentStyleType="text/css" height="816px" preserveAspectRatio="none" style="width:2162px;height:816px;" version="1.1" viewBox="0 0 2162 816" width="2162px" zoomAndPan="magnify"><defs><filter height="300%" id="f2q3simutpv1q" width="300%" x="-1" y="-1"><feGaussianBlur result="blurOut" stdDeviation="2.0"/><feColorMatrix in="blurOut" result="blurOut2" type="matrix" values="0 0 0 0 0 0 0 0 0 0 0 0 0 0 0 0 0 0 .4 0"/><feOffset dx="4.0" dy="4.0" in="blurOut2" result="blurOut3"/><feBlend in="SourceGraphic" in2="blurOut3" mode="normal"/></filter></defs><g><text fill="#000000" font-family="sans-serif" font-size="18" lengthAdjust="spacingAndGlyphs" textLength="289" x="940.5" y="16.708">Server Models - Class Diagramm</text><!--class Group--><rect fill="#FEFECE" filter="url(#f2q3simutpv1q)" height="240.0703" id="Group" style="stroke: #A80036; stroke-width: 1.5;" width="718" x="399" y="328.9531"/><ellipse cx="734.75" cy="344.9531" fill="#ADD1B2" rx="11" ry="11" style="stroke: #A80036; stroke-width: 1.0;"/><path d="M737.7188,350.5938 Q737.1406,350.8906 736.5,351.0391 Q735.8594,351.1875 735.1563,351.1875 Q732.6563,351.1875 731.3359,349.5391 Q730.0156,347.8906 730.0156,344.7656 Q730.0156,341.6406 731.3359,339.9844 Q732.6563,338.3281 735.1563,338.3281 Q735.8594,338.3281 736.5078,338.4844 Q737.1563,338.6406 737.7188,338.9375 L737.7188,341.6563 Q737.0938,341.0781 736.5,340.8047 Q735.9063,340.5313 735.2813,340.5313 Q733.9375,340.5313 733.25,341.6016 Q732.5625,342.6719 732.5625,344.7656 Q732.5625,346.8594 733.25,347.9297 Q733.9375,349 735.2813,349 Q735.9063,349 736.5,348.7266 Q737.0938,348.4531 737.7188,347.875 L737.7188,350.5938 Z "/><text fill="#000000" font-family="sans-serif" font-size="12" lengthAdjust="spacingAndGlyphs" textLength="38" x="755.25" y="349.1074">Group</text><line style="stroke: #A80036; stroke-width: 1.5;" x1="400" x2="1116" y1="360.9531" y2="360.9531"/><rect fill="none" height="6" style="stroke: #C82930; stroke-width: 1.0;" width="6" x="407" y="369.8555"/><text fill="#000000" font-family="sans-serif" font-size="11" lengthAdjust="spacingAndGlyphs" textLength="47" x="419" y="375.1636">string id</text><rect fill="none" height="6" style="stroke: #C82930; stroke-width: 1.0;" width="6" x="407" y="382.6602"/><text fill="#000000" font-family="sans-serif" font-size="11" lengthAdjust="spacingAndGlyphs" textLength="69" x="419" y="387.9683">string name</text><rect fill="none" height="6" style="stroke: #C82930; stroke-width: 1.0;" width="6" x="407" y="395.4648"/><text fill="#000000" font-family="sans-serif" font-size="11" lengthAdjust="spacingAndGlyphs" textLength="70" x="419" y="400.7729">string motto</text><rect fill="none" height="6" style="stroke: #C82930; stroke-width: 1.0;" width="6" x="407" y="408.2695"/><text fill="#000000" font-family="sans-serif" font-size="11" lengthAdjust="spacingAndGlyphs" textLength="95" x="419" y="413.5776">int maxMembers</text><rect fill="none" height="6" style="stroke: #C82930; stroke-width: 1.0;" width="6" x="407" y="421.0742"/><text fill="#000000" font-family="sans-serif" font-size="11" lengthAdjust="spacingAndGlyphs" textLength="57" x="419" y="426.3823">string line</text><rect fill="none" height="6" style="stroke: #C82930; stroke-width: 1.0;" width="6" x="407" y="433.8789"/><text fill="#000000" font-family="sans-serif" font-size="11" lengthAdjust="spacingAndGlyphs" textLength="102" x="419" y="439.187">Date meetingDate</text><rect fill="none" height="6" style="stroke: #C82930; stroke-width: 1.0;" width="6" x="407" y="446.6836"/><text fill="#000000" font-family="sans-serif" font-size="11" lengthAdjust="spacingAndGlyphs" textLength="145" x="419" y="451.9917">List&lt;UserProfiles&gt; users</text><line style="stroke: #A80036; stroke-width: 1.5;" x1="400" x2="1116" y1="458.5859" y2="458.5859"/><ellipse cx="410" cy="470.4883" fill="#84BE84" rx="3" ry="3" style="stroke: #038048; stroke-width: 1.0;"/><text fill="#000000" font-family="sans-serif" font-size="11" lengthAdjust="spacingAndGlyphs" textLength="692" x="419" y="472.7964">«Constructor» Group(string name, string motto, int maxMembers, string line, Date meetingDate, List&lt;UserProfile&gt; user)</text><ellipse cx="410" cy="483.293" fill="#84BE84" rx="3" ry="3" style="stroke: #038048; stroke-width: 1.0;"/><text fill="#000000" font-family="sans-serif" font-size="11" lengthAdjust="spacingAndGlyphs" textLength="73" x="419" y="485.6011">string getId()</text><ellipse cx="410" cy="496.0977" fill="#84BE84" rx="3" ry="3" style="stroke: #038048; stroke-width: 1.0;"/><text fill="#000000" font-family="sans-serif" font-size="11" lengthAdjust="spacingAndGlyphs" textLength="96" x="419" y="498.4058">string getName()</text><ellipse cx="410" cy="508.9023" fill="#84BE84" rx="3" ry="3" style="stroke: #038048; stroke-width: 1.0;"/><text fill="#000000" font-family="sans-serif" font-size="11" lengthAdjust="spacingAndGlyphs" textLength="94" x="419" y="511.2104">string getMotto()</text><ellipse cx="410" cy="521.707" fill="#84BE84" rx="3" ry="3" style="stroke: #038048; stroke-width: 1.0;"/><text fill="#000000" font-family="sans-serif" font-size="11" lengthAdjust="spacingAndGlyphs" textLength="119" x="419" y="524.0151">int getMaxMembers()</text><ellipse cx="410" cy="534.5117" fill="#84BE84" rx="3" ry="3" style="stroke: #038048; stroke-width: 1.0;"/><text fill="#000000" font-family="sans-serif" font-size="11" lengthAdjust="spacingAndGlyphs" textLength="86" x="419" y="536.8198">string getLine()</text><ellipse cx="410" cy="547.3164" fill="#84BE84" rx="3" ry="3" style="stroke: #038048; stroke-width: 1.0;"/><text fill="#000000" font-family="sans-serif" font-size="11" lengthAdjust="spacingAndGlyphs" textLength="126" x="419" y="549.6245">Date getMeetingDate()</text><ellipse cx="410" cy="560.1211" fill="#84BE84" rx="3" ry="3" style="stroke: #038048; stroke-width: 1.0;"/><text fill="#000000" font-family="sans-serif" font-size="11" lengthAdjust="spacingAndGlyphs" textLength="158" x="419" y="562.4292">List&lt;UserProfile&gt; getUser()</text><!--class User--><rect fill="#FEFECE" filter="url(#f2q3simutpv1q)" height="240.0703" id="User" style="stroke: #A80036; stroke-width: 1.5;" width="666" x="425" y="28.9531"/><ellipse cx="739.25" cy="44.9531" fill="#ADD1B2" rx="11" ry="11" style="stroke: #A80036; stroke-width: 1.0;"/><path d="M742.2188,50.5938 Q741.6406,50.8906 741,51.0391 Q740.3594,51.1875 739.6563,51.1875 Q737.1563,51.1875 735.8359,49.5391 Q734.5156,47.8906 734.5156,44.7656 Q734.5156,41.6406 735.8359,39.9844 Q737.1563,38.3281 739.6563,38.3281 Q740.3594,38.3281 741.0078,38.4844 Q741.6563,38.6406 742.2188,38.9375 L742.2188,41.6563 Q741.5938,41.0781 741,40.8047 Q740.4063,40.5313 739.7813,40.5313 Q738.4375,40.5313 737.75,41.6016 Q737.0625,42.6719 737.0625,44.7656 Q737.0625,46.8594 737.75,47.9297 Q738.4375,49 739.7813,49 Q740.4063,49 741,48.7266 Q741.5938,48.4531 742.2188,47.875 L742.2188,50.5938 Z "/><text fill="#000000" font-family="sans-serif" font-size="12" lengthAdjust="spacingAndGlyphs" textLength="29" x="759.75" y="49.1074">User</text><line style="stroke: #A80036; stroke-width: 1.5;" x1="426" x2="1090" y1="60.9531" y2="60.9531"/><rect fill="none" height="6" style="stroke: #C82930; stroke-width: 1.0;" width="6" x="433" y="69.8555"/><text fill="#000000" font-family="sans-serif" font-size="11" lengthAdjust="spacingAndGlyphs" textLength="47" x="445" y="75.1636">string id</text><rect fill="none" height="6" style="stroke: #C82930; stroke-width: 1.0;" width="6" x="433" y="82.6602"/><text fill="#000000" font-family="sans-serif" font-size="11" lengthAdjust="spacingAndGlyphs" textLength="71" x="445" y="87.9683">String motto</text><rect fill="none" height="6" style="stroke: #C82930; stroke-width: 1.0;" width="6" x="433" y="95.4648"/><text fill="#000000" font-family="sans-serif" font-size="11" lengthAdjust="spacingAndGlyphs" textLength="82" x="445" y="100.7729">Date birthDate</text><rect fill="none" height="6" style="stroke: #C82930; stroke-width: 1.0;" width="6" x="433" y="108.2695"/><text fill="#000000" font-family="sans-serif" font-size="11" lengthAdjust="spacingAndGlyphs" textLength="65" x="445" y="113.5776">Sex gender</text><rect fill="none" height="6" style="stroke: #C82930; stroke-width: 1.0;" width="6" x="433" y="121.0742"/><text fill="#000000" font-family="sans-serif" font-size="11" lengthAdjust="spacingAndGlyphs" textLength="87" x="445" y="126.3823">Subject subject</text><rect fill="none" height="6" style="stroke: #C82930; stroke-width: 1.0;" width="6" x="433" y="133.8789"/><text fill="#000000" font-family="sans-serif" font-size="11" lengthAdjust="spacingAndGlyphs" textLength="77" x="445" y="139.187">Status status</text><rect fill="none" height="6" style="stroke: #C82930; stroke-width: 1.0;" width="6" x="433" y="146.6836"/><text fill="#000000" font-family="sans-serif" font-size="11" lengthAdjust="spacingAndGlyphs" textLength="103" x="445" y="151.9917">int profilePictureId</text><line style="stroke: #A80036; stroke-width: 1.5;" x1="426" x2="1090" y1="158.5859" y2="158.5859"/><ellipse cx="436" cy="170.4883" fill="#84BE84" rx="3" ry="3" style="stroke: #038048; stroke-width: 1.0;"/><text fill="#000000" font-family="sans-serif" font-size="11" lengthAdjust="spacingAndGlyphs" textLength="640" x="445" y="172.7964">«Constructor»UserProfile(string motto, Date birthDate, Sex gender, Subject subject, Status status, int pictureId)</text><ellipse cx="436" cy="183.293" fill="#84BE84" rx="3" ry="3" style="stroke: #038048; stroke-width: 1.0;"/><text fill="#000000" font-family="sans-serif" font-size="11" lengthAdjust="spacingAndGlyphs" textLength="73" x="445" y="185.6011">string getId()</text><ellipse cx="436" cy="196.0977" fill="#84BE84" rx="3" ry="3" style="stroke: #038048; stroke-width: 1.0;"/><text fill="#000000" font-family="sans-serif" font-size="11" lengthAdjust="spacingAndGlyphs" textLength="94" x="445" y="198.4058">string getMotto()</text><ellipse cx="436" cy="208.9023" fill="#84BE84" rx="3" ry="3" style="stroke: #038048; stroke-width: 1.0;"/><text fill="#000000" font-family="sans-serif" font-size="11" lengthAdjust="spacingAndGlyphs" textLength="109" x="445" y="211.2104">Date getBirthDate()</text><ellipse cx="436" cy="221.707" fill="#84BE84" rx="3" ry="3" style="stroke: #038048; stroke-width: 1.0;"/><text fill="#000000" font-family="sans-serif" font-size="11" lengthAdjust="spacingAndGlyphs" textLength="93" x="445" y="224.0151">Sex getGender()</text><ellipse cx="436" cy="234.5117" fill="#84BE84" rx="3" ry="3" style="stroke: #038048; stroke-width: 1.0;"/><text fill="#000000" font-family="sans-serif" font-size="11" lengthAdjust="spacingAndGlyphs" textLength="114" x="445" y="236.8198">Subject getSubject()</text><ellipse cx="436" cy="247.3164" fill="#84BE84" rx="3" ry="3" style="stroke: #038048; stroke-width: 1.0;"/><text fill="#000000" font-family="sans-serif" font-size="11" lengthAdjust="spacingAndGlyphs" textLength="104" x="445" y="249.6245">Status getStatus()</text><ellipse cx="436" cy="260.1211" fill="#84BE84" rx="3" ry="3" style="stroke: #038048; stroke-width: 1.0;"/><text fill="#000000" font-family="sans-serif" font-size="11" lengthAdjust="spacingAndGlyphs" textLength="129" x="445" y="262.4292">int getProfilePictureId()</text><!--class Line--><rect fill="#FEFECE" filter="url(#f2q3simutpv1q)" height="86.4141" id="Line" style="stroke: #A80036; stroke-width: 1.5;" width="215" x="90.5" y="405.9531"/><ellipse cx="181.25" cy="421.9531" fill="#ADD1B2" rx="11" ry="11" style="stroke: #A80036; stroke-width: 1.0;"/><path d="M184.2188,427.5938 Q183.6406,427.8906 183,428.0391 Q182.3594,428.1875 181.6563,428.1875 Q179.1563,428.1875 177.8359,426.5391 Q176.5156,424.8906 176.5156,421.7656 Q176.5156,418.6406 177.8359,416.9844 Q179.1563,415.3281 181.6563,415.3281 Q182.3594,415.3281 183.0078,415.4844 Q183.6563,415.6406 184.2188,415.9375 L184.2188,418.6563 Q183.5938,418.0781 183,417.8047 Q182.4063,417.5313 181.7813,417.5313 Q180.4375,417.5313 179.75,418.6016 Q179.0625,419.6719 179.0625,421.7656 Q179.0625,423.8594 179.75,424.9297 Q180.4375,426 181.7813,426 Q182.4063,426 183,425.7266 Q183.5938,425.4531 184.2188,424.875 L184.2188,427.5938 Z "/><text fill="#000000" font-family="sans-serif" font-size="12" lengthAdjust="spacingAndGlyphs" textLength="25" x="201.75" y="426.1074">Line</text><line style="stroke: #A80036; stroke-width: 1.5;" x1="91.5" x2="304.5" y1="437.9531" y2="437.9531"/><rect fill="none" height="6" style="stroke: #C82930; stroke-width: 1.0;" width="6" x="98.5" y="446.8555"/><text fill="#000000" font-family="sans-serif" font-size="11" lengthAdjust="spacingAndGlyphs" textLength="73" x="110.5" y="452.1636">Meal[] meals</text><line style="stroke: #A80036; stroke-width: 1.5;" x1="91.5" x2="304.5" y1="458.7578" y2="458.7578"/><ellipse cx="101.5" cy="470.6602" fill="#84BE84" rx="3" ry="3" style="stroke: #038048; stroke-width: 1.0;"/><text fill="#000000" font-family="sans-serif" font-size="11" lengthAdjust="spacingAndGlyphs" textLength="189" x="110.5" y="472.9683">«Constructor» Line(Meal[] meals)</text><ellipse cx="101.5" cy="483.4648" fill="#84BE84" rx="3" ry="3" style="stroke: #038048; stroke-width: 1.0;"/><text fill="#000000" font-family="sans-serif" font-size="11" lengthAdjust="spacingAndGlyphs" textLength="97" x="110.5" y="485.7729">Meal[] getMeals()</text><!--class Meal--><rect fill="#FEFECE" filter="url(#f2q3simutpv1q)" height="163.2422" id="Meal" style="stroke: #A80036; stroke-width: 1.5;" width="384" x="6" y="67.4531"/><ellipse cx="179.25" cy="83.4531" fill="#ADD1B2" rx="11" ry="11" style="stroke: #A80036; stroke-width: 1.0;"/><path d="M182.2188,89.0938 Q181.6406,89.3906 181,89.5391 Q180.3594,89.6875 179.6563,89.6875 Q177.1563,89.6875 175.8359,88.0391 Q174.5156,86.3906 174.5156,83.2656 Q174.5156,80.1406 175.8359,78.4844 Q177.1563,76.8281 179.6563,76.8281 Q180.3594,76.8281 181.0078,76.9844 Q181.6563,77.1406 182.2188,77.4375 L182.2188,80.1563 Q181.5938,79.5781 181,79.3047 Q180.4063,79.0313 179.7813,79.0313 Q178.4375,79.0313 177.75,80.1016 Q177.0625,81.1719 177.0625,83.2656 Q177.0625,85.3594 177.75,86.4297 Q178.4375,87.5 179.7813,87.5 Q180.4063,87.5 181,87.2266 Q181.5938,86.9531 182.2188,86.375 L182.2188,89.0938 Z "/><text fill="#000000" font-family="sans-serif" font-size="12" lengthAdjust="spacingAndGlyphs" textLength="29" x="199.75" y="87.6074">Meal</text><line style="stroke: #A80036; stroke-width: 1.5;" x1="7" x2="389" y1="99.4531" y2="99.4531"/><rect fill="none" height="6" style="stroke: #C82930; stroke-width: 1.0;" width="6" x="14" y="108.3555"/><text fill="#000000" font-family="sans-serif" font-size="11" lengthAdjust="spacingAndGlyphs" textLength="70" x="26" y="113.6636">String name</text><rect fill="none" height="6" style="stroke: #C82930; stroke-width: 1.0;" width="6" x="14" y="121.1602"/><text fill="#000000" font-family="sans-serif" font-size="11" lengthAdjust="spacingAndGlyphs" textLength="57" x="26" y="126.4683">float price</text><rect fill="none" height="6" style="stroke: #C82930; stroke-width: 1.0;" width="6" x="14" y="133.9648"/><text fill="#000000" font-family="sans-serif" font-size="11" lengthAdjust="spacingAndGlyphs" textLength="97" x="26" y="139.2729">FoodType[] types</text><rect fill="none" height="6" style="stroke: #C82930; stroke-width: 1.0;" width="6" x="14" y="146.7695"/><text fill="#000000" font-family="sans-serif" font-size="11" lengthAdjust="spacingAndGlyphs" textLength="132" x="26" y="152.0776">Ingridients[] ingridients</text><line style="stroke: #A80036; stroke-width: 1.5;" x1="7" x2="389" y1="158.6719" y2="158.6719"/><ellipse cx="17" cy="170.5742" fill="#84BE84" rx="3" ry="3" style="stroke: #038048; stroke-width: 1.0;"/><text fill="#000000" font-family="sans-serif" font-size="11" lengthAdjust="spacingAndGlyphs" textLength="358" x="26" y="172.8823">«Constructor» Meal(string name, float price, FoodType[] types)</text><ellipse cx="17" cy="183.3789" fill="#84BE84" rx="3" ry="3" style="stroke: #038048; stroke-width: 1.0;"/><text fill="#000000" font-family="sans-serif" font-size="11" lengthAdjust="spacingAndGlyphs" textLength="96" x="26" y="185.687">string getName()</text><ellipse cx="17" cy="196.1836" fill="#84BE84" rx="3" ry="3" style="stroke: #038048; stroke-width: 1.0;"/><text fill="#000000" font-family="sans-serif" font-size="11" lengthAdjust="spacingAndGlyphs" textLength="83" x="26" y="198.4917">float getPrice()</text><ellipse cx="17" cy="208.9883" fill="#84BE84" rx="3" ry="3" style="stroke: #038048; stroke-width: 1.0;"/><text fill="#000000" font-family="sans-serif" font-size="11" lengthAdjust="spacingAndGlyphs" textLength="153" x="26" y="211.2964">FoodType[] getFoodTypes()</text><ellipse cx="17" cy="221.793" fill="#84BE84" rx="3" ry="3" style="stroke: #038048; stroke-width: 1.0;"/><text fill="#000000" font-family="sans-serif" font-size="11" lengthAdjust="spacingAndGlyphs" textLength="153" x="26" y="224.1011">Ingidients[] getIngridients()</text><!--class MensaData--><rect fill="#FEFECE" filter="url(#f2q3simutpv1q)" height="86.4141" id="MensaData" style="stroke: #A80036; stroke-width: 1.5;" width="244" x="76" y="673.9531"/><ellipse cx="158.25" cy="689.9531" fill="#ADD1B2" rx="11" ry="11" style="stroke: #A80036; stroke-width: 1.0;"/><path d="M161.2188,695.5938 Q160.6406,695.8906 160,696.0391 Q159.3594,696.1875 158.6563,696.1875 Q156.1563,696.1875 154.8359,694.5391 Q153.5156,692.8906 153.5156,689.7656 Q153.5156,686.6406 154.8359,684.9844 Q156.1563,683.3281 158.6563,683.3281 Q159.3594,683.3281 160.0078,683.4844 Q160.6563,683.6406 161.2188,683.9375 L161.2188,686.6563 Q160.5938,686.0781 160,685.8047 Q159.4063,685.5313 158.7813,685.5313 Q157.4375,685.5313 156.75,686.6016 Q156.0625,687.6719 156.0625,689.7656 Q156.0625,691.8594 156.75,692.9297 Q157.4375,694 158.7813,694 Q159.4063,694 160,693.7266 Q160.5938,693.4531 161.2188,692.875 L161.2188,695.5938 Z "/><text fill="#000000" font-family="sans-serif" font-size="12" lengthAdjust="spacingAndGlyphs" textLength="71" x="178.75" y="694.1074">MensaData</text><line style="stroke: #A80036; stroke-width: 1.5;" x1="77" x2="319" y1="705.9531" y2="705.9531"/><rect fill="none" height="6" style="stroke: #C82930; stroke-width: 1.0;" width="6" x="84" y="714.8555"/><text fill="#000000" font-family="sans-serif" font-size="11" lengthAdjust="spacingAndGlyphs" textLength="62" x="96" y="720.1636">Line[] lines</text><line style="stroke: #A80036; stroke-width: 1.5;" x1="77" x2="319" y1="726.7578" y2="726.7578"/><ellipse cx="87" cy="738.6602" fill="#84BE84" rx="3" ry="3" style="stroke: #038048; stroke-width: 1.0;"/><text fill="#000000" font-family="sans-serif" font-size="11" lengthAdjust="spacingAndGlyphs" textLength="218" x="96" y="740.9683">«Constructor» MensaData(Line[] lines)</text><ellipse cx="87" cy="751.4648" fill="#84BE84" rx="3" ry="3" style="stroke: #038048; stroke-width: 1.0;"/><text fill="#000000" font-family="sans-serif" font-size="11" lengthAdjust="spacingAndGlyphs" textLength="91" x="96" y="753.7729">Line[] getLines()</text><!--class Credentials--><rect fill="#FEFECE" filter="url(#f2q3simutpv1q)" height="112.0234" id="Credentials" style="stroke: #A80036; stroke-width: 1.5;" width="312" x="1126" y="92.9531"/><ellipse cx="1242.25" cy="108.9531" fill="#ADD1B2" rx="11" ry="11" style="stroke: #A80036; stroke-width: 1.0;"/><path d="M1245.2188,114.5938 Q1244.6406,114.8906 1244,115.0391 Q1243.3594,115.1875 1242.6563,115.1875 Q1240.1563,115.1875 1238.8359,113.5391 Q1237.5156,111.8906 1237.5156,108.7656 Q1237.5156,105.6406 1238.8359,103.9844 Q1240.1563,102.3281 1242.6563,102.3281 Q1243.3594,102.3281 1244.0078,102.4844 Q1244.6563,102.6406 1245.2188,102.9375 L1245.2188,105.6563 Q1244.5938,105.0781 1244,104.8047 Q1243.4063,104.5313 1242.7813,104.5313 Q1241.4375,104.5313 1240.75,105.6016 Q1240.0625,106.6719 1240.0625,108.7656 Q1240.0625,110.8594 1240.75,111.9297 Q1241.4375,113 1242.7813,113 Q1243.4063,113 1244,112.7266 Q1244.5938,112.4531 1245.2188,111.875 L1245.2188,114.5938 Z "/><text fill="#000000" font-family="sans-serif" font-size="12" lengthAdjust="spacingAndGlyphs" textLength="71" x="1262.75" y="113.1074">Credentials</text><line style="stroke: #A80036; stroke-width: 1.5;" x1="1127" x2="1437" y1="124.9531" y2="124.9531"/><rect fill="none" height="6" style="stroke: #C82930; stroke-width: 1.0;" width="6" x="1134" y="133.8555"/><text fill="#000000" font-family="sans-serif" font-size="11" lengthAdjust="spacingAndGlyphs" textLength="70" x="1146" y="139.1636">String name</text><rect fill="none" height="6" style="stroke: #C82930; stroke-width: 1.0;" width="6" x="1134" y="146.6602"/><text fill="#000000" font-family="sans-serif" font-size="11" lengthAdjust="spacingAndGlyphs" textLength="94" x="1146" y="151.9683">String password</text><line style="stroke: #A80036; stroke-width: 1.5;" x1="1127" x2="1437" y1="158.5625" y2="158.5625"/><ellipse cx="1137" cy="170.4648" fill="#84BE84" rx="3" ry="3" style="stroke: #038048; stroke-width: 1.0;"/><text fill="#000000" font-family="sans-serif" font-size="11" lengthAdjust="spacingAndGlyphs" textLength="286" x="1146" y="172.7729">«Constructor»User(string name, string password)</text><ellipse cx="1137" cy="183.2695" fill="#84BE84" rx="3" ry="3" style="stroke: #038048; stroke-width: 1.0;"/><text fill="#000000" font-family="sans-serif" font-size="11" lengthAdjust="spacingAndGlyphs" textLength="96" x="1146" y="185.5776">string getName()</text><ellipse cx="1137" cy="196.0742" fill="#84BE84" rx="3" ry="3" style="stroke: #038048; stroke-width: 1.0;"/><text fill="#000000" font-family="sans-serif" font-size="11" lengthAdjust="spacingAndGlyphs" textLength="119" x="1146" y="198.3823">string getPassword()</text><!--class Prefferences--><rect fill="#FEFECE" filter="url(#f2q3simutpv1q)" height="137.6328" id="Prefferences" style="stroke: #A80036; stroke-width: 1.5;" width="524" x="1473" y="79.9531"/><ellipse cx="1690.75" cy="95.9531" fill="#ADD1B2" rx="11" ry="11" style="stroke: #A80036; stroke-width: 1.0;"/><path d="M1693.7188,101.5938 Q1693.1406,101.8906 1692.5,102.0391 Q1691.8594,102.1875 1691.1563,102.1875 Q1688.6563,102.1875 1687.3359,100.5391 Q1686.0156,98.8906 1686.0156,95.7656 Q1686.0156,92.6406 1687.3359,90.9844 Q1688.6563,89.3281 1691.1563,89.3281 Q1691.8594,89.3281 1692.5078,89.4844 Q1693.1563,89.6406 1693.7188,89.9375 L1693.7188,92.6563 Q1693.0938,92.0781 1692.5,91.8047 Q1691.9063,91.5313 1691.2813,91.5313 Q1689.9375,91.5313 1689.25,92.6016 Q1688.5625,93.6719 1688.5625,95.7656 Q1688.5625,97.8594 1689.25,98.9297 Q1689.9375,100 1691.2813,100 Q1691.9063,100 1692.5,99.7266 Q1693.0938,99.4531 1693.7188,98.875 L1693.7188,101.5938 Z "/><text fill="#000000" font-family="sans-serif" font-size="12" lengthAdjust="spacingAndGlyphs" textLength="80" x="1711.25" y="100.1074">Prefferences</text><line style="stroke: #A80036; stroke-width: 1.5;" x1="1474" x2="1996" y1="111.9531" y2="111.9531"/><rect fill="none" height="6" style="stroke: #C82930; stroke-width: 1.0;" width="6" x="1481" y="120.8555"/><text fill="#000000" font-family="sans-serif" font-size="11" lengthAdjust="spacingAndGlyphs" textLength="148" x="1493" y="126.1636">List&lt;Line&gt; prefferedLines</text><rect fill="none" height="6" style="stroke: #C82930; stroke-width: 1.0;" width="6" x="1481" y="133.6602"/><text fill="#000000" font-family="sans-serif" font-size="11" lengthAdjust="spacingAndGlyphs" textLength="87" x="1493" y="138.9683">Time startTime</text><rect fill="none" height="6" style="stroke: #C82930; stroke-width: 1.0;" width="6" x="1481" y="146.4648"/><text fill="#000000" font-family="sans-serif" font-size="11" lengthAdjust="spacingAndGlyphs" textLength="81" x="1493" y="151.7729">Time endTime</text><line style="stroke: #A80036; stroke-width: 1.5;" x1="1474" x2="1996" y1="158.3672" y2="158.3672"/><ellipse cx="1484" cy="170.2695" fill="#84BE84" rx="3" ry="3" style="stroke: #038048; stroke-width: 1.0;"/><text fill="#000000" font-family="sans-serif" font-size="11" lengthAdjust="spacingAndGlyphs" textLength="498" x="1493" y="172.5776">«Constructor» Prefferences(List&lt;Line&gt; prefferedLines, Time startTime, Time endTime)</text><ellipse cx="1484" cy="183.0742" fill="#84BE84" rx="3" ry="3" style="stroke: #038048; stroke-width: 1.0;"/><text fill="#000000" font-family="sans-serif" font-size="11" lengthAdjust="spacingAndGlyphs" textLength="174" x="1493" y="185.3823">List&lt;Line&gt; getPrefferedLines()</text><ellipse cx="1484" cy="195.8789" fill="#84BE84" rx="3" ry="3" style="stroke: #038048; stroke-width: 1.0;"/><text fill="#000000" font-family="sans-serif" font-size="11" lengthAdjust="spacingAndGlyphs" textLength="114" x="1493" y="198.187">Time getStartTime()</text><ellipse cx="1484" cy="208.6836" fill="#84BE84" rx="3" ry="3" style="stroke: #038048; stroke-width: 1.0;"/><text fill="#000000" font-family="sans-serif" font-size="11" lengthAdjust="spacingAndGlyphs" textLength="107" x="1493" y="210.9917">Time getEndTime()</text><!--class MealLine--><rect fill="#FEFECE" filter="url(#f2q3simutpv1q)" height="214.4609" id="MealLine" style="stroke: #A80036; stroke-width: 1.5;" width="119" x="2032.5" y="41.9531"/><ellipse cx="2062.35" cy="57.9531" fill="#EB937F" rx="11" ry="11" style="stroke: #A80036; stroke-width: 1.0;"/><path d="M2066.4594,63.9531 L2058.7406,63.9531 L2058.7406,51.5625 L2066.4594,51.5625 L2066.4594,53.7188 L2061.1938,53.7188 L2061.1938,56.3906 L2065.9594,56.3906 L2065.9594,58.5469 L2061.1938,58.5469 L2061.1938,61.7969 L2066.4594,61.7969 L2066.4594,63.9531 Z "/><text fill="#000000" font-family="sans-serif" font-size="12" lengthAdjust="spacingAndGlyphs" textLength="54" x="2079.65" y="62.1074">MealLine</text><line style="stroke: #A80036; stroke-width: 1.5;" x1="2033.5" x2="2150.5" y1="73.9531" y2="73.9531"/><text fill="#000000" font-family="sans-serif" font-size="11" lengthAdjust="spacingAndGlyphs" textLength="54" x="2038.5" y="88.1636">LINE_ONE</text><text fill="#000000" font-family="sans-serif" font-size="11" lengthAdjust="spacingAndGlyphs" textLength="55" x="2038.5" y="100.9683">LINE_TWO</text><text fill="#000000" font-family="sans-serif" font-size="11" lengthAdjust="spacingAndGlyphs" textLength="66" x="2038.5" y="113.7729">LINE_THREE</text><text fill="#000000" font-family="sans-serif" font-size="11" lengthAdjust="spacingAndGlyphs" textLength="89" x="2038.5" y="126.5776">LINE_FOUR_FIVE</text><text fill="#000000" font-family="sans-serif" font-size="11" lengthAdjust="spacingAndGlyphs" textLength="71" x="2038.5" y="139.3823">CUTLET_BAR</text><text fill="#000000" font-family="sans-serif" font-size="11" lengthAdjust="spacingAndGlyphs" textLength="48" x="2038.5" y="152.187">LINE_SIX</text><text fill="#000000" font-family="sans-serif" font-size="11" lengthAdjust="spacingAndGlyphs" textLength="57" x="2038.5" y="164.9917">LATE_LINE</text><text fill="#000000" font-family="sans-serif" font-size="11" lengthAdjust="spacingAndGlyphs" textLength="67" x="2038.5" y="177.7964">CURRY_LINE</text><text fill="#000000" font-family="sans-serif" font-size="11" lengthAdjust="spacingAndGlyphs" textLength="59" x="2038.5" y="190.6011">CAFETERIA</text><text fill="#000000" font-family="sans-serif" font-size="11" lengthAdjust="spacingAndGlyphs" textLength="92" x="2038.5" y="203.4058">CAFETERIA_LATE</text><text fill="#000000" font-family="sans-serif" font-size="11" lengthAdjust="spacingAndGlyphs" textLength="65" x="2038.5" y="216.2104">PIZZA_LINE</text><text fill="#000000" font-family="sans-serif" font-size="11" lengthAdjust="spacingAndGlyphs" textLength="107" x="2038.5" y="229.0151">PIZZA_LINE_PASTA</text><text fill="#000000" font-family="sans-serif" font-size="11" lengthAdjust="spacingAndGlyphs" textLength="107" x="2038.5" y="241.8198">PIZZA_LINE_SALAD</text><line style="stroke: #A80036; stroke-width: 1.5;" x1="2033.5" x2="2150.5" y1="248.4141" y2="248.4141"/><!--class Ingredients--><rect fill="#FEFECE" filter="url(#f2q3simutpv1q)" height="48" id="Ingredients" style="stroke: #A80036; stroke-width: 1.5;" width="103" x="1230.5" y="424.9531"/><ellipse cx="1245.5" cy="440.9531" fill="#EB937F" rx="11" ry="11" style="stroke: #A80036; stroke-width: 1.0;"/><path d="M1249.6094,446.9531 L1241.8906,446.9531 L1241.8906,434.5625 L1249.6094,434.5625 L1249.6094,436.7188 L1244.3438,436.7188 L1244.3438,439.3906 L1249.1094,439.3906 L1249.1094,441.5469 L1244.3438,441.5469 L1244.3438,444.7969 L1249.6094,444.7969 L1249.6094,446.9531 Z "/><text fill="#000000" font-family="sans-serif" font-size="12" lengthAdjust="spacingAndGlyphs" textLength="71" x="1259.5" y="445.1074">Ingredients</text><line style="stroke: #A80036; stroke-width: 1.5;" x1="1231.5" x2="1332.5" y1="456.9531" y2="456.9531"/><line style="stroke: #A80036; stroke-width: 1.5;" x1="1231.5" x2="1332.5" y1="464.9531" y2="464.9531"/><!--class Sex--><rect fill="#FEFECE" filter="url(#f2q3simutpv1q)" height="86.4141" id="Sex" style="stroke: #A80036; stroke-width: 1.5;" width="54" x="1369" y="405.9531"/><ellipse cx="1384" cy="421.9531" fill="#EB937F" rx="11" ry="11" style="stroke: #A80036; stroke-width: 1.0;"/><path d="M1388.1094,427.9531 L1380.3906,427.9531 L1380.3906,415.5625 L1388.1094,415.5625 L1388.1094,417.7188 L1382.8438,417.7188 L1382.8438,420.3906 L1387.6094,420.3906 L1387.6094,422.5469 L1382.8438,422.5469 L1382.8438,425.7969 L1388.1094,425.7969 L1388.1094,427.9531 Z "/><text fill="#000000" font-family="sans-serif" font-size="12" lengthAdjust="spacingAndGlyphs" textLength="22" x="1398" y="426.1074">Sex</text><line style="stroke: #A80036; stroke-width: 1.5;" x1="1370" x2="1422" y1="437.9531" y2="437.9531"/><text fill="#000000" font-family="sans-serif" font-size="11" lengthAdjust="spacingAndGlyphs" textLength="29" x="1375" y="452.1636">MALE</text><text fill="#000000" font-family="sans-serif" font-size="11" lengthAdjust="spacingAndGlyphs" textLength="42" x="1375" y="464.9683">FEMALE</text><text fill="#000000" font-family="sans-serif" font-size="11" lengthAdjust="spacingAndGlyphs" textLength="38" x="1375" y="477.7729">OTHER</text><line style="stroke: #A80036; stroke-width: 1.5;" x1="1370" x2="1422" y1="484.3672" y2="484.3672"/><!--class Status--><rect fill="#FEFECE" filter="url(#f2q3simutpv1q)" height="112.0234" id="Status" style="stroke: #A80036; stroke-width: 1.5;" width="123" x="1458.5" y="392.9531"/><ellipse cx="1496" cy="408.9531" fill="#EB937F" rx="11" ry="11" style="stroke: #A80036; stroke-width: 1.0;"/><path d="M1500.1094,414.9531 L1492.3906,414.9531 L1492.3906,402.5625 L1500.1094,402.5625 L1500.1094,404.7188 L1494.8438,404.7188 L1494.8438,407.3906 L1499.6094,407.3906 L1499.6094,409.5469 L1494.8438,409.5469 L1494.8438,412.7969 L1500.1094,412.7969 L1500.1094,414.9531 Z "/><text fill="#000000" font-family="sans-serif" font-size="12" lengthAdjust="spacingAndGlyphs" textLength="41" x="1515" y="413.1074">Status</text><line style="stroke: #A80036; stroke-width: 1.5;" x1="1459.5" x2="1580.5" y1="424.9531" y2="424.9531"/><text fill="#000000" font-family="sans-serif" font-size="11" lengthAdjust="spacingAndGlyphs" textLength="68" x="1464.5" y="439.1636">PROFESSOR</text><text fill="#000000" font-family="sans-serif" font-size="11" lengthAdjust="spacingAndGlyphs" textLength="111" x="1464.5" y="451.9683">COLLEGE_STUDENT</text><text fill="#000000" font-family="sans-serif" font-size="11" lengthAdjust="spacingAndGlyphs" textLength="68" x="1464.5" y="464.7729">APPRENTICE</text><text fill="#000000" font-family="sans-serif" font-size="11" lengthAdjust="spacingAndGlyphs" textLength="53" x="1464.5" y="477.5776">STUDENT</text><text fill="#000000" font-family="sans-serif" font-size="11" lengthAdjust="spacingAndGlyphs" textLength="38" x="1464.5" y="490.3823">OTHER</text><line style="stroke: #A80036; stroke-width: 1.5;" x1="1459.5" x2="1580.5" y1="496.9766" y2="496.9766"/><!--class FoodType--><rect fill="#FEFECE" filter="url(#f2q3simutpv1q)" height="176.0469" id="FoodType" style="stroke: #A80036; stroke-width: 1.5;" width="104" x="1230" y="628.9531"/><ellipse cx="1250.4" cy="644.9531" fill="#EB937F" rx="11" ry="11" style="stroke: #A80036; stroke-width: 1.0;"/><path d="M1254.5094,650.9531 L1246.7906,650.9531 L1246.7906,638.5625 L1254.5094,638.5625 L1254.5094,640.7188 L1249.2438,640.7188 L1249.2438,643.3906 L1254.0094,643.3906 L1254.0094,645.5469 L1249.2438,645.5469 L1249.2438,648.7969 L1254.5094,648.7969 L1254.5094,650.9531 Z "/><text fill="#000000" font-family="sans-serif" font-size="12" lengthAdjust="spacingAndGlyphs" textLength="60" x="1265.6" y="649.1074">FoodType</text><line style="stroke: #A80036; stroke-width: 1.5;" x1="1231" x2="1333" y1="660.9531" y2="660.9531"/><text fill="#000000" font-family="sans-serif" font-size="11" lengthAdjust="spacingAndGlyphs" textLength="28" x="1236" y="675.1636">BEEF</text><text fill="#000000" font-family="sans-serif" font-size="11" lengthAdjust="spacingAndGlyphs" textLength="92" x="1236" y="687.9683">REGIONAL_MEAT</text><text fill="#000000" font-family="sans-serif" font-size="11" lengthAdjust="spacingAndGlyphs" textLength="30" x="1236" y="700.7729">PORK</text><text fill="#000000" font-family="sans-serif" font-size="11" lengthAdjust="spacingAndGlyphs" textLength="92" x="1236" y="713.5776">REGIONAL_PORK</text><text fill="#000000" font-family="sans-serif" font-size="11" lengthAdjust="spacingAndGlyphs" textLength="25" x="1236" y="726.3823">FISH</text><text fill="#000000" font-family="sans-serif" font-size="11" lengthAdjust="spacingAndGlyphs" textLength="69" x="1236" y="739.187">VEGETARIAN</text><text fill="#000000" font-family="sans-serif" font-size="11" lengthAdjust="spacingAndGlyphs" textLength="38" x="1236" y="751.9917">VEGAN</text><text fill="#000000" font-family="sans-serif" font-size="11" lengthAdjust="spacingAndGlyphs" textLength="21" x="1236" y="764.7964">LAB</text><text fill="#000000" font-family="sans-serif" font-size="11" lengthAdjust="spacingAndGlyphs" textLength="51" x="1236" y="777.6011">ORGANIC</text><text fill="#000000" font-family="sans-serif" font-size="11" lengthAdjust="spacingAndGlyphs" textLength="75" x="1236" y="790.4058">MENSA_VITAL</text><line style="stroke: #A80036; stroke-width: 1.5;" x1="1231" x2="1333" y1="797" y2="797"/><!--class Subject--><rect fill="#FEFECE" filter="url(#f2q3simutpv1q)" height="137.6328" id="Subject" style="stroke: #A80036; stroke-width: 1.5;" width="79" x="1369.5" y="647.9531"/><ellipse cx="1384.5" cy="663.9531" fill="#EB937F" rx="11" ry="11" style="stroke: #A80036; stroke-width: 1.0;"/><path d="M1388.6094,669.9531 L1380.8906,669.9531 L1380.8906,657.5625 L1388.6094,657.5625 L1388.6094,659.7188 L1383.3438,659.7188 L1383.3438,662.3906 L1388.1094,662.3906 L1388.1094,664.5469 L1383.3438,664.5469 L1383.3438,667.7969 L1388.6094,667.7969 L1388.6094,669.9531 Z "/><text fill="#000000" font-family="sans-serif" font-size="12" lengthAdjust="spacingAndGlyphs" textLength="47" x="1398.5" y="668.1074">Subject</text><line style="stroke: #A80036; stroke-width: 1.5;" x1="1370.5" x2="1447.5" y1="679.9531" y2="679.9531"/><text fill="#000000" font-family="sans-serif" font-size="11" lengthAdjust="spacingAndGlyphs" textLength="10" x="1375.5" y="694.1636">IT</text><text fill="#000000" font-family="sans-serif" font-size="11" lengthAdjust="spacingAndGlyphs" textLength="57" x="1375.5" y="706.9683">ECONOMY</text><text fill="#000000" font-family="sans-serif" font-size="11" lengthAdjust="spacingAndGlyphs" textLength="31" x="1375.5" y="719.7729">MATH</text><text fill="#000000" font-family="sans-serif" font-size="11" lengthAdjust="spacingAndGlyphs" textLength="49" x="1375.5" y="732.5776">PHYSICS</text><text fill="#000000" font-family="sans-serif" font-size="11" lengthAdjust="spacingAndGlyphs" textLength="64" x="1375.5" y="745.3823">CHEMISTRY</text><text fill="#000000" font-family="sans-serif" font-size="11" lengthAdjust="spacingAndGlyphs" textLength="45" x="1375.5" y="758.187">BIOLIGY</text><text fill="#000000" font-family="sans-serif" font-size="11" lengthAdjust="spacingAndGlyphs" textLength="63" x="1375.5" y="770.9917">LINGUISTIC</text><line style="stroke: #A80036; stroke-width: 1.5;" x1="1370.5" x2="1447.5" y1="777.5859" y2="777.5859"/><!--link User to Group--><path d="M758,269.246 C758,284.3756 758,299.9252 758,315.2454 " fill="none" id="User-Group" style="stroke: #A80036; stroke-width: 1.0;"/><polygon fill="#A80036" points="758,328.6332,762,322.6332,758,316.6332,754,322.6332,758,328.6332" style="stroke: #A80036; stroke-width: 1.0;"/><text fill="#000000" font-family="sans-serif" font-size="13" lengthAdjust="spacingAndGlyphs" textLength="7" x="750.7867" y="289.1022">*</text><text fill="#000000" font-family="sans-serif" font-size="13" lengthAdjust="spacingAndGlyphs" textLength="8" x="749.7563" y="317.913">1</text><!--link Meal to Line--><path d="M198,230.5331 C198,281.9043 198,346.9015 198,392.5873 " fill="none" id="Meal-Line" style="stroke: #A80036; stroke-width: 1.0;"/><polygon fill="#A80036" points="198,405.8145,202,399.8145,198,393.8145,194,399.8145,198,405.8145" style="stroke: #A80036; stroke-width: 1.0;"/><text fill="#000000" font-family="sans-serif" font-size="13" lengthAdjust="spacingAndGlyphs" textLength="7" x="190.6773" y="250.807">*</text><text fill="#000000" font-family="sans-serif" font-size="13" lengthAdjust="spacingAndGlyphs" textLength="8" x="189.3625" y="394.7885">1</text><!--link Line to MensaData--><path d="M198,492.0119 C198,537.6879 198,610.0557 198,660.325 " fill="none" id="Line-MensaData" style="stroke: #A80036; stroke-width: 1.0;"/><polygon fill="#A80036" points="198,673.5568,202,667.5568,198,661.5568,194,667.5568,198,673.5568" style="stroke: #A80036; stroke-width: 1.0;"/><text fill="#000000" font-family="sans-serif" font-size="13" lengthAdjust="spacingAndGlyphs" textLength="7" x="190.4203" y="512.4293">*</text><text fill="#000000" font-family="sans-serif" font-size="13" lengthAdjust="spacingAndGlyphs" textLength="8" x="189.3875" y="662.8087">1</text><!--link Credentials to Prefferences--><!--link Prefferences to MealLine--><!--link Credentials to Ingredients--><!--link Ingredients to Sex--><!--link Sex to Status--><!--link Ingredients to FoodType--><!--link FoodType to Subject--><!--
@startuml
title Server Models - Class Diagramm

Group "1" *-up- "*" User
Line "1" *-up- "*" Meal
MensaData "1" *-up- "*" Line

class Credentials {
  -String name
  -String password
  +<<Constructor>>User(string name, string password)
  +string getName()
  +string getPassword()
}

class User {
  -string id
  -String motto
  -Date birthDate
  -Sex gender
  -Subject subject
  -Status status
  -int profilePictureId
  +<<Constructor>>UserProfile(string motto, Date birthDate, Sex gender, Subject subject, Status status, int pictureId) 
  +string getId()
  +string getMotto()
  +Date getBirthDate()
  +Sex getGender()
  +Subject getSubject()
  +Status getStatus()
  +int getProfilePictureId()
}
 
class Group {
  -string id
  -string name
  -string motto
  -int maxMembers
  -string line
  -Date meetingDate
  -List<UserProfiles> users
  +<<Constructor>> Group(string name, string motto, int maxMembers, string line, Date meetingDate, List<UserProfile> user)
  +string getId()
  +string getName()
  +string getMotto()
  +int getMaxMembers()
  +string getLine()
  +Date getMeetingDate()
  +List<UserProfile> getUser()
}

class Meal {
  -String name
  -float price
  -FoodType[] types
  -Ingridients[] ingridients
  +<<Constructor>> Meal(string name, float price, FoodType[] types)
  +string getName()
  +float getPrice()
  +FoodType[] getFoodTypes()
  +Ingidients[] getIngridients()
}

class Line {
  -Meal[] meals
  +<<Constructor>> Line(Meal[] meals)
  +Meal[] getMeals()
}

class MensaData {
  -Line[] lines
  +<<Constructor>> MensaData(Line[] lines)
  +Line[] getLines()
}

class Prefferences {
  -List<Line> prefferedLines
  -Time startTime
  -Time endTime
  +<<Constructor>> Prefferences(List<Line> prefferedLines, Time startTime, Time endTime)
  +List<Line> getPrefferedLines()
  +Time getStartTime()
  +Time getEndTime()
}

enum MealLine {
  LINE_ONE
  LINE_TWO
  LINE_THREE
  LINE_FOUR_FIVE
  CUTLET_BAR
  LINE_SIX
  LATE_LINE
  CURRY_LINE
  CAFETERIA
  CAFETERIA_LATE
  PIZZA_LINE
  PIZZA_LINE_PASTA
  PIZZA_LINE_SALAD
}

enum Ingredients {
}

enum Sex {
  MALE
  FEMALE
  OTHER
}

enum Status {
  PROFESSOR
  COLLEGE_STUDENT
  APPRENTICE
  STUDENT
  OTHER 
}

enum FoodType {
  BEEF
  REGIONAL_MEAT
  PORK
  REGIONAL_PORK
  FISH
  VEGETARIAN
  VEGAN
  LAB
  ORGANIC
  MENSA_VITAL
}

enum Subject {
  IT
  ECONOMY
  MATH
  PHYSICS
  CHEMISTRY
  BIOLIGY
  LINGUISTIC
}
@enduml

PlantUML version 1.2019.04(Fri Mar 29 15:44:36 UTC 2019)
(GPL source distribution)
Java Runtime: OpenJDK Runtime Environment
JVM: OpenJDK 64-Bit Server VM
Java Version: 1.8.0_201-heroku-b09
Operating System: Linux
OS Version: 4.4.0-1046-aws
Default Encoding: UTF-8
Language: en
Country: US
--></g></svg>